<svg width="339" height="199" viewBox="0 0 339 199" fill="none" xmlns="http://www.w3.org/2000/svg">
<mask id="mask0_369_3463" style="mask-type:alpha" maskUnits="userSpaceOnUse" x="0" y="0" width="339" height="199">
<rect width="339" height="198.019" rx="30" fill="#ED713C"/>
</mask>
<g mask="url(#mask0_369_3463)">
<ellipse opacity="0.1" cx="26.3666" cy="229.229" rx="172.729" ry="121.61" fill="black"/>
<ellipse opacity="0.08" cx="312.633" cy="-31.2095" rx="172.729" ry="121.61" fill="black"/>
<path d="M257.701 36.6041C257.909 35.9812 258.241 35.3563 258.615 34.7743C261.064 31.1597 266.004 30.204 269.656 32.6566C273.268 35.1092 274.223 40.0554 271.773 43.7129C270.113 46.1655 267.331 47.4112 264.592 47.205L263.181 49.2839C266.875 49.9496 270.735 48.4527 272.977 45.1689C275.964 40.7211 274.804 34.6538 270.362 31.66C265.92 28.6662 259.861 29.8303 256.871 34.2781C256.538 34.7764 256.249 35.3175 256 35.8567L257.701 36.6041Z" fill="white"/>
<path d="M294.395 32.9056H291.199C290.991 32.9056 290.743 33.1139 290.702 33.3222L289.788 36.7714C289.623 37.188 289.082 38.4338 287.92 38.4338H283.229C282.15 38.4338 282.107 37.6026 282.15 37.2289L283.188 33.3222C283.272 33.0731 283.147 32.9056 282.899 32.9056H279.703C279.495 32.9056 279.246 33.1139 279.205 33.3222L276.05 45.1259C275.966 45.3751 276.091 45.5425 276.34 45.5425H279.536C279.744 45.5425 279.992 45.3342 280.033 45.1259L281.071 41.2193C281.279 40.721 281.818 39.6407 282.899 39.6407H287.589C288.752 39.6407 288.711 40.5964 288.668 40.8884L287.547 45.128C287.463 45.3771 287.587 45.5446 287.836 45.5446H291.032C291.24 45.5446 291.489 45.3363 291.53 45.128L294.685 33.3243C294.726 33.0751 294.601 32.9077 294.395 32.9077V32.9056Z" fill="white"/>
<path d="M265.671 44.9585C262.227 44.9585 259.445 42.2567 259.445 38.932C259.445 35.6074 262.227 32.9056 265.671 32.9056C266.958 32.9056 268.161 33.2793 269.159 33.9451C268.037 33.0731 266.626 32.5319 265.09 32.5319C261.437 32.5319 258.49 35.5237 258.49 39.2649C258.49 43.0062 261.437 45.9142 265.09 45.9142C267.953 45.9142 270.446 44.0436 271.316 41.4255C270.362 43.5044 268.204 44.9585 265.671 44.9585Z" fill="#166FEF"/>
<path d="M295.807 37.1043C295.807 37.1043 296.429 32.8648 298.962 32.8648H310.293C310.293 32.8648 312.326 32.9056 311.953 34.4434C311.455 36.3548 311.247 38.5992 309.214 39.2649C306.432 40.1798 300.538 40.8864 300.538 40.8864C300.538 40.8864 297.675 41.0518 297.632 41.8421C297.591 42.3404 298.129 42.5079 298.711 42.5487C299.168 42.5896 308.631 42.5487 309.336 42.5487L308.466 45.4996H294.893C294.893 45.4996 293.565 45.5834 294.104 43.3799C294.436 42.0504 294.974 40.0552 294.974 40.0552C294.974 40.0552 295.223 38.8075 297.299 38.5583C299.416 38.3092 305.062 37.4351 305.062 37.4351C305.062 37.4351 306.805 37.3943 307.552 36.3957C308.298 35.3991 307.801 35.1908 307.219 35.1908C306.679 35.2316 301.325 35.1908 301.325 35.1908C301.325 35.1908 300.579 35.2316 300.287 35.8137C299.998 36.3957 299.914 37.0185 299.914 37.0185L295.804 37.1023L295.807 37.1043Z" fill="white"/>
<path d="M273.293 58.8186L272.085 60.9996H268.575L275.764 48.3239H280.896L281.353 60.9996H277.91L277.834 58.8186H273.295H273.293ZM277.718 50.8583H277.684L274.677 56.3517H277.816L277.716 50.8583H277.718Z" fill="#166FEF"/>
<path d="M282.038 60.1276L284.785 49.8617H289.939C292.482 49.8617 293.149 50.944 292.431 53.6254C291.658 56.513 290.752 57.4994 287.895 57.4994H285.476L284.773 60.1276H282.038ZM287.985 55.1182C289.076 55.0774 289.26 54.9548 289.614 53.6254C289.896 52.5716 289.82 52.2428 288.754 52.2428H286.882L286.113 55.1182H287.985Z" fill="#166FEF"/>
<path d="M291.479 60.1276L294.226 49.8617H299.379C301.923 49.8617 302.59 50.944 301.872 53.6254C301.099 56.513 300.193 57.4994 297.336 57.4994H294.917L294.213 60.1276H291.479ZM297.426 55.1182C298.517 55.0774 298.7 54.9548 299.055 53.6254C299.337 52.5716 299.261 52.2428 298.195 52.2428H296.322L295.553 55.1182H297.426Z" fill="#166FEF"/>
</g>
</svg>
