<svg width="276" height="324" viewBox="0 0 276 324" fill="none" xmlns="http://www.w3.org/2000/svg">
<g clip-path="url(#clip0_1727_3218)">
<path d="M193.236 310.694C189.188 313.061 184.745 315.159 180.082 316.901C172.252 319.848 163.72 321.857 154.925 322.973C143.888 324.357 132.413 324.357 121.335 322.929C112.499 321.768 103.972 319.714 96.1054 316.767C91.4471 315.026 87.009 312.927 82.9231 310.516C78.8372 308.105 75.2792 305.515 72.2928 302.791C67.2424 298.192 63.7313 293.147 61.8032 288.012C59.3492 281.538 59.3082 279.127 61.7345 272.652C63.6315 267.473 67.1112 262.472 72.1291 257.873C75.0783 255.149 78.5989 252.56 82.6908 250.193C86.7387 247.827 91.182 245.728 95.8447 243.987C103.674 241.04 112.207 239.03 121.001 237.914C132.039 236.53 143.514 236.53 154.592 237.959C163.428 239.12 171.955 241.174 179.821 244.121C184.48 245.862 188.918 247.961 193.003 250.372C197.089 252.783 200.647 255.372 203.634 258.096C208.684 262.695 212.195 267.741 214.123 272.875C216.577 279.35 216.618 281.761 214.192 288.235C212.295 293.415 208.815 298.416 203.797 303.015C200.848 305.738 197.328 308.328 193.236 310.694Z" fill="#D0CEC9"/>
<path d="M180.126 316.901L180.144 302.389L154.987 308.462L154.969 322.973C143.932 324.357 132.456 324.357 121.378 322.929L121.397 308.417L96.1673 302.255L96.1492 316.767C91.4909 315.026 87.0528 312.927 82.9669 310.516C78.881 308.105 75.3229 305.515 72.3366 302.791L72.3547 288.28L61.8212 273.456L61.8031 287.967C60.6198 284.886 60.0083 281.716 59.9243 278.546C59.8407 275.108 59.9428 263.722 59.9428 263.722L72.0851 257.828C75.0342 255.105 78.5548 252.515 82.6467 250.148C86.6946 247.782 91.1379 245.683 95.8006 243.942L126.637 266.58L121.001 237.869C132.039 236.485 143.514 236.485 154.592 237.914L149.192 266.624L179.821 244.076C184.479 245.817 188.917 247.916 193.003 250.327C197.089 252.738 200.647 255.328 203.634 258.051L165.184 276.001L214.167 272.875C213.951 270.062 215.895 262.65 216.023 265.642C216.023 265.865 216.007 278.01 216.007 278.234C216.003 281.582 215.427 284.931 214.236 288.235L214.254 273.724L203.859 288.503L203.841 303.015C200.892 305.738 197.371 308.328 193.28 310.694C189.232 313.061 184.788 315.159 180.126 316.901Z" fill="#166FED"/>
<path d="M193.254 296.183C189.206 298.55 184.763 300.648 180.1 302.389C172.27 305.336 163.738 307.346 154.943 308.462C143.906 309.846 132.431 309.846 121.353 308.417C112.517 307.256 103.99 305.202 96.1236 302.256C91.4653 300.514 87.0272 298.416 82.9413 296.004C78.8554 293.593 75.2973 291.004 72.311 288.28C67.2606 283.681 63.7495 278.635 61.8214 273.501C59.3673 267.026 59.3318 260.284 61.7581 253.81C63.6551 248.63 67.1348 243.629 72.1527 239.03C75.1019 236.307 78.6225 233.717 82.7144 231.351C86.7623 228.984 91.2056 226.886 95.8682 225.144C103.698 222.197 112.23 220.188 121.025 219.072C132.062 217.688 143.538 217.688 154.616 219.116C163.451 220.277 171.978 222.331 179.845 225.278C184.503 227.019 188.941 229.118 193.027 231.529C197.113 233.94 200.671 236.53 203.657 239.254C208.708 243.853 212.219 248.898 214.147 254.033C216.601 260.507 216.637 267.25 214.21 273.724C212.313 278.903 208.834 283.904 203.816 288.503C200.866 291.227 197.346 293.817 193.254 296.183Z" fill="#D6D4D0"/>
<path d="M212.477 253.274C210.549 248.228 207.125 243.317 202.207 238.807C199.264 236.128 195.794 233.583 191.796 231.217C187.798 228.85 183.448 226.841 178.878 225.099C171.187 222.197 162.836 220.188 154.176 219.072C143.362 217.643 132.106 217.643 121.289 219.027C112.67 220.143 104.313 222.108 96.6597 224.965C92.085 226.662 87.7737 228.671 83.8137 231.038C79.8538 233.36 76.3773 235.905 73.4721 238.584C68.5861 243.094 65.1946 247.96 63.2977 253.006C60.9595 259.346 60.9953 265.91 63.3615 272.295C65.2898 277.34 68.713 282.252 73.6317 286.762C76.5741 289.441 80.0443 291.986 84.0424 294.352C88.0404 296.719 92.3906 298.728 96.961 300.469C104.652 303.372 113.003 305.381 121.663 306.497C132.477 307.926 143.732 307.926 154.55 306.542C163.169 305.426 171.525 303.461 179.179 300.603C183.754 298.907 188.065 296.897 192.025 294.531C195.985 292.164 199.461 289.664 202.366 286.985C207.252 282.475 210.644 277.608 212.541 272.563C214.879 266.222 214.843 259.614 212.477 253.274Z" fill="#EEEEEE"/>
<path d="M180.144 302.345L149.308 279.707L154.944 308.417C143.906 309.801 132.431 309.801 121.353 308.373L126.753 279.662L96.1236 302.211C91.4653 300.469 87.0273 298.371 82.9414 295.96C78.8555 293.549 75.2974 290.959 72.311 288.235L110.761 270.286L61.8214 273.456C59.3674 266.982 59.3319 260.239 61.7581 253.765L110.733 257.114L72.1088 238.986C75.058 236.262 78.5786 233.672 82.6705 231.306C86.7184 228.939 91.1617 226.841 95.8243 225.099L126.661 247.737L120.981 219.027C132.018 217.643 143.494 217.643 154.572 219.072L149.172 247.782L179.801 225.233C184.459 226.975 188.897 229.073 192.983 231.484C197.069 233.896 200.627 236.485 203.613 239.209L165.164 257.158L214.147 253.988C216.601 260.463 216.637 267.205 214.21 273.679L165.235 270.33L203.86 288.414C200.911 291.137 197.39 293.727 193.298 296.094C189.25 298.46 184.807 300.559 180.144 302.3L180.144 302.345Z" fill="#127FF9"/>
<path d="M73.5601 238.539C76.4653 235.86 79.8978 233.36 83.9017 230.993C87.6856 228.805 91.733 226.885 96.0438 225.233L95.8681 225.099C91.2054 226.841 86.8062 228.895 82.7142 231.306C78.6663 233.672 75.1457 236.262 72.1526 238.986L72.7677 239.298C73.0319 239.03 73.296 238.807 73.5601 238.539Z" fill="#127FF9"/>
<path d="M63.4495 272.25C61.1708 266.178 61.0467 259.927 63.0768 253.854L61.7579 253.765C59.3756 260.239 59.4112 266.982 61.8212 273.456L63.8878 273.322C63.7564 272.965 63.581 272.608 63.4495 272.25Z" fill="#127FF9"/>
<path d="M154.22 219.072C154.22 219.072 154.44 219.072 154.571 219.116C150.395 218.536 146.175 218.223 141.91 218.089C146.043 218.223 150.175 218.58 154.22 219.072Z" fill="#127FF9"/>
<path d="M191.84 231.217C195.838 233.583 199.308 236.083 202.251 238.807C202.514 239.075 202.778 239.298 203.041 239.566L203.657 239.254C200.671 236.53 197.113 233.896 193.027 231.529C188.941 229.163 184.503 227.064 179.845 225.278L179.669 225.412C183.975 227.064 188.062 228.984 191.84 231.217Z" fill="#127FF9"/>
<path d="M121.376 219.027C126.785 218.313 132.282 218 137.777 218C132.15 218 126.521 218.313 120.981 219.027C120.981 219.027 121.201 219.027 121.333 219.027H121.376Z" fill="#127FF9"/>
<path d="M192.069 294.486C188.109 296.808 183.754 298.817 179.223 300.559C178.871 300.693 178.519 300.827 178.167 300.916L180.1 302.345C184.763 300.603 189.162 298.549 193.254 296.138C197.302 293.772 200.822 291.182 203.815 288.458L201.794 287.521C199.021 289.977 195.809 292.343 192.069 294.486Z" fill="#127FF9"/>
<path d="M214.147 254.033L212.828 254.122C214.93 260.195 214.835 266.49 212.585 272.518C212.452 272.875 212.32 273.233 212.144 273.59L214.21 273.724C216.592 267.25 216.557 260.507 214.147 254.033Z" fill="#127FF9"/>
<path d="M121.707 306.453L121.353 308.373C132.431 309.801 143.906 309.846 154.943 308.417L154.55 306.497C143.732 307.881 132.521 307.837 121.707 306.453Z" fill="#127FF9"/>
<path d="M97.049 300.425C92.4785 298.728 88.1284 296.674 84.1303 294.308C80.3959 292.12 77.1453 289.753 74.3785 287.298L72.3548 288.235C75.3411 290.959 78.8992 293.593 82.9851 295.96C87.0711 298.326 91.5091 300.425 96.1674 302.211L98.1037 300.782C97.7521 300.648 97.4005 300.559 97.049 300.425Z" fill="#127FF9"/>
<path d="M179.283 287.967C156.579 301.273 119.691 301.184 96.8888 287.833C74.0868 274.438 73.9819 252.827 96.6854 239.522C119.389 226.216 156.277 226.305 179.079 239.656C201.881 253.051 201.986 274.661 179.283 287.967Z" fill="#166FED"/>
<path d="M176.996 288.503C155.524 301.05 120.702 301.005 99.1305 288.369C77.5585 275.733 77.4962 255.283 98.9238 242.692C120.395 230.145 155.217 230.19 176.789 242.826C198.361 255.462 198.423 275.912 176.996 288.503Z" fill="#127FF9"/>
<path d="M169 283.815C151.928 293.817 124.185 293.772 107.05 283.681C89.9159 273.635 89.8483 257.337 106.92 247.38C123.992 237.378 151.735 237.423 168.869 247.514C186.004 257.56 186.071 273.858 169 283.815Z" fill="#EEEEEE"/>
</g>
<g clip-path="url(#clip1_1727_3218)">
<path opacity="0.53" d="M138.83 278.04L0 77H275.47L138.83 278.04Z" fill="url(#paint0_linear_1727_3218)"/>
</g>
<g clip-path="url(#clip2_1727_3218)">
<path d="M179.267 6.03179L169.575 0.454835C168.613 -0.10416 167.378 -0.18866 166.28 0.448335L112.987 31.2126L103.88 36.471C101.482 37.8555 100 40.4165 100 43.192V189.987C100 191.365 100.819 192.457 101.911 192.964L110.705 197.995L114.657 190.253L112.181 188.641L167.32 156.805C169.718 155.42 171.2 152.859 171.2 150.084V76.4847L177.583 81.4506L179.26 6.03179H179.267Z" fill="#1B1C1C"/>
<path d="M100 46.0456L113.832 52.9225L118.401 37.7516L107.871 34.1702L103.88 36.4711C101.482 37.8556 100 40.4166 100 43.1921V46.0456Z" fill="#282828"/>
<path d="M179.267 6.03191L169.575 0.454957C168.613 -0.104038 167.378 -0.188537 166.28 0.448457L112.987 31.2127L103.88 36.4711C103.438 36.7246 103.035 37.0171 102.658 37.3421L112.753 42.8931L179.059 15.3918L179.267 6.02541V6.03191Z" fill="#323333"/>
<path d="M105.434 64.421L105.421 64.408C104.914 63.8425 104.257 63.6085 103.692 63.797C102.483 64.2 102.307 66.202 103.38 67.4239L103.393 67.4369C103.9 68.0154 104.569 68.2559 105.141 68.0674C106.363 67.6644 106.526 65.6365 105.434 64.421Z" fill="#939393"/>
<path d="M104.803 64.798L104.79 64.785C104.283 64.2195 103.627 63.9855 103.061 64.174C101.852 64.577 101.677 66.579 102.749 67.801L102.762 67.814C103.269 68.3924 103.939 68.6329 104.511 68.4445C105.733 68.0415 105.895 66.0135 104.803 64.798Z" fill="#505151"/>
<path d="M109.373 48.561V195.356C109.373 197.884 112.109 199.457 114.293 198.196L176.693 162.167C179.091 160.783 180.573 158.222 180.573 155.446V8.65137C180.573 6.12289 177.837 4.5499 175.653 5.81089L113.253 41.8401C110.855 43.2246 109.373 45.7856 109.373 48.561Z" fill="#505151"/>
<path d="M175.653 5.81089L113.253 41.8401C112.07 42.5226 111.108 43.4911 110.445 44.6351L180.183 157.89C180.443 157.117 180.58 156.291 180.58 155.453V8.65137C180.58 6.12289 177.843 4.5499 175.659 5.81089H175.653Z" fill="url(#paint1_linear_1727_3218)"/>
<path d="M112.369 59.1495V178.742L177.609 141.14L177.564 21.5278L112.369 59.1495Z" fill="#8FA2BD"/>
<path d="M117.55 56.166L171.896 144.429L177.609 141.14L177.564 21.5278L117.55 56.166Z" fill="url(#paint2_linear_1727_3218)"/>
<g style="mix-blend-mode:soft-light" opacity="0.45">
<path d="M122.576 113.507C122.451 112.89 122.427 112.212 122.458 111.55C122.76 107.377 126.403 104.216 130.611 104.501C134.784 104.805 137.946 108.452 137.665 112.661C137.462 115.492 135.749 117.859 133.377 119.001L133.201 121.403C136.586 120.185 139.074 117.092 139.362 113.292C139.711 108.169 135.841 103.691 130.719 103.335C125.597 102.98 121.124 106.85 120.773 111.975C120.735 112.547 120.754 113.135 120.806 113.702L122.576 113.507Z" fill="white"/>
<path d="M151.268 92.8492L148.615 94.3811C148.443 94.4808 148.336 94.7729 148.402 94.9653L149.296 98.2656C149.358 98.6905 149.506 99.9833 148.541 100.541L144.647 102.789C143.751 103.306 143.317 102.637 143.174 102.306L142.164 98.5667C142.114 98.3199 141.93 98.2405 141.724 98.3598L139.071 99.8916C138.898 99.9914 138.791 100.283 138.857 100.476L141.893 111.784C141.943 112.03 142.126 112.11 142.333 111.99L144.986 110.459C145.159 110.359 145.266 110.067 145.2 109.874L144.19 106.135C144.124 105.622 144.053 104.467 144.951 103.949L148.845 101.7C149.81 101.143 150.234 101.956 150.339 102.219L151.439 106.275C151.489 106.522 151.672 106.601 151.879 106.482L154.532 104.95C154.705 104.85 154.811 104.558 154.745 104.365L151.709 93.0578C151.624 92.8315 151.44 92.7522 151.269 92.8509L151.268 92.8492Z" fill="white"/>
<path d="M133.196 116.619C130.336 118.271 126.732 117.362 125.139 114.603C123.546 111.844 124.562 108.268 127.421 106.617C128.49 106.001 129.668 105.734 130.815 105.808C129.466 105.622 128.035 105.85 126.76 106.586C123.727 108.337 122.714 112.232 124.506 115.337C126.299 118.441 130.139 119.442 133.171 117.691C135.549 116.319 136.722 113.572 136.19 110.982C136.394 113.164 135.299 115.405 133.196 116.619Z" fill="#166FEF"/>
<path d="M154.452 95.657C154.452 95.657 152.937 91.8406 155.04 90.6265L164.448 85.1951C164.448 85.1951 166.155 84.2543 166.582 85.7094C167.085 87.5341 167.987 89.4963 166.618 91.0234C164.747 93.1161 160.192 96.5276 160.192 96.5276C160.192 96.5276 157.894 98.0374 158.237 98.7138C158.442 99.1468 158.969 99.0277 159.472 98.783C159.87 98.5979 167.707 94.0281 168.293 93.6898L168.984 96.5561L157.716 103.062C157.716 103.062 156.654 103.768 156.045 101.681C155.684 100.418 155.175 98.5047 155.175 98.5047C155.175 98.5047 154.784 97.35 156.388 96.148C158.026 94.9266 162.294 91.4953 162.294 91.4953C162.294 91.4953 163.722 90.6256 163.864 89.4391C164.006 88.2543 163.493 88.32 163.01 88.5986C162.581 88.8915 158.117 91.4237 158.117 91.4237C158.117 91.4237 157.517 91.8154 157.554 92.4382C157.592 93.06 157.821 93.617 157.821 93.617L154.449 95.6563L154.452 95.657Z" fill="white"/>
</g>
<path d="M150.836 26.2598L138.025 33.6567C137.459 33.9817 137.108 34.5927 137.108 35.2492V36.4127C137.108 37.4462 138.226 38.0897 139.117 37.5697L151.928 30.1727C152.494 29.8477 152.845 29.2367 152.845 28.5802V27.4167C152.845 26.3832 151.727 25.7398 150.836 26.2598Z" fill="#32373F"/>
<path d="M211.832 89.6669C221.197 81.8227 219.726 64.6437 208.547 51.2966C197.367 37.9496 180.712 33.4886 171.347 41.3328C161.982 49.1771 163.453 66.356 174.633 79.7031C185.813 93.0502 202.468 97.5111 211.832 89.6669Z" fill="#E9EFF2"/>
<path d="M188.575 41.3071C173.989 36.1137 162.165 43.7251 162.165 58.311C162.165 61.6649 162.815 65.0969 163.959 68.4574L157.921 76.2378L167.911 76.7708C172.747 84.5772 180.203 91.1422 188.575 94.1257C203.161 99.3191 214.984 91.7077 214.984 77.1218C214.984 62.5359 203.161 46.5006 188.575 41.3071Z" fill="#C5D6E0"/>
<path d="M200.899 85.2858L175.023 47.9306V70.3489L200.899 62.8675V85.2858Z" fill="#166FEF"/>
<path d="M200.899 85.2858L187.964 66.6115L175.022 70.3489L200.899 85.2858Z" fill="#166FEF"/>
<path d="M175.022 47.9306L186.43 67.7619C186.69 68.2104 187.236 68.3989 187.71 68.2039L200.886 62.8675L175.016 47.9306H175.022Z" fill="#5292ED"/>
<path d="M196.089 61.704C196.089 65.4414 199.118 69.5494 202.855 70.8754C206.593 72.2079 209.622 70.2579 209.622 66.5204C209.622 62.783 206.593 58.675 202.855 57.349C199.118 56.0165 196.089 57.9665 196.089 61.704Z" fill="#E83838"/>
<path d="M200.232 66.8366L200.465 66.4339L202.933 65.6515C203.223 65.56 203.466 65.4759 203.664 65.399C203.862 65.3206 204.026 65.234 204.154 65.139C204.285 65.0435 204.391 64.9256 204.472 64.7854C204.565 64.6243 204.606 64.4624 204.597 64.2998C204.589 64.1381 204.537 63.9868 204.441 63.846C204.345 63.7052 204.215 63.587 204.049 63.4914C203.873 63.3898 203.698 63.3377 203.525 63.335C203.354 63.3316 203.195 63.3742 203.049 63.4626C202.904 63.5519 202.781 63.6838 202.68 63.8583L202.152 63.5535C202.307 63.285 202.505 63.0851 202.746 62.9537C202.987 62.8223 203.247 62.7615 203.525 62.7713C203.806 62.7819 204.079 62.8643 204.346 63.0185C204.615 63.1735 204.82 63.3675 204.962 63.6006C205.104 63.8337 205.178 64.0804 205.185 64.3409C205.191 64.6013 205.127 64.8494 204.991 65.0851C204.893 65.2536 204.768 65.4008 204.613 65.5266C204.462 65.6517 204.254 65.7697 203.991 65.8805C203.731 65.9906 203.388 66.1109 202.963 66.2412L201.298 66.7478L201.277 66.7836L203.407 68.0134L203.123 68.5056L200.232 66.8366Z" fill="white"/>
<path d="M210.322 150.904C219.687 143.06 218.215 125.881 207.036 112.534C195.856 99.1865 179.201 94.7256 169.836 102.57C160.471 110.414 161.942 127.593 173.122 140.94C184.302 154.287 200.957 158.748 210.322 150.904Z" fill="#E9EFF2"/>
<path d="M187.073 102.55C172.487 97.3562 160.664 104.968 160.664 119.553C160.664 122.907 161.314 126.339 162.458 129.7L156.42 137.48L166.41 138.013C171.246 145.82 178.701 152.385 187.073 155.368C201.659 160.562 213.483 152.95 213.483 138.364C213.483 123.778 201.659 107.743 187.073 102.55Z" fill="#C5D6E0"/>
<path d="M173.709 113.015L170.602 117.402C169.601 119.267 169.738 121.685 170.966 123.869C170.966 123.869 176.556 132.033 178.948 134.432C181.347 136.83 189.511 142.414 189.511 142.414C191.695 143.642 194.113 143.772 195.978 142.778L200.366 139.671C201.074 139.177 201.074 138.091 200.366 137.318L196.284 134.588C195.614 133.86 194.581 133.704 193.976 134.243L191.942 136.356C191.747 136.531 191.441 136.544 191.175 136.388C191.175 136.388 184.681 132.339 182.855 130.512C181.028 128.686 176.979 122.192 176.979 122.192C176.829 121.919 176.842 121.614 177.011 121.425L179.124 119.391C179.663 118.786 179.507 117.753 178.779 117.083L176.049 113.002C175.276 112.3 174.19 112.3 173.696 113.002L173.709 113.015Z" fill="#166FEF"/>
<path d="M203.507 127.572C205.906 125.562 205.531 121.162 202.668 117.744C199.805 114.326 195.539 113.184 193.139 115.194C190.739 117.204 191.115 121.605 193.978 125.023C196.841 128.441 201.107 129.582 203.507 127.572Z" fill="#E83838"/>
<path d="M199.959 120.45L197.313 125.032L196.758 124.711L199.068 120.711L199.041 120.696L197.494 120.792L197.819 120.228L199.404 120.129L199.959 120.45Z" fill="white"/>
</g>
<defs>
<linearGradient id="paint0_linear_1727_3218" x1="137.73" y1="-71.04" x2="137.73" y2="327.86" gradientUnits="userSpaceOnUse">
<stop offset="0.6" stop-color="white" stop-opacity="0"/>
<stop offset="0.68" stop-color="#127FF9" stop-opacity="0.29"/>
<stop offset="0.76" stop-color="#127FF9" stop-opacity="0.54"/>
<stop offset="0.84" stop-color="#127FF9" stop-opacity="0.74"/>
<stop offset="0.91" stop-color="#127FF9" stop-opacity="0.88"/>
<stop offset="0.96" stop-color="#127FF9" stop-opacity="0.97"/>
<stop offset="1" stop-color="#127FF9"/>
</linearGradient>
<linearGradient id="paint1_linear_1727_3218" x1="157.999" y1="7.21488" x2="147.339" y2="86.6702" gradientUnits="userSpaceOnUse">
<stop stop-color="#6C6D6D"/>
<stop offset="1" stop-color="#505151"/>
</linearGradient>
<linearGradient id="paint2_linear_1727_3218" x1="147.073" y1="105.384" x2="153.67" y2="17.8098" gradientUnits="userSpaceOnUse">
<stop stop-color="#8FA1BC"/>
<stop offset="1" stop-color="#CEDFF7"/>
</linearGradient>
<clipPath id="clip0_1727_3218">
<rect width="156.038" height="106" fill="white" transform="matrix(1 0 -0.00125033 0.999999 60 218)"/>
</clipPath>
<clipPath id="clip1_1727_3218">
<rect width="275.47" height="201.04" fill="white" transform="translate(0 77)"/>
</clipPath>
<clipPath id="clip2_1727_3218">
<rect width="118" height="198.638" fill="white" transform="translate(100)"/>
</clipPath>
</defs>
</svg>
