<svg width="282" height="273" viewBox="0 0 282 273" fill="none" xmlns="http://www.w3.org/2000/svg">
<g opacity="0.2">
<path opacity="0.05" d="M149.1 90.1606C152.771 88.034 157.643 86.7266 162.306 86.7266C164.446 86.7266 166.586 86.9183 168.466 87.389C170.188 87.8073 171.772 88.4 173.181 89.1845C173.425 89.0799 202.256 105.379 202.448 105.483L269.281 143.659C273.161 145.908 275.632 149.603 275.632 153.543C275.632 155.373 275.266 157.204 274.361 158.842C273.126 161.091 271.247 163.2 268.55 164.769L195.366 204.723C195.366 204.723 193.104 205.943 193.121 205.943C189.554 208.14 184.978 209.412 180.263 209.517C176.174 209.586 172.433 208.75 169.423 207.128L156.564 199.737C156.321 199.877 131.787 185.182 131.578 185.06L84.1284 156.175C80.2482 153.926 77.6904 150.179 77.6904 146.239C77.6904 145.141 77.7774 144.008 78.108 142.979C79.0824 139.911 81.1878 136.983 84.6852 134.961L132.082 101.788C131.874 101.666 148.821 90.3001 149.065 90.1432L149.1 90.1606Z" fill="#ABB2E2"/>
<path opacity="0.1" d="M145.933 92.7039C149.431 90.6818 154.355 89.3047 158.774 89.3047C160.81 89.3047 162.985 89.4441 164.76 89.8625C166.413 90.2634 167.979 90.7864 169.353 91.5185C169.841 91.3268 197.559 106.806 197.941 107.015L263.017 144.215C266.706 146.342 269.298 150.002 269.298 153.768C269.298 155.493 269.072 157.306 268.22 158.875C267.036 161.019 265.436 163.129 262.878 164.61L195.123 203.588C195.123 203.588 193.017 204.773 193.035 204.791C189.746 206.97 185.431 208.277 180.89 208.469C176.975 208.591 173.355 207.876 170.415 206.377L157.782 199.579C157.278 199.875 133.597 185.912 133.162 185.668L86.5647 157.341C82.876 155.215 80.1094 151.449 80.1094 147.701C80.1094 146.656 80.1094 145.54 80.4052 144.546C81.3448 141.618 83.0326 138.672 86.3385 136.754L129.716 104.279C129.281 104.035 145.411 93.0002 145.916 92.7039H145.933Z" fill="#A7ADDF"/>
<path opacity="0.14" d="M142.766 95.249C146.072 93.3315 151.048 91.8672 155.241 91.8672C157.155 91.8672 159.365 91.9369 161.053 92.3378C162.654 92.7039 164.168 93.1746 165.525 93.8544C166.256 93.5581 192.86 108.236 193.417 108.567L256.735 144.773C260.232 146.795 262.964 150.421 262.964 153.977C262.964 155.616 262.86 157.411 262.059 158.875C260.946 160.915 259.606 163.007 257.17 164.419L194.861 202.438C194.861 202.438 192.895 203.571 192.947 203.623C189.937 205.767 185.865 207.127 181.515 207.423C177.774 207.615 174.277 207.005 171.389 205.645L158.965 199.422C158.217 199.858 135.353 186.662 134.71 186.278L88.9652 158.509C85.4679 156.487 82.4925 152.722 82.4925 149.166C82.4925 148.172 82.3881 147.056 82.6839 146.115C83.5713 143.343 84.8589 140.363 87.9908 138.55L127.349 106.771C126.706 106.388 142.018 95.7022 142.766 95.2664V95.249Z" fill="#A3A9DC"/>
<path opacity="0.19" d="M139.599 97.7922C142.714 95.9793 147.743 94.4453 151.71 94.4453C153.519 94.4453 155.746 94.4453 157.347 94.8114C158.896 95.16 160.375 95.561 161.697 96.1885C162.672 95.805 188.162 109.663 188.911 110.099L250.471 145.329C253.777 147.246 256.631 150.82 256.631 154.184C256.631 155.736 256.666 157.496 255.9 158.891C254.856 160.808 253.777 162.9 251.481 164.243L194.6 201.303C194.6 201.303 192.791 202.401 192.843 202.453C190.111 204.562 186.301 205.974 182.142 206.358C178.575 206.619 175.2 206.096 172.363 204.876L160.149 199.228C159.139 199.804 137.111 187.357 136.241 186.869L91.3495 159.658C88.0435 157.74 84.8593 153.975 84.8593 150.611C84.8593 149.687 84.6505 148.554 84.9289 147.682C85.7641 145.067 86.6515 142.052 89.6095 140.343L124.931 109.262C124.061 108.757 138.555 98.4023 139.565 97.8271L139.599 97.7922Z" fill="#9FA4D8"/>
<path opacity="0.24" d="M136.433 100.341C139.373 98.6497 144.454 97.0111 148.195 97.0111C149.9 97.0111 152.145 96.9588 153.659 97.2726C155.155 97.5863 156.582 97.935 157.869 98.4928C159.087 98.0047 183.465 111.061 184.404 111.602L244.208 145.838C247.322 147.633 250.298 151.189 250.298 154.344C250.298 155.809 250.472 157.535 249.741 158.859C248.749 160.672 247.949 162.764 245.791 164.019L194.339 200.121C194.426 200.173 192.686 201.184 192.756 201.254C190.303 203.345 186.736 204.792 182.769 205.28C179.358 205.594 176.122 205.193 173.338 204.112L161.349 199.04C160.097 199.772 138.886 188.075 137.807 187.448L93.7681 160.794C90.6536 158.999 87.2606 155.216 87.2606 152.043C87.2606 151.172 86.9648 150.056 87.2258 149.22C88.0088 146.762 88.4786 143.711 91.28 142.107L122.582 111.724C121.504 111.096 135.18 101.09 136.433 100.358V100.341Z" fill="#9BA0D5"/>
<path opacity="0.29" d="M133.266 102.884C136.015 101.298 141.148 99.5895 144.663 99.5895C146.264 99.5895 148.526 99.4849 149.953 99.7638C151.397 100.06 152.789 100.339 154.042 100.845C155.503 100.269 178.749 112.507 179.88 113.152L237.926 146.394C240.832 148.085 243.964 151.589 243.964 154.552C243.964 155.912 244.26 157.638 243.599 158.858C242.677 160.549 242.137 162.641 240.119 163.826L194.114 198.969C194.218 199.038 192.6 199.997 192.687 200.067C190.512 202.124 187.206 203.623 183.413 204.198C180.176 204.582 177.044 204.285 174.33 203.344L162.55 198.847C161.054 199.718 140.678 188.771 139.373 188.021L96.1869 161.926C93.2812 160.235 89.662 156.452 89.662 153.489C89.662 152.67 89.2618 151.554 89.5054 150.769C90.2362 148.468 90.3058 145.383 92.9332 143.884L120.216 114.18C118.911 113.43 131.77 103.756 133.266 102.884Z" fill="#979BD2"/>
<path opacity="0.48" d="M120.616 113.066C122.635 111.898 127.977 109.875 130.552 109.875C131.718 109.875 134.084 109.509 135.145 109.649C136.381 109.823 137.599 109.875 138.73 110.154C141.148 109.196 159.958 118.173 161.837 119.271L212.836 148.574C214.976 149.812 218.613 153.176 218.613 155.355C218.613 156.366 219.448 157.97 218.961 158.876C218.282 160.114 218.821 162.206 217.342 163.06L193.07 194.35C193.261 194.455 192.165 195.222 192.304 195.344C191.26 197.296 188.963 198.952 185.918 199.929C183.378 200.574 180.733 200.696 178.227 200.295L167.3 198.116C164.795 199.562 147.725 191.631 145.568 190.376L105.792 166.512C103.652 165.274 99.1972 161.439 99.1972 159.26C99.1972 158.65 98.4142 157.552 98.5882 156.976C99.1276 155.286 97.579 152.095 99.5104 150.997L110.716 124.082C108.541 122.827 118.128 114.512 120.634 113.066H120.616Z" fill="#8789C6"/>
<path opacity="0.57" d="M114.283 118.156C115.936 117.197 121.382 115.018 123.487 115.018C124.444 115.018 126.863 114.74 127.716 114.6C128.847 114.408 129.995 114.635 131.056 114.827C133.962 113.676 150.527 121.032 152.789 122.34L200.273 149.673C202.013 150.684 205.928 153.979 205.928 155.757C205.928 156.576 207.042 158.145 206.624 158.877C206.067 159.888 207.146 161.962 205.928 162.677L192.53 192.05C192.756 192.172 191.921 192.852 192.095 192.991C191.608 194.874 189.816 196.634 187.136 197.802C184.926 198.569 182.543 198.901 180.159 198.779L169.667 197.768C166.656 199.511 151.258 193.078 148.648 191.562L110.577 168.813C108.837 167.802 103.947 163.932 103.947 162.154C103.947 161.666 102.973 160.568 103.112 160.097C103.547 158.72 101.198 155.478 102.764 154.554L105.931 129.034C103.321 127.535 111.273 119.882 114.283 118.139V118.156Z" fill="#7F80BF"/>
<path opacity="0.62" d="M111.116 120.7C112.577 119.846 118.076 117.597 119.955 117.597C120.808 117.597 123.261 117.248 124.009 117.074C125.088 116.83 126.184 117.022 127.211 117.161C130.36 115.906 145.811 122.46 148.265 123.872L193.974 150.212C195.523 151.118 199.559 154.361 199.559 155.947C199.559 156.679 200.795 158.213 200.447 158.876C199.96 159.782 201.299 161.857 200.221 162.467L192.252 190.881C192.495 191.02 191.782 191.648 191.991 191.804C191.782 193.67 190.251 195.465 187.745 196.738C185.709 197.557 183.447 198.01 181.116 198.028L170.832 197.592C167.578 199.474 152.997 193.792 150.179 192.171L112.96 169.98C111.412 169.073 106.313 165.203 106.313 163.635C106.313 163.199 105.235 162.101 105.374 161.682C105.774 160.445 103.008 157.185 104.399 156.365L103.547 131.543C100.728 129.904 107.845 122.6 111.098 120.717L111.116 120.7Z" fill="#7B7CBC"/>
<path opacity="0.67" d="M107.949 123.243C109.237 122.493 114.787 120.157 116.423 120.157C117.171 120.157 119.659 119.373 120.303 119.547C121.347 119.425 122.391 119.408 123.383 119.495C126.776 118.153 141.113 123.888 143.741 125.404L187.693 150.768C189.05 151.552 193.208 154.777 193.208 156.154C193.208 156.799 194.583 158.316 194.27 158.891C193.835 159.675 195.453 161.75 194.513 162.29L191.99 189.745C192.251 189.902 191.677 190.477 191.886 190.634C191.956 192.465 190.668 194.295 188.371 195.672C186.509 196.561 184.369 197.119 182.09 197.258L172.015 197.398C168.518 199.42 154.755 194.487 151.727 192.744L115.379 171.111C114.021 170.326 108.715 166.439 108.715 165.062C108.715 164.678 107.549 163.58 107.653 163.214C108.001 162.133 104.834 158.839 106.052 158.124L101.18 133.998C98.1528 132.238 104.452 125.282 107.949 123.243Z" fill="#7777B9"/>
<path opacity="0.71" d="M104.8 125.788C105.896 125.143 111.499 122.737 112.908 122.737C113.552 122.737 116.057 121.883 116.614 122.022C117.606 121.866 118.598 121.796 119.572 121.813C123.209 120.366 136.415 125.3 139.251 126.921L181.446 151.291C182.612 151.97 186.91 155.143 186.91 156.328C186.91 156.869 188.423 158.368 188.145 158.856C187.78 159.536 189.659 161.593 188.858 162.063L191.764 188.56C192.043 188.717 191.608 189.257 191.834 189.431C192.199 191.227 191.155 193.11 189.032 194.591C187.345 195.55 185.326 196.212 183.099 196.491L173.251 197.206C169.492 199.385 156.564 195.201 153.328 193.319L117.832 172.244C116.666 171.564 111.151 167.676 111.151 166.491C111.151 166.16 109.88 165.062 109.985 164.748C110.281 163.824 106.714 160.495 107.758 159.884L98.8488 136.439C95.595 134.556 101.076 127.932 104.834 125.753L104.8 125.788Z" fill="#7373B6"/>
<path opacity="0.76" d="M101.633 128.334C102.555 127.811 108.21 125.301 109.376 125.301C109.916 125.301 112.439 124.377 112.908 124.482C113.848 124.29 114.805 124.168 115.745 124.133C119.625 122.599 131.718 126.713 134.728 128.456L175.165 151.85C176.14 152.408 180.559 155.563 180.559 156.539C180.559 156.992 182.195 158.474 181.986 158.875C181.673 159.433 183.83 161.507 183.152 161.891L191.504 187.411C191.799 187.585 191.504 188.056 191.73 188.247C192.374 190.026 191.591 191.943 189.642 193.512C188.128 194.523 186.232 195.29 184.057 195.708L174.417 197.016C170.415 199.334 158.322 195.9 154.842 193.895L120.199 173.378C119.225 172.82 113.5 168.916 113.5 167.922C113.5 167.643 112.125 166.562 112.212 166.301C112.456 165.534 108.489 162.169 109.359 161.664L96.4307 138.915C92.9681 136.911 97.6313 130.618 101.633 128.299V128.334Z" fill="#6F6EB3"/>
<path opacity="0.81" d="M98.4661 130.882C99.1969 130.463 104.904 127.883 105.844 127.883C106.279 127.883 108.836 126.872 109.202 126.977C110.107 126.733 111.011 126.576 111.899 126.489C116.023 124.85 127.002 128.162 130.203 130.01L168.883 152.41C169.666 152.863 174.208 155.966 174.208 156.75C174.208 157.117 175.983 158.563 175.809 158.895C175.565 159.348 177.984 161.405 177.444 161.719L191.225 186.28C191.538 186.454 191.364 186.89 191.625 187.099C192.547 188.843 192.008 190.812 190.268 192.468C188.928 193.549 187.153 194.421 185.031 194.979L175.6 196.861C171.337 199.319 160.079 196.652 156.39 194.508L122.6 174.548C121.817 174.095 115.883 170.19 115.883 169.389C115.883 169.162 114.422 168.081 114.491 167.872C114.683 167.262 110.315 163.88 111.011 163.462L94.0639 141.41C90.3751 139.284 94.2205 133.322 98.4835 130.864L98.4661 130.882Z" fill="#6B6AB0"/>
<path opacity="0.86" d="M95.2995 133.424C95.8563 133.11 101.598 130.443 102.312 130.443C102.625 130.443 105.217 129.362 105.496 129.432C106.348 129.153 107.201 128.944 108.071 128.804C112.438 127.079 122.304 129.554 125.697 131.524L162.602 152.93C163.176 153.261 167.874 156.347 167.874 156.939C167.874 157.218 169.788 158.63 169.649 158.874C169.458 159.206 172.155 161.263 171.755 161.507L190.964 185.109C191.295 185.301 191.26 185.685 191.521 185.894C192.721 187.602 192.443 189.624 190.877 191.385C189.711 192.535 188.058 193.512 185.988 194.191L176.766 196.649C172.259 199.264 161.819 197.329 157.922 195.08L124.984 175.679C124.41 175.347 118.25 171.408 118.25 170.815C118.25 170.658 116.684 169.56 116.736 169.403C116.875 168.95 112.108 165.533 112.63 165.22L91.6629 143.866C87.7653 141.599 90.7929 135.986 95.2995 133.389V133.424Z" fill="#6765AC"/>
<path opacity="0.9" d="M92.1329 135.987C92.4983 135.778 98.3098 133.041 98.7796 133.041C98.9884 133.041 101.598 131.89 101.79 131.943C102.59 131.629 103.408 131.367 104.243 131.176C108.854 129.345 117.606 131.019 121.173 133.093L156.321 153.523C156.704 153.75 161.524 156.783 161.524 157.184C161.524 157.358 163.577 158.77 163.472 158.927C163.351 159.154 166.309 161.211 166.048 161.368L190.703 184.012C191.051 184.221 191.138 184.552 191.417 184.779C192.896 186.47 192.878 188.527 191.486 190.374C190.494 191.577 188.946 192.675 186.945 193.495L177.949 196.528C173.199 199.282 163.577 198.114 159.47 195.726L127.385 176.882C127.002 176.655 120.634 172.716 120.634 172.332C120.634 172.228 118.981 171.147 119.016 171.042C119.12 170.729 113.918 167.295 114.283 167.085L89.2967 146.429C85.1729 144.04 87.3827 138.776 92.1503 136.022L92.1329 135.987Z" fill="#6361A9"/>
<path opacity="0.95" d="M88.9661 138.534C89.1575 138.43 95.0038 135.606 95.2474 135.606C95.3518 135.606 97.9966 134.385 98.0836 134.403C98.8318 134.037 99.6148 133.74 100.415 133.479C105.27 131.561 112.891 132.416 116.667 134.594L150.057 154.031C150.248 154.136 155.207 157.134 155.207 157.343C155.207 157.43 157.382 158.807 157.348 158.895C157.278 158.999 160.514 161.056 160.393 161.126L190.477 182.811C190.842 183.02 191.069 183.317 191.364 183.543C193.122 185.199 193.348 187.308 192.165 189.261C191.33 190.533 189.92 191.719 187.971 192.695L179.184 196.321C174.173 199.214 165.404 198.796 161.054 196.286L129.821 178C129.63 177.895 123.052 173.938 123.052 173.746C123.052 173.694 121.295 172.613 121.312 172.561C121.365 172.404 115.762 168.935 115.936 168.831L86.9303 148.871C82.5977 146.361 83.9897 141.428 88.9835 138.534H88.9661Z" fill="#5F5CA6"/>
<path d="M162.567 196.877L123.539 174.111L84.511 151.345C79.9523 148.713 80.5264 144.111 85.7812 141.078L94.3594 136.876C99.6141 133.843 107.566 133.512 112.125 136.144L151.153 158.91L190.181 181.676C194.739 184.309 194.165 188.911 188.91 191.944L180.332 196.145C175.077 199.178 167.126 199.509 162.567 196.877Z" fill="#5B58A3"/>
</g>
<path d="M192.809 104.401L82.7194 63.2617V145.069C82.354 147.719 83.7634 150.316 87.0172 152.199L161.471 195.395C167.927 199.126 179.184 198.655 186.632 194.349C190.564 192.066 192.652 189.172 192.791 186.4H192.826V104.401H192.809Z" fill="url(#paint0_linear_291_26766)"/>
<path d="M161.471 113.202L87.0172 70.0056C80.5619 66.2752 81.3797 59.7557 88.8268 55.45C96.274 51.1443 107.532 50.6737 113.987 54.4041L188.441 97.6003C194.897 101.331 194.079 107.85 186.632 112.156C179.184 116.462 167.927 116.932 161.471 113.202Z" fill="url(#paint1_linear_291_26766)"/>
<path d="M186.979 111.461C179.532 115.766 168.274 116.237 161.819 112.507L87.3648 69.3105C84.0762 67.4105 82.6842 64.7957 83.0844 62.0938C81.7272 65.3186 82.9452 68.6656 86.895 70.9491L161.349 114.145C167.804 117.876 179.062 117.405 186.509 113.099C190.163 110.99 192.217 108.34 192.599 105.761C191.747 107.8 189.85 109.787 186.979 111.461Z" fill="#FFE585"/>
<g opacity="0.3">
<path d="M145.098 4.34015C124.305 -7.65297 98.3447 7.3733 98.3447 31.4118V72.7079C98.3447 72.7079 98.3447 72.7602 98.3447 72.7777C98.3447 76.0723 102.921 78.7568 108.576 78.7568C114.231 78.7568 118.807 76.0897 118.807 72.7777C118.807 72.7428 118.807 72.7079 118.807 72.6557H118.911V35.7698C118.911 25.5896 129.908 19.2095 138.712 24.2822C148.944 30.1742 155.242 41.0865 155.242 52.9053V105.497H155.347C155.451 108.74 159.993 111.354 165.578 111.354C171.163 111.354 175.757 108.705 175.809 105.445V57.5771C175.809 35.5955 164.099 15.2874 145.081 4.30529L145.098 4.34015Z" fill="url(#paint2_linear_291_26766)"/>
<path style="mix-blend-mode:color-dodge" d="M104.696 75.5324V36.3456C104.696 20.256 117.763 7.16465 133.823 7.16465C138.904 7.16465 143.759 8.48947 148.283 11.1043C151.223 12.7951 153.972 14.7301 156.53 16.8568C152.859 13.1438 148.683 9.88402 144.054 7.21695C139.531 4.60217 134.659 3.27734 129.595 3.27734C113.535 3.27734 100.468 16.3687 100.468 32.4583V71.6451V73.7544C100.468 73.7544 100.468 73.8415 100.468 73.8938C100.52 75.1315 102.173 76.4563 104.696 77.171V75.515V75.5324Z" fill="url(#paint3_radial_291_26766)"/>
<path style="mix-blend-mode:color-dodge" d="M161.628 109.034H161.593V58.5692C161.593 47.6219 156.443 37.3197 147.917 30.7305C153.885 37.1454 157.365 45.687 157.365 54.6819V105.147H157.4L157.47 107.204C157.504 108.442 159.157 109.767 161.68 110.481L161.628 109.017V109.034Z" fill="url(#paint4_radial_291_26766)"/>
<path d="M123.714 14.5391C114.474 14.5391 106.958 22.0696 106.958 31.326V74.1212L106.853 77.7993C106.784 78.1131 112.578 77.6424 112.717 77.102L112.821 73.4239V30.6287C112.821 23.0807 117.815 16.6832 124.671 14.5739C124.357 14.5565 124.027 14.5391 123.714 14.5391Z" fill="url(#paint5_linear_291_26766)"/>
<path d="M141.583 9.32598C137.268 6.83322 132.64 5.57812 127.82 5.57812C125.819 5.57812 123.801 5.82217 121.8 6.29283C121.852 6.29283 121.904 6.29283 121.956 6.29283C126.776 6.29283 131.405 7.54793 135.72 10.0407C153.589 20.3603 164.691 39.5877 164.691 60.2445V110.867C164.691 111.146 170.537 110.64 170.554 110.169V109.89V59.5472C170.554 38.8904 159.453 19.6456 141.583 9.34341V9.32598Z" fill="url(#paint6_linear_291_26766)"/>
<path style="mix-blend-mode:screen" opacity="0.5" d="M113.64 37.4257V76.9437C115.954 76.2116 117.468 74.9739 117.537 73.7886V73.7537L117.642 71.4876V36.711C117.642 29.8603 122.148 24.038 128.343 22.0508C120.182 22.3994 113.657 29.1456 113.657 37.4083L113.64 37.4257Z" fill="url(#paint7_linear_291_26766)"/>
<g style="mix-blend-mode:screen" opacity="0.5">
<path d="M145.359 7.33959C143.219 6.10193 141.009 5.1606 138.729 4.51562C158.217 16.195 170.275 37.4444 170.275 60.2453V109.804C173.077 109.124 174.939 107.695 174.956 106.387V106.126V58.659C174.956 37.549 163.611 17.8859 145.359 7.35702V7.33959Z" fill="url(#paint8_linear_291_26766)"/>
</g>
</g>
<g style="mix-blend-mode:multiply">
<path d="M122.164 65.2483C122.164 69.0833 116.84 72.2036 110.263 72.2036C103.686 72.2036 98.3613 69.1007 98.3613 65.2483C98.3613 61.3958 103.686 58.293 110.263 58.293C116.84 58.293 122.164 61.3958 122.164 65.2483Z" fill="#E6E7E8"/>
</g>
<g style="mix-blend-mode:multiply">
<path d="M166.934 104.625C173.325 104.625 178.505 101.605 178.505 97.879C178.505 94.1532 173.325 91.1328 166.934 91.1328C160.544 91.1328 155.363 94.1532 155.363 97.879C155.363 101.605 160.544 104.625 166.934 104.625Z" fill="#E6E7E8"/>
</g>
<path d="M145.098 4.21906C124.305 -7.77407 98.3447 7.2522 98.3447 31.2908V65.1783C98.3447 65.1783 98.3447 65.2306 98.3447 65.248C98.3447 68.5427 102.921 71.2272 108.576 71.2272C114.231 71.2272 118.807 68.5601 118.807 65.248C118.807 65.2132 118.807 65.1783 118.807 65.126H118.911V35.6487C118.911 25.4685 129.908 19.0884 138.712 24.1611C148.944 30.0531 155.242 40.9654 155.242 52.7842V97.9677H155.347C155.451 101.21 159.993 103.825 165.578 103.825C171.163 103.825 175.757 101.175 175.809 97.9154V57.456C175.809 35.4744 164.099 15.1663 145.081 4.18419L145.098 4.21906Z" fill="url(#paint9_linear_291_26766)"/>
<path style="mix-blend-mode:color-dodge" d="M104.696 68.0028V36.2245C104.696 20.1349 117.763 7.04356 133.823 7.04356C138.904 7.04356 143.759 8.36838 148.283 10.9832C151.223 12.6741 153.972 14.609 156.53 16.7357C152.859 13.0227 148.683 9.76293 144.054 7.09585C139.531 4.48107 134.659 3.15625 129.595 3.15625C113.535 3.15625 100.468 16.2476 100.468 32.3372V64.1155V66.2248C100.468 66.2248 100.468 66.3119 100.468 66.3642C100.52 67.6019 102.173 68.9267 104.696 69.6414V67.9854V68.0028Z" fill="url(#paint10_radial_291_26766)"/>
<path style="mix-blend-mode:color-dodge" d="M161.628 101.524H161.593V58.4676C161.593 47.5204 156.443 37.2182 147.917 30.6289C153.885 37.0438 157.365 45.5854 157.365 54.5803V97.637H157.4L157.47 99.694C157.504 100.932 159.157 102.256 161.68 102.971L161.628 101.507V101.524Z" fill="url(#paint11_radial_291_26766)"/>
<path d="M123.714 14.4336C114.474 14.4336 106.958 21.9642 106.958 31.2205V66.6072L106.853 70.2853C106.784 70.5991 112.578 70.1284 112.717 69.588L112.821 65.9099V30.5232C112.821 22.9752 117.815 16.5777 124.671 14.4685C124.357 14.451 124.027 14.4336 123.714 14.4336Z" fill="url(#paint12_linear_291_26766)"/>
<path d="M141.583 9.22051C137.268 6.72775 132.64 5.47266 127.82 5.47266C125.819 5.47266 123.801 5.7167 121.8 6.18736C121.852 6.18736 121.904 6.18736 121.956 6.18736C126.776 6.18736 131.405 7.44246 135.72 9.93521C153.589 20.2549 164.691 39.4822 164.691 60.139V103.353C164.691 103.632 170.537 103.126 170.554 102.655V102.376V59.4417C170.554 38.785 159.453 19.5402 141.583 9.23794V9.22051Z" fill="url(#paint13_linear_291_26766)"/>
<path style="mix-blend-mode:screen" opacity="0.5" d="M113.64 37.3067V69.4336C115.954 68.7015 117.468 67.4638 117.537 66.2785V66.2436L117.642 63.9775V36.6094C117.642 29.7587 122.148 23.9365 128.343 21.9492C120.182 22.2979 113.657 29.044 113.657 37.3067H113.64Z" fill="url(#paint14_linear_291_26766)"/>
<g style="mix-blend-mode:screen" opacity="0.5">
<path d="M145.359 7.21849C143.219 5.98083 141.009 5.03951 138.729 4.39453C158.217 16.0739 170.275 37.3233 170.275 60.1242V102.274C173.077 101.595 174.939 100.165 174.956 98.8578V98.5964V58.5379C174.956 37.4279 163.611 17.7648 145.359 7.23593V7.21849Z" fill="url(#paint15_linear_291_26766)"/>
</g>
<path style="mix-blend-mode:screen" d="M133.771 7.1667C139.078 7.1667 144.193 8.45666 148.996 11.0017C147.204 9.65946 145.324 8.40436 143.358 7.27129C139.043 4.77853 134.415 3.52344 129.595 3.52344C116.267 3.52344 101.877 14.1394 101.877 31.2924V31.3621C106.001 16.2138 120.338 7.1667 133.771 7.1667Z" fill="url(#paint16_linear_291_26766)"/>
<path style="mix-blend-mode:screen" d="M158.775 53.6721C159.715 45.5488 158.705 34.0264 149.153 23.9333C140.244 14.5027 129.491 12.0622 123.836 21.1093C126.289 19.6974 129.126 18.8955 132.136 18.8955C135.146 18.8955 137.895 19.6799 140.453 21.1442C151.745 27.6463 158.758 39.7789 158.758 52.8353V53.6895L158.775 53.6721Z" fill="url(#paint17_linear_291_26766)"/>
<g style="mix-blend-mode:multiply">
<path d="M130.203 131.473V147.737L122.912 143.519V127.255C120.007 123.995 117.988 119.445 117.988 115.506C117.988 110.067 121.816 107.871 126.549 110.607C131.282 113.344 135.11 119.968 135.11 125.407C135.11 129.347 133.091 131.56 130.186 131.456L130.203 131.473Z" fill="#A77D88"/>
</g>
<path d="M19.1748 271.954C20.4102 272.041 22.7244 271.1 22.7244 270.56C22.7244 270.019 20.4798 268.363 20.1318 268.224C19.7664 268.084 18.9138 267.997 18.9138 267.997L18.8616 265.348C18.8616 265.348 17.2086 264.18 16.269 263.413C15.3294 262.646 14.3028 262.07 14.3028 262.07C14.3028 262.07 11.8843 264.354 11.3797 265.086C10.8925 265.801 11.8669 267.195 13.8852 268.276C15.9036 269.357 18.5484 271.919 19.1748 271.954Z" fill="#4E0070"/>
<path d="M11.1364 265.258C10.336 266.251 10.7362 267.733 12.163 268.448C13.5898 269.163 18.2529 272.265 19.1055 272.579C19.9581 272.893 22.6029 271.498 22.6899 271.097C22.7769 270.697 22.6899 270.557 22.6899 270.557C22.6899 270.557 20.7237 271.899 19.5927 271.498C18.4791 271.097 15.382 268.622 14.6686 267.681C13.9552 266.74 11.119 265.258 11.119 265.258H11.1364Z" fill="#35004D"/>
<path d="M29.3187 190.982C29.3187 190.982 27.3525 191.575 27.3525 198.774C27.3525 205.974 27.7527 233.063 27.7527 233.063L13.4326 262.871C13.4326 262.871 15.6772 264.771 16.7908 265.434C17.9044 266.096 19.018 266.323 19.018 266.323L37.0269 236.95C37.0269 236.95 41.8814 227.572 44.1956 214.724C45.4658 207.665 46.127 196.282 46.127 196.282L29.3187 190.965V190.982Z" fill="#127FF9"/>
<g style="mix-blend-mode:multiply">
<path d="M38.5403 200.167L33.7901 235.066L17.208 265.641C18.1824 266.129 19.035 266.304 19.035 266.304L37.0439 236.931C37.0439 236.931 41.8984 227.552 44.2126 214.705C45.4828 207.645 46.144 196.262 46.144 196.262L38.2445 193.77L38.5577 200.15L38.5403 200.167Z" fill="#CED3F4"/>
</g>
<path d="M49.9725 260.569C49.9725 260.569 49.1199 262.853 50.1639 263.341C51.2079 263.829 52.8261 264.108 54.1311 263.585C55.4361 263.062 55.9755 262.521 57.3675 262.521C58.7595 262.521 64.136 260.098 65.18 258.896C66.224 257.693 65.18 256.333 62.6049 256.507C60.0297 256.682 56.3235 256.961 55.6797 257.17C55.0359 257.379 49.9899 260.552 49.9899 260.552L49.9725 260.569Z" fill="#35004D"/>
<path d="M51.1383 262.263C53.5569 262.525 54.3399 261.914 56.5671 261.496C58.7943 261.078 65.1452 258.724 65.0408 257.417C64.919 256.11 63.4574 256.389 62.2394 256.493C61.0041 256.598 57.0891 256.842 56.7759 256.842C56.4627 256.842 50.0769 259.474 50.0769 259.474C50.0769 259.474 49.6071 261.374 50.0421 261.653C50.4597 261.932 50.5119 262.176 51.1557 262.246L51.1383 262.263Z" fill="#4E0070"/>
<path d="M36.1917 193.107C36.1917 193.107 33.0771 198.285 35.0085 205.78C36.9399 213.276 61.004 229.488 61.004 229.488C61.004 229.488 50.0246 256.646 50.0246 260.237C50.0246 261.318 52.3388 261.841 54.7748 261.022C57.8198 260.011 57.7676 259.174 57.9416 257.762C58.0808 256.524 72.0007 232.957 71.7049 226.019C71.3221 216.902 53.6438 201.771 53.6438 201.771L36.2265 193.09L36.1917 193.107Z" fill="#127FF9"/>
<g style="mix-blend-mode:multiply">
<path d="M53.6094 201.773L45.9883 197.973L48.8941 204.178C48.8941 204.178 67.4945 222.621 68.5559 226.979C69.6173 231.32 55.1928 259.995 55.071 260.902C57.768 259.943 57.7506 259.124 57.9072 257.747C58.0464 256.509 71.9663 232.941 71.6705 226.003C71.2877 216.869 53.6094 201.755 53.6094 201.755V201.773Z" fill="#CED3F4"/>
</g>
<path d="M39.5846 148.151C36.3831 148.465 33.1293 149.127 31.9287 156.658C30.9369 162.846 26.5869 200.638 26.5869 200.638C26.5869 200.638 31.7721 206.199 46.5446 206.914C56.6191 207.402 57.0193 204.892 57.0193 204.892C57.0193 204.892 59.2291 182.84 60.6559 169.156C61.3171 162.776 60.6037 161.051 58.6549 159.133C57.1237 157.634 52.7215 153.921 49.52 151.69C46.9274 149.894 42.3686 147.872 39.602 148.151H39.5846Z" fill="#E20017"/>
<g style="mix-blend-mode:multiply">
<path d="M57.0021 204.894C57.0021 204.894 59.2119 182.878 60.6387 169.194C60.6387 168.967 60.6387 168.741 60.6387 168.514L52.5652 167.172C53.0176 180.821 48.9634 203.936 48.9634 203.936C48.9634 203.936 48.5632 206.411 38.7148 205.975C40.9594 206.428 43.552 206.795 46.5622 206.934C56.6367 207.422 57.0369 204.912 57.0369 204.912L57.0021 204.894Z" fill="#CED3F4"/>
</g>
<path d="M53.4352 154.305C53.3308 155.979 50.5468 157.182 47.206 156.955C43.8826 156.746 41.2727 155.194 41.377 153.521C41.4814 151.847 44.2654 150.645 47.6062 150.871C50.947 151.098 53.5396 152.632 53.4352 154.305Z" fill="white"/>
<path d="M42.2648 152.807C42.1082 153.174 42.2648 153.592 42.4736 153.923C42.8912 154.568 44.8052 155.945 47.3804 156.032C49.9729 156.12 51.3475 155.509 52.0261 155.109C52.3741 154.899 52.6003 154.551 52.6873 154.15L53.3311 150.629C53.3311 150.629 56.0803 150.89 56.9329 149.862C57.7855 148.85 60.9697 135.794 57.1765 132.395C53.3833 128.996 44.7704 129.641 43.2218 135.567C41.6558 141.494 44.2484 144.806 44.4398 146.201C44.5964 147.334 42.9608 151.343 42.2996 152.807H42.2648Z" fill="#FFD4C0"/>
<path d="M44.352 147.227C44.352 147.227 47.4492 148.36 48.7715 148.029C51.1553 147.436 51.2423 141.963 52.8605 140.76C53.8175 140.045 54.6005 140.934 54.4787 141.911C54.3743 142.712 54.5483 143.27 54.8441 143.375C55.1399 143.479 56.8277 138.79 56.8277 138.79C56.8277 138.79 63.0743 136.82 61.3343 131.347C58.4111 131.835 46.4226 124.845 42.438 134.328C39.2886 141.806 42.9078 146.774 44.352 147.245V147.227Z" fill="#00092A"/>
<path d="M28.0838 171.478C28.0838 173.604 28.8146 175.121 30.0152 175.853C30.05 175.871 32.0858 177.056 32.1206 177.073C33.356 177.771 32.573 176.184 34.4522 175.104C38.2627 172.907 41.3425 167.573 41.3425 163.198C41.3425 161.036 43.3435 161.019 42.1081 160.304C42.0733 160.286 39.7939 159.066 39.7591 159.049C38.5237 158.369 36.8186 158.491 34.9568 159.589C31.1462 161.786 28.0664 167.12 28.0664 171.478H28.0838Z" fill="url(#paint18_linear_291_26766)"/>
<path d="M30.3633 172.75C30.3633 177.125 33.4431 178.886 37.2536 176.689C41.0642 174.493 44.144 169.159 44.144 164.783C44.144 160.408 41.0642 158.647 37.2536 160.844C33.4431 163.04 30.3633 168.374 30.3633 172.732V172.75Z" fill="url(#paint19_linear_291_26766)"/>
<path d="M111.029 143.988L106.122 146.708V133.895L111.029 131.176V143.988Z" fill="url(#paint20_linear_291_26766)"/>
<path d="M106.122 146.708L102.868 144.476V131.664L106.122 133.895V146.708Z" fill="url(#paint21_linear_291_26766)"/>
<path d="M111.029 131.175L107.775 128.961L102.868 131.663L106.122 133.894L111.029 131.175Z" fill="#E5E9FF"/>
<path d="M105.373 142.347L99.2832 145.869V138.861L105.373 135.34V142.347Z" fill="url(#paint22_linear_291_26766)"/>
<path d="M99.2833 145.866L96.8125 144.176V137.168L99.2833 138.859V145.866Z" fill="url(#paint23_linear_291_26766)"/>
<path d="M105.373 135.339L102.902 133.648L96.8125 137.17L99.2833 138.861L105.373 135.339Z" fill="#E5E9FF"/>
<path d="M101.093 149.426L96.1865 152.145V139.333L101.093 136.613V149.426Z" fill="url(#paint24_linear_291_26766)"/>
<path d="M96.1864 152.128L92.9326 149.914V137.102L96.1864 139.333V152.128Z" fill="url(#paint25_linear_291_26766)"/>
<path d="M101.093 136.614L97.8394 134.383L92.9326 137.102L96.1864 139.333L101.093 136.614Z" fill="#E5E9FF"/>
<path d="M113.378 128.995C113.378 130.215 112.96 131.086 112.265 131.505C112.247 131.505 41.9168 172.138 41.882 172.138C41.1686 172.539 41.621 171.633 40.5422 171.005C38.3672 169.75 36.5924 166.682 36.5924 164.172C36.5924 162.934 35.444 162.917 36.1574 162.516C36.1748 162.516 106.644 121.865 106.662 121.865C107.375 121.481 108.35 121.551 109.411 122.179C111.586 123.434 113.361 126.502 113.361 129.012L113.378 128.995Z" fill="url(#paint26_linear_291_26766)"/>
<path d="M42.8908 169.665C42.8908 172.175 41.116 173.186 38.941 171.913C36.766 170.641 34.9912 167.59 34.9912 165.08C34.9912 162.57 36.766 161.559 38.941 162.831C41.116 164.087 42.8908 167.155 42.8908 169.665Z" fill="url(#paint27_linear_291_26766)"/>
<path style="mix-blend-mode:color-dodge" d="M39.1325 162.725C38.0885 162.114 37.1315 162.045 36.4355 162.393C37.0967 162.202 37.9145 162.341 38.8019 162.864C40.9769 164.119 42.7517 167.187 42.7517 169.697C42.7517 171.005 42.2645 171.894 41.4989 172.295C42.4559 172.016 43.0823 171.057 43.0823 169.575C43.0823 167.065 41.3075 164.015 39.1325 162.742V162.725Z" fill="url(#paint28_radial_291_26766)"/>
<path d="M14.686 190.667C23.4903 185.576 30.6417 173.235 30.6417 163.107C30.6417 159.551 30.2241 156.744 29.3715 155.193C29.2497 154.966 32.9732 157.093 32.7296 156.849C36.4358 158.052 38.8196 161.887 38.8196 167.744C38.8196 177.872 31.6857 190.213 22.8639 195.303C17.5917 198.354 12.9286 198.11 10.0228 195.269C10.3534 195.373 6.75161 193.09 7.03001 193.107C8.8744 193.194 11.4496 192.549 14.7034 190.667H14.686Z" fill="url(#paint29_linear_291_26766)"/>
<path d="M15.9557 154.758C20.2883 152.248 24.2206 151.969 27.0916 153.52C27.1786 153.572 34.8172 157.808 34.9564 158.018C32.0332 155.804 27.7006 155.839 22.8635 158.628C14.0591 163.718 6.90776 176.06 6.90776 186.188C6.90776 191.347 8.76954 194.938 11.7623 196.542C11.5535 196.49 11.2925 196.368 10.9793 196.193C10.8923 196.141 4.55877 192.498 4.47177 192.446C1.70519 190.755 0 187.251 0 182.3C0 172.172 7.13395 159.831 15.9557 154.74V154.758Z" fill="#3B3ABA"/>
<path d="M6.9082 186.188C6.9082 196.316 14.0422 200.395 22.8639 195.305C31.6682 190.215 38.8196 177.874 38.8196 167.746C38.8196 157.618 31.6856 153.539 22.8639 158.629C14.0596 163.719 6.9082 176.061 6.9082 186.188ZM9.57039 184.916C9.57039 176.409 15.5733 166.037 22.9683 161.749C30.3633 157.461 36.3662 160.895 36.3662 169.402C36.3662 177.908 30.3633 188.28 22.9683 192.569C15.5733 196.857 9.57039 193.423 9.57039 184.916Z" fill="url(#paint30_linear_291_26766)"/>
<path style="mix-blend-mode:color-dodge" d="M22.0983 158.245C26.3264 155.805 30.1544 155.474 33.008 156.903C30.3458 156.153 26.4308 156.554 22.8639 158.629C14.0595 163.719 6.90817 176.061 6.90817 186.189C6.90817 191.453 9.46596 195.236 12.5631 196.787C8.66556 195.689 6.14258 191.819 6.14258 185.805C6.14258 175.677 13.2765 163.335 22.0983 158.245Z" fill="url(#paint31_radial_291_26766)"/>
<path style="mix-blend-mode:color-dodge" d="M16.7733 167.744C19.7811 167.744 22.2195 165.302 22.2195 162.288C22.2195 159.275 19.7811 156.832 16.7733 156.832C13.7655 156.832 11.3271 159.275 11.3271 162.288C11.3271 165.302 13.7655 167.744 16.7733 167.744Z" fill="url(#paint32_radial_291_26766)"/>
<path d="M30.6238 172.766C30.6238 174.91 31.3546 176.409 32.5552 177.141C32.59 177.158 34.6258 178.344 34.6606 178.361C35.896 179.058 35.113 177.472 36.9922 176.391C40.8028 174.195 43.8826 168.861 43.8826 164.485C43.8826 162.324 45.8835 162.306 44.6482 161.592C44.6134 161.574 42.334 160.354 42.2992 160.337C41.0638 159.657 39.3586 159.796 37.4968 160.877C33.6862 163.073 30.6064 168.408 30.6064 172.766H30.6238Z" fill="url(#paint33_linear_291_26766)"/>
<path d="M32.9033 174.057C32.9033 178.433 35.9831 180.193 39.7937 177.997C43.6043 175.8 46.684 170.466 46.684 166.108C46.684 161.75 43.6043 159.972 39.7937 162.169C35.9831 164.365 32.9033 169.699 32.9033 174.075V174.057Z" fill="url(#paint34_linear_291_26766)"/>
<path d="M87.1035 145.675L86.7729 144.229C86.5467 143.601 86.2857 143.531 85.9725 143.723C85.6419 143.932 85.6245 144.56 85.6941 144.908L85.7637 145.85L85.5201 147.227L85.2069 148.046L85.5375 146.774C85.5723 146.669 85.5897 146.582 85.5723 146.477L85.3983 144.769C85.3983 144.769 85.3635 144.612 85.3287 144.542L84.5109 142.921C84.3369 142.555 83.9541 142.503 83.7105 142.764C83.4495 143.061 83.3973 143.549 83.5713 143.915L83.9715 145.048L84.1107 146.477L83.7453 147.924L83.8845 146.739C83.9019 146.652 83.9019 146.547 83.8845 146.46L83.5191 144.263C83.5191 144.263 83.4843 144.107 83.4321 144.019L82.4055 142.259C82.2141 141.91 81.8313 141.928 81.5529 142.172C81.2571 142.451 81.3963 143.078 81.5877 143.427L82.1097 144.612L82.3533 145.919L82.3011 147.122L82.1271 145.222C82.1271 145.1 82.0749 144.996 82.0053 144.891L80.9439 143.374C80.7177 143.043 80.2653 142.904 80.0739 143.252C79.8651 143.653 80.0565 144.211 80.2653 144.542L80.7003 145.519L80.8569 147.279C80.8569 147.279 80.5785 149.441 80.1087 149.911C78.8733 151.149 78.3339 151.114 78.1599 151.271C77.7249 151.707 78.8733 152.718 78.8733 152.718L79.5345 153.398L82.9971 154.914C82.9971 154.914 83.8671 153.956 84.4935 153.067C84.8937 152.491 85.5027 151.498 85.6071 151.01L86.7207 147.907C86.7207 147.907 86.7555 147.802 86.7729 147.732L87.0513 145.919C87.0513 145.832 87.0513 145.745 87.0513 145.658L87.1035 145.675Z" fill="#FFD4C0"/>
<path d="M81.1527 152.772C79.4998 152.04 78.421 152.598 78.421 152.598L69.9472 170.657C69.9472 170.657 63.4397 164.016 61.1777 161.75C61.1255 161.697 60.9341 161.506 60.7079 161.262C57.7499 162.97 54.9833 164.574 52.5299 165.986C51.4337 168.67 53.6783 171.564 58.3241 175.451C63.7529 179.983 65.3014 181.657 69.6862 182.807C74.071 183.958 76.1764 179.391 77.2378 176.985C78.2992 174.579 83.9193 155.265 83.9193 155.265C83.9193 155.265 82.7883 153.487 81.1179 152.755L81.1527 152.772Z" fill="#E20017"/>
<g style="mix-blend-mode:multiply">
<path d="M81.7616 153.086L73.9839 173.237C73.9839 173.237 76.1937 180.402 72.5049 182.755C75.0453 181.883 76.4547 178.815 77.2551 177.002C78.3165 174.597 83.9366 155.282 83.9366 155.282C83.9366 155.282 83.0666 153.923 81.7442 153.086H81.7616Z" fill="#CED3F4"/>
</g>
<defs>
<linearGradient id="paint0_linear_291_26766" x1="193.87" y1="130.601" x2="81.9712" y2="130.601" gradientUnits="userSpaceOnUse">
<stop stop-color="#FF9E6E"/>
<stop offset="0.13" stop-color="#FFE585"/>
<stop offset="0.19" stop-color="#FFEBBF"/>
<stop offset="0.23" stop-color="#FFE585"/>
<stop offset="0.24" stop-color="#FFE083"/>
<stop offset="0.32" stop-color="#FFBC77"/>
<stop offset="0.38" stop-color="#FFA670"/>
<stop offset="0.42" stop-color="#FF9E6E"/>
<stop offset="0.48" stop-color="#FF9E6E"/>
<stop offset="0.88" stop-color="#FF9E6E"/>
<stop offset="1" stop-color="#FFAF6E"/>
</linearGradient>
<linearGradient id="paint1_linear_291_26766" x1="147.551" y1="36.2575" x2="133.932" y2="101.948" gradientUnits="userSpaceOnUse">
<stop offset="0.04" stop-color="#FF9E6E"/>
<stop offset="0.3" stop-color="#FFAD72"/>
<stop offset="0.82" stop-color="#FFD580"/>
<stop offset="1" stop-color="#FFE585"/>
</linearGradient>
<linearGradient id="paint2_linear_291_26766" x1="204.606" y1="90.3316" x2="57.5352" y2="0.884607" gradientUnits="userSpaceOnUse">
<stop stop-color="#AFB6E5"/>
<stop offset="0.61" stop-color="#CED3F4"/>
<stop offset="1" stop-color="#E5E9FF"/>
</linearGradient>
<radialGradient id="paint3_radial_291_26766" cx="0" cy="0" r="1" gradientUnits="userSpaceOnUse" gradientTransform="translate(90.3584 81.4941) scale(63.1964 63.3125)">
<stop stop-color="#FF5F98"/>
<stop offset="0.02" stop-color="#F65C93"/>
<stop offset="0.13" stop-color="#BD4671"/>
<stop offset="0.25" stop-color="#8B3352"/>
<stop offset="0.37" stop-color="#602339"/>
<stop offset="0.49" stop-color="#3D1624"/>
<stop offset="0.62" stop-color="#220C14"/>
<stop offset="0.74" stop-color="#0F0509"/>
<stop offset="0.87" stop-color="#030102"/>
<stop offset="1"/>
</radialGradient>
<radialGradient id="paint4_radial_291_26766" cx="0" cy="0" r="1" gradientUnits="userSpaceOnUse" gradientTransform="translate(140.365 118.482) scale(75.2023 75.3405)">
<stop stop-color="#FF5F98"/>
<stop offset="0.02" stop-color="#F65C93"/>
<stop offset="0.13" stop-color="#BD4671"/>
<stop offset="0.25" stop-color="#8B3352"/>
<stop offset="0.37" stop-color="#602339"/>
<stop offset="0.49" stop-color="#3D1624"/>
<stop offset="0.62" stop-color="#220C14"/>
<stop offset="0.74" stop-color="#0F0509"/>
<stop offset="0.87" stop-color="#030102"/>
<stop offset="1"/>
</radialGradient>
<linearGradient id="paint5_linear_291_26766" x1="117.902" y1="47.5202" x2="76.1705" y2="22.1377" gradientUnits="userSpaceOnUse">
<stop stop-color="#AFB6E5"/>
<stop offset="0.61" stop-color="#CED3F4"/>
<stop offset="1" stop-color="#E5E9FF"/>
</linearGradient>
<linearGradient id="paint6_linear_291_26766" x1="169.127" y1="64.8988" x2="63.7701" y2="31.2282" gradientUnits="userSpaceOnUse">
<stop stop-color="#AFB6E5"/>
<stop offset="0.61" stop-color="#CED3F4"/>
<stop offset="1" stop-color="#E5E9FF"/>
</linearGradient>
<linearGradient id="paint7_linear_291_26766" x1="132.519" y1="56.5484" x2="99.4782" y2="36.4685" gradientUnits="userSpaceOnUse">
<stop stop-color="#FFE4A7"/>
<stop offset="1"/>
</linearGradient>
<linearGradient id="paint8_linear_291_26766" x1="202.326" y1="85.7307" x2="89.6544" y2="17.1982" gradientUnits="userSpaceOnUse">
<stop stop-color="#FFE4A7"/>
<stop offset="1"/>
</linearGradient>
<linearGradient id="paint9_linear_291_26766" x1="202.483" y1="85.2075" x2="60.5679" y2="-1.09269" gradientUnits="userSpaceOnUse">
<stop stop-color="#AFB6E5"/>
<stop offset="0.61" stop-color="#CED3F4"/>
<stop offset="1" stop-color="#E5E9FF"/>
</linearGradient>
<radialGradient id="paint10_radial_291_26766" cx="0" cy="0" r="1" gradientUnits="userSpaceOnUse" gradientTransform="translate(0.870821 73.5461) scale(63.1616 63.2777)">
<stop stop-color="#FF5F98"/>
<stop offset="0.02" stop-color="#F65C93"/>
<stop offset="0.13" stop-color="#BD4671"/>
<stop offset="0.25" stop-color="#8B3352"/>
<stop offset="0.37" stop-color="#602339"/>
<stop offset="0.49" stop-color="#3D1624"/>
<stop offset="0.62" stop-color="#220C14"/>
<stop offset="0.74" stop-color="#0F0509"/>
<stop offset="0.87" stop-color="#030102"/>
<stop offset="1"/>
</radialGradient>
<radialGradient id="paint11_radial_291_26766" cx="0" cy="0" r="1" gradientUnits="userSpaceOnUse" gradientTransform="translate(140.365 110.223) scale(74.3845 74.5212)">
<stop stop-color="#FF5F98"/>
<stop offset="0.02" stop-color="#F65C93"/>
<stop offset="0.13" stop-color="#BD4671"/>
<stop offset="0.25" stop-color="#8B3352"/>
<stop offset="0.37" stop-color="#602339"/>
<stop offset="0.49" stop-color="#3D1624"/>
<stop offset="0.62" stop-color="#220C14"/>
<stop offset="0.74" stop-color="#0F0509"/>
<stop offset="0.87" stop-color="#030102"/>
<stop offset="1"/>
</radialGradient>
<linearGradient id="paint12_linear_291_26766" x1="117.415" y1="43.3879" x2="80.8388" y2="21.1522" gradientUnits="userSpaceOnUse">
<stop stop-color="#AFB6E5"/>
<stop offset="0.61" stop-color="#CED3F4"/>
<stop offset="1" stop-color="#E5E9FF"/>
</linearGradient>
<linearGradient id="paint13_linear_291_26766" x1="168.466" y1="60.8711" x2="66.1549" y2="28.1735" gradientUnits="userSpaceOnUse">
<stop stop-color="#AFB6E5"/>
<stop offset="0.61" stop-color="#CED3F4"/>
<stop offset="1" stop-color="#E5E9FF"/>
</linearGradient>
<linearGradient id="paint14_linear_291_26766" x1="130.378" y1="51.4265" x2="102.511" y2="34.4759" gradientUnits="userSpaceOnUse">
<stop stop-color="#FFE4A7"/>
<stop offset="1"/>
</linearGradient>
<linearGradient id="paint15_linear_291_26766" x1="200.203" y1="80.6067" x2="92.6871" y2="15.2208" gradientUnits="userSpaceOnUse">
<stop stop-color="#FFE4A7"/>
<stop offset="1"/>
</linearGradient>
<linearGradient id="paint16_linear_291_26766" x1="117.641" y1="8.3172" x2="124.707" y2="19.9502" gradientUnits="userSpaceOnUse">
<stop stop-color="#FFE4A7"/>
<stop offset="1"/>
</linearGradient>
<linearGradient id="paint17_linear_291_26766" x1="160.55" y1="29.1977" x2="85.4048" y2="55.2252" gradientUnits="userSpaceOnUse">
<stop stop-color="#FFE4A7"/>
<stop offset="1"/>
</linearGradient>
<linearGradient id="paint18_linear_291_26766" x1="39.6373" y1="158.77" x2="28.0171" y2="178.85" gradientUnits="userSpaceOnUse">
<stop stop-color="#3B3ABA"/>
<stop offset="0.14" stop-color="#564BD7"/>
<stop offset="0.23" stop-color="#6152E3"/>
<stop offset="0.4" stop-color="#4528C9"/>
<stop offset="0.48" stop-color="#4221A9"/>
<stop offset="0.57" stop-color="#3F1B8C"/>
<stop offset="0.63" stop-color="#3F1982"/>
<stop offset="0.87" stop-color="#5E239E"/>
<stop offset="1" stop-color="#491C8B"/>
</linearGradient>
<linearGradient id="paint19_linear_291_26766" x1="30.3633" y1="171.512" x2="48.7642" y2="164.196" gradientUnits="userSpaceOnUse">
<stop stop-color="#3F1982"/>
<stop offset="0.42" stop-color="#4625BB"/>
<stop offset="1" stop-color="#6C6CE6"/>
</linearGradient>
<linearGradient id="paint20_linear_291_26766" x1="106.07" y1="140.484" x2="135.157" y2="122.577" gradientUnits="userSpaceOnUse">
<stop stop-color="#3F1982"/>
<stop offset="0.42" stop-color="#4625BB"/>
<stop offset="1" stop-color="#6C6CE6"/>
</linearGradient>
<linearGradient id="paint21_linear_291_26766" x1="91.4712" y1="128.544" x2="118.707" y2="150.72" gradientUnits="userSpaceOnUse">
<stop stop-color="#3F1982"/>
<stop offset="0.42" stop-color="#4625BB"/>
<stop offset="1" stop-color="#6C6CE6"/>
</linearGradient>
<linearGradient id="paint22_linear_291_26766" x1="100.153" y1="141.947" x2="125.426" y2="126.386" gradientUnits="userSpaceOnUse">
<stop stop-color="#3F1982"/>
<stop offset="0.42" stop-color="#4625BB"/>
<stop offset="1" stop-color="#6C6CE6"/>
</linearGradient>
<linearGradient id="paint23_linear_291_26766" x1="90.0091" y1="134.937" x2="106.807" y2="148.643" gradientUnits="userSpaceOnUse">
<stop stop-color="#3F1982"/>
<stop offset="0.42" stop-color="#4625BB"/>
<stop offset="1" stop-color="#6C6CE6"/>
</linearGradient>
<linearGradient id="paint24_linear_291_26766" x1="96.1343" y1="145.922" x2="125.222" y2="127.997" gradientUnits="userSpaceOnUse">
<stop stop-color="#3F1982"/>
<stop offset="0.42" stop-color="#4625BB"/>
<stop offset="1" stop-color="#6C6CE6"/>
</linearGradient>
<linearGradient id="paint25_linear_291_26766" x1="81.5357" y1="133.964" x2="108.754" y2="156.158" gradientUnits="userSpaceOnUse">
<stop stop-color="#3F1982"/>
<stop offset="0.42" stop-color="#4625BB"/>
<stop offset="1" stop-color="#6C6CE6"/>
</linearGradient>
<linearGradient id="paint26_linear_291_26766" x1="72.1404" y1="141.633" x2="78.8404" y2="153.232" gradientUnits="userSpaceOnUse">
<stop stop-color="#3B3ABA"/>
<stop offset="0.14" stop-color="#564BD7"/>
<stop offset="0.23" stop-color="#6152E3"/>
<stop offset="0.4" stop-color="#4528C9"/>
<stop offset="0.48" stop-color="#4221A9"/>
<stop offset="0.57" stop-color="#3F1B8C"/>
<stop offset="0.63" stop-color="#3F1982"/>
<stop offset="0.87" stop-color="#5E239E"/>
<stop offset="1" stop-color="#491C8B"/>
</linearGradient>
<linearGradient id="paint27_linear_291_26766" x1="27.9965" y1="169.822" x2="50.3766" y2="164.819" gradientUnits="userSpaceOnUse">
<stop stop-color="#3F1982"/>
<stop offset="0.42" stop-color="#4625BB"/>
<stop offset="1" stop-color="#6C6CE6"/>
</linearGradient>
<radialGradient id="paint28_radial_291_26766" cx="0" cy="0" r="1" gradientUnits="userSpaceOnUse" gradientTransform="translate(41.1857 165.531) scale(4.26297 4.2708)">
<stop stop-color="white"/>
<stop offset="0.02" stop-color="#F6F6F6"/>
<stop offset="0.13" stop-color="#BDBDBD"/>
<stop offset="0.25" stop-color="#8B8B8B"/>
<stop offset="0.37" stop-color="#606060"/>
<stop offset="0.49" stop-color="#3D3D3D"/>
<stop offset="0.62" stop-color="#222222"/>
<stop offset="0.74" stop-color="#0F0F0F"/>
<stop offset="0.87" stop-color="#030303"/>
<stop offset="1"/>
</radialGradient>
<linearGradient id="paint29_linear_291_26766" x1="17.1045" y1="196.053" x2="34.7667" y2="157.623" gradientUnits="userSpaceOnUse">
<stop offset="0.05" stop-color="#3B3ABA"/>
<stop offset="0.18" stop-color="#564BD7"/>
<stop offset="0.26" stop-color="#6152E3"/>
<stop offset="0.4" stop-color="#4528C9"/>
<stop offset="0.48" stop-color="#4221A9"/>
<stop offset="0.57" stop-color="#3F1B8C"/>
<stop offset="0.63" stop-color="#3F1982"/>
<stop offset="1" stop-color="#491C8B"/>
</linearGradient>
<linearGradient id="paint30_linear_291_26766" x1="36.749" y1="181.464" x2="15.6878" y2="174.671" gradientUnits="userSpaceOnUse">
<stop stop-color="#3B3ABA"/>
<stop offset="0.17" stop-color="#3E33BF"/>
<stop offset="0.57" stop-color="#4528C9"/>
<stop offset="0.59" stop-color="#462ACA"/>
<stop offset="0.85" stop-color="#5947DC"/>
<stop offset="1" stop-color="#6152E3"/>
</linearGradient>
<radialGradient id="paint31_radial_291_26766" cx="0" cy="0" r="1" gradientUnits="userSpaceOnUse" gradientTransform="translate(18.0963 166.229) rotate(180) scale(17.2259 17.2575)">
<stop stop-color="white"/>
<stop offset="0.02" stop-color="#F6F6F6"/>
<stop offset="0.13" stop-color="#BDBDBD"/>
<stop offset="0.25" stop-color="#8B8B8B"/>
<stop offset="0.37" stop-color="#606060"/>
<stop offset="0.49" stop-color="#3D3D3D"/>
<stop offset="0.62" stop-color="#222222"/>
<stop offset="0.74" stop-color="#0F0F0F"/>
<stop offset="0.87" stop-color="#030303"/>
<stop offset="1"/>
</radialGradient>
<radialGradient id="paint32_radial_291_26766" cx="0" cy="0" r="1" gradientUnits="userSpaceOnUse" gradientTransform="translate(16.5993 162.463) rotate(180) scale(3.96717 3.97447)">
<stop stop-color="#364F87"/>
<stop offset="0.15" stop-color="#26385F"/>
<stop offset="0.31" stop-color="#18233D"/>
<stop offset="0.48" stop-color="#0D1422"/>
<stop offset="0.65" stop-color="#06080F"/>
<stop offset="0.82" stop-color="#010203"/>
<stop offset="1"/>
</radialGradient>
<linearGradient id="paint33_linear_291_26766" x1="42.1774" y1="160.058" x2="30.5571" y2="180.156" gradientUnits="userSpaceOnUse">
<stop stop-color="#3B3ABA"/>
<stop offset="0.14" stop-color="#564BD7"/>
<stop offset="0.23" stop-color="#6152E3"/>
<stop offset="0.4" stop-color="#4528C9"/>
<stop offset="0.48" stop-color="#4221A9"/>
<stop offset="0.57" stop-color="#3F1B8C"/>
<stop offset="0.63" stop-color="#3F1982"/>
<stop offset="0.87" stop-color="#5E239E"/>
<stop offset="1" stop-color="#491C8B"/>
</linearGradient>
<linearGradient id="paint34_linear_291_26766" x1="58.864" y1="174.354" x2="19.864" y2="165.633" gradientUnits="userSpaceOnUse">
<stop stop-color="#3F1982"/>
<stop offset="0.42" stop-color="#4625BB"/>
<stop offset="1" stop-color="#6C6CE6"/>
</linearGradient>
</defs>
</svg>
