<svg width="276" height="281" viewBox="0 0 276 281" fill="none" xmlns="http://www.w3.org/2000/svg">
<g clip-path="url(#clip0_1613_4093)">
<path d="M193.236 267.694C189.188 270.061 184.745 272.159 180.082 273.901C172.252 276.848 163.72 278.857 154.925 279.973C143.888 281.357 132.413 281.357 121.335 279.929C112.499 278.768 103.972 276.714 96.1054 273.767C91.4471 272.026 87.009 269.927 82.9231 267.516C78.8372 265.105 75.2791 262.515 72.2928 259.791C67.2424 255.192 63.7313 250.147 61.8032 245.012C59.3491 238.538 59.3082 236.127 61.7345 229.652C63.6315 224.473 67.1112 219.472 72.1291 214.873C75.0783 212.149 78.5989 209.559 82.6908 207.193C86.7387 204.827 91.182 202.728 95.8446 200.987C103.674 198.04 112.207 196.03 121.001 194.914C132.039 193.53 143.514 193.53 154.592 194.959C163.428 196.12 171.955 198.174 179.821 201.121C184.48 202.862 188.918 204.96 193.003 207.372C197.089 209.783 200.647 212.372 203.634 215.096C208.684 219.695 212.195 224.741 214.123 229.875C216.577 236.35 216.618 238.761 214.192 245.235C212.295 250.415 208.815 255.416 203.797 260.015C200.848 262.738 197.328 265.328 193.236 267.694Z" fill="#D0CEC9"/>
<path d="M180.126 273.901L180.144 259.389L154.987 265.462L154.969 279.973C143.932 281.357 132.456 281.357 121.378 279.929L121.397 265.417L96.1673 259.255L96.1492 273.767C91.4909 272.026 87.0528 269.927 82.9669 267.516C78.881 265.105 75.323 262.515 72.3366 259.791L72.3548 245.28L61.8212 230.456L61.8031 244.967C60.6199 241.886 60.0083 238.716 59.9243 235.546C59.8407 232.108 59.9428 220.722 59.9428 220.722L72.0851 214.828C75.0343 212.105 78.5548 209.515 82.6467 207.148C86.6946 204.782 91.1379 202.683 95.8006 200.942L126.637 223.58L121.001 194.869C132.039 193.485 143.514 193.485 154.592 194.914L149.192 223.624L179.821 201.076C184.479 202.817 188.917 204.916 193.003 207.327C197.089 209.738 200.647 212.328 203.634 215.051L165.184 233.001L214.167 229.875C213.951 227.062 215.895 219.65 216.023 222.642C216.023 222.865 216.007 235.01 216.007 235.234C216.003 238.582 215.427 241.931 214.236 245.235L214.254 230.724L203.859 245.503L203.841 260.015C200.892 262.738 197.371 265.328 193.28 267.694C189.232 270.061 184.788 272.159 180.126 273.901Z" fill="#166FED"/>
<path d="M193.254 253.183C189.206 255.55 184.763 257.648 180.1 259.389C172.27 262.336 163.738 264.346 154.944 265.462C143.906 266.846 132.431 266.846 121.353 265.417C112.517 264.256 103.99 262.202 96.1236 259.256C91.4653 257.514 87.0272 255.416 82.9413 253.004C78.8554 250.593 75.2973 248.004 72.311 245.28C67.2606 240.681 63.7495 235.635 61.8214 230.501C59.3674 224.026 59.3318 217.284 61.7581 210.81C63.6551 205.63 67.1348 200.629 72.1528 196.03C75.1019 193.307 78.6225 190.717 82.7144 188.351C86.7623 185.984 91.2056 183.886 95.8683 182.144C103.698 179.197 112.23 177.188 121.025 176.072C132.062 174.688 143.538 174.688 154.616 176.116C163.451 177.277 171.978 179.331 179.845 182.278C184.503 184.019 188.941 186.118 193.027 188.529C197.113 190.94 200.671 193.53 203.657 196.254C208.708 200.853 212.219 205.898 214.147 211.033C216.601 217.507 216.637 224.25 214.21 230.724C212.313 235.903 208.834 240.904 203.816 245.503C200.866 248.227 197.346 250.817 193.254 253.183Z" fill="#D6D4D0"/>
<path d="M212.477 210.274C210.549 205.228 207.125 200.317 202.207 195.807C199.264 193.128 195.794 190.583 191.796 188.217C187.798 185.85 183.448 183.841 178.878 182.099C171.187 179.197 162.836 177.188 154.176 176.072C143.362 174.643 132.106 174.643 121.289 176.027C112.67 177.143 104.313 179.108 96.6597 181.965C92.085 183.662 87.7737 185.671 83.8137 188.038C79.8538 190.36 76.3773 192.905 73.4721 195.584C68.5861 200.094 65.1946 204.96 63.2977 210.006C60.9595 216.346 60.9953 222.91 63.3615 229.295C65.2898 234.34 68.713 239.252 73.6317 243.762C76.5741 246.441 80.0443 248.986 84.0424 251.352C88.0404 253.719 92.3906 255.728 96.961 257.469C104.652 260.372 113.003 262.381 121.663 263.497C132.477 264.926 143.732 264.926 154.55 263.542C163.169 262.426 171.525 260.461 179.179 257.603C183.754 255.907 188.065 253.897 192.025 251.531C195.985 249.164 199.461 246.664 202.366 243.985C207.252 239.475 210.644 234.608 212.541 229.563C214.879 223.223 214.843 216.614 212.477 210.274Z" fill="#EEEEEE"/>
<path d="M180.144 259.345L149.308 236.707L154.944 265.417C143.906 266.801 132.431 266.801 121.353 265.373L126.753 236.662L96.1236 259.211C91.4653 257.469 87.0273 255.371 82.9414 252.96C78.8555 250.549 75.2974 247.959 72.311 245.235L110.761 227.286L61.8214 230.456C59.3674 223.982 59.3318 217.239 61.7581 210.765L110.733 214.114L72.1088 195.986C75.058 193.262 78.5786 190.672 82.6705 188.306C86.7184 185.939 91.1617 183.841 95.8243 182.099L126.661 204.737L120.981 176.027C132.018 174.643 143.494 174.643 154.572 176.072L149.172 204.782L179.801 182.233C184.459 183.975 188.897 186.073 192.983 188.484C197.069 190.896 200.627 193.485 203.613 196.209L165.164 214.158L214.147 210.988C216.601 217.463 216.637 224.205 214.21 230.679L165.235 227.33L203.86 245.414C200.911 248.137 197.39 250.727 193.298 253.094C189.25 255.46 184.807 257.559 180.144 259.3L180.144 259.345Z" fill="#127FF9"/>
<path d="M73.5601 195.539C76.4653 192.86 79.8978 190.36 83.9017 187.993C87.6856 185.805 91.733 183.885 96.0438 182.233L95.8681 182.099C91.2054 183.841 86.8062 185.895 82.7142 188.306C78.6663 190.672 75.1457 193.262 72.1526 195.986L72.7677 196.298C73.0319 196.03 73.296 195.807 73.5601 195.539Z" fill="#127FF9"/>
<path d="M63.4495 229.25C61.1708 223.178 61.0467 216.927 63.0768 210.854L61.7579 210.765C59.3756 217.239 59.4111 223.982 61.8212 230.456L63.8878 230.322C63.7564 229.965 63.581 229.608 63.4495 229.25Z" fill="#127FF9"/>
<path d="M154.22 176.072C154.22 176.072 154.44 176.072 154.571 176.116C150.395 175.536 146.175 175.223 141.91 175.089C146.043 175.223 150.175 175.58 154.22 176.072Z" fill="#127FF9"/>
<path d="M191.84 188.217C195.838 190.583 199.308 193.083 202.251 195.807C202.514 196.075 202.778 196.298 203.041 196.566L203.657 196.254C200.671 193.53 197.113 190.896 193.027 188.529C188.941 186.163 184.503 184.064 179.845 182.278L179.669 182.412C183.975 184.064 188.062 185.984 191.84 188.217Z" fill="#127FF9"/>
<path d="M121.376 176.027C126.785 175.313 132.282 175 137.777 175C132.15 175 126.521 175.313 120.981 176.027C120.981 176.027 121.201 176.027 121.333 176.027H121.376Z" fill="#127FF9"/>
<path d="M192.069 251.486C188.109 253.808 183.754 255.817 179.223 257.559C178.871 257.693 178.519 257.827 178.167 257.916L180.1 259.345C184.763 257.603 189.162 255.549 193.254 253.138C197.302 250.772 200.822 248.182 203.816 245.458L201.794 244.521C199.021 246.977 195.809 249.343 192.069 251.486Z" fill="#127FF9"/>
<path d="M214.147 211.033L212.828 211.122C214.93 217.195 214.835 223.49 212.585 229.518C212.452 229.875 212.32 230.233 212.144 230.59L214.21 230.724C216.592 224.249 216.557 217.507 214.147 211.033Z" fill="#127FF9"/>
<path d="M121.707 263.453L121.353 265.373C132.431 266.801 143.906 266.846 154.943 265.417L154.55 263.497C143.732 264.881 132.521 264.837 121.707 263.453Z" fill="#127FF9"/>
<path d="M97.049 257.425C92.4785 255.728 88.1284 253.674 84.1303 251.308C80.3959 249.12 77.1453 246.753 74.3785 244.298L72.3548 245.235C75.3412 247.959 78.8992 250.593 82.9851 252.96C87.0711 255.326 91.5091 257.425 96.1674 259.211L98.1037 257.782C97.7522 257.648 97.4005 257.559 97.049 257.425Z" fill="#127FF9"/>
<path d="M179.283 244.967C156.579 258.273 119.691 258.184 96.8888 244.833C74.0868 231.438 73.9819 209.827 96.6854 196.522C119.389 183.216 156.277 183.305 179.079 196.655C201.881 210.051 201.986 231.661 179.283 244.967Z" fill="#166FED"/>
<path d="M176.996 245.503C155.524 258.05 120.702 258.005 99.1305 245.369C77.5585 232.733 77.4962 212.283 98.9238 199.692C120.395 187.145 155.217 187.19 176.789 199.826C198.361 212.462 198.423 232.912 176.996 245.503Z" fill="#127FF9"/>
<path d="M169 240.815C151.928 250.817 124.185 250.772 107.05 240.681C89.9159 230.635 89.8483 214.337 106.92 204.38C123.992 194.378 151.735 194.423 168.869 204.514C186.004 214.56 186.071 230.858 169 240.815Z" fill="#EEEEEE"/>
</g>
<g clip-path="url(#clip1_1613_4093)">
<path opacity="0.53" d="M138.83 235.04L0 34H275.47L138.83 235.04Z" fill="url(#paint0_linear_1613_4093)"/>
</g>
<g clip-path="url(#clip2_1613_4093)">
<path d="M196.916 42.6776C196.866 42.6517 196.81 42.6288 196.752 42.6147C196.703 42.5991 196.648 42.5908 196.591 42.5869C196.646 42.5952 196.702 42.6035 196.752 42.6147C196.809 42.6332 196.866 42.6517 196.916 42.6776Z" fill="#15252F"/>
<path d="M195.499 42.8882C195.55 42.8513 195.599 42.8187 195.653 42.7876C195.707 42.7565 195.763 42.7312 195.82 42.7059C195.877 42.6806 195.936 42.6611 195.996 42.6416C196.056 42.6221 196.118 42.6084 196.18 42.5992C196.247 42.5869 196.312 42.579 196.381 42.577C196.317 42.5805 196.247 42.5869 196.18 42.5992C196.118 42.6084 196.06 42.6235 195.996 42.6416C195.936 42.6611 195.877 42.6806 195.82 42.7059C195.763 42.7312 195.707 42.7565 195.653 42.7876C195.599 42.8187 195.55 42.8513 195.499 42.8882C195.413 42.9576 195.35 43.034 195.295 43.1133C195.344 43.037 195.408 42.9605 195.499 42.8882Z" fill="#15252F"/>
<path d="M195.266 43.1574C195.227 43.2322 195.203 43.3068 195.195 43.377C195.199 43.3054 195.223 43.2308 195.266 43.1574Z" fill="#15252F"/>
<path d="M195.268 43.629C195.314 43.6972 195.383 43.7536 195.48 43.7995C195.383 43.7536 195.32 43.6942 195.27 43.6246L195.268 43.629Z" fill="#15252F"/>
<path d="M195.198 43.412C195.199 43.485 195.217 43.5491 195.255 43.6101C195.217 43.5491 195.2 43.4806 195.198 43.412Z" fill="#15252F"/>
<path d="M195.199 43.3784C195.199 43.3784 195.197 43.3872 195.195 43.3916C195.192 43.4004 195.2 43.4076 195.203 43.4134C195.205 43.482 195.22 43.5549 195.258 43.6159L195.257 43.6203L195.266 43.6231C195.311 43.6914 195.38 43.7477 195.476 43.798L212.323 52.3569C212.373 52.3828 212.428 52.4056 212.482 52.4183C212.54 52.4368 212.599 52.4465 212.661 52.4518C212.722 52.4572 212.789 52.4595 212.853 52.4561C212.918 52.4526 212.988 52.4461 213.055 52.4339C213.116 52.4246 213.178 52.4109 213.238 52.3915C213.298 52.372 213.357 52.3525 213.418 52.3286C213.475 52.3033 213.532 52.278 213.586 52.2469C213.639 52.2158 213.693 52.1846 213.739 52.1463C213.838 52.0666 213.913 51.9842 213.965 51.8991C214.017 51.8139 214.041 51.7247 214.048 51.6443C214.05 51.5625 214.027 51.4824 213.977 51.4127C213.927 51.3431 213.855 51.2809 213.76 51.2306L196.911 42.6762C196.861 42.6503 196.806 42.6274 196.747 42.6133C196.699 42.5977 196.643 42.5894 196.586 42.5855C196.578 42.5826 196.573 42.5812 196.565 42.5784C196.503 42.573 196.436 42.5707 196.372 42.5742C196.308 42.5776 196.238 42.5841 196.171 42.5963C196.11 42.6056 196.051 42.6207 195.987 42.6387C195.928 42.6582 195.868 42.6777 195.811 42.703C195.754 42.7283 195.698 42.7536 195.644 42.7848C195.59 42.8159 195.541 42.8484 195.49 42.8853C195.405 42.9547 195.341 43.0312 195.286 43.1105C195.283 43.1193 195.27 43.1296 195.263 43.137C195.26 43.1457 195.259 43.1501 195.256 43.1589C195.217 43.2337 195.193 43.3084 195.185 43.3785L195.199 43.3784Z" fill="#127FF9"/>
<path d="M228.031 66.4782L192.299 48.2871L228.031 66.4782Z" fill="#152630"/>
<path d="M89.5523 129.751C89.5523 129.751 89.5297 129.758 89.5177 129.764C89.5177 129.764 89.5403 129.757 89.5523 129.751Z" fill="#838383"/>
<path d="M95.8054 124.031L95.9182 124.087L130.982 142.668L95.8054 124.031Z" fill="#838383"/>
<path d="M93.2288 129.151C92.762 129.17 92.2854 129.234 91.8088 129.298C91.8846 129.288 91.9546 129.282 92.029 129.277C92.4283 129.227 92.8306 129.168 93.2273 129.156L93.2288 129.151Z" fill="#838383"/>
<path d="M91.3073 129.349C90.7172 129.449 90.1303 129.584 89.5523 129.751C89.842 129.665 90.1393 129.616 90.432 129.55C90.7248 129.485 91.0144 129.399 91.3117 129.35L91.3073 129.349Z" fill="#838383"/>
<path d="M130.982 142.668L228.031 66.4782L130.982 142.668Z" fill="#848484"/>
<path d="M115.217 134.314L135.278 144.944L115.217 134.314Z" fill="#152630"/>
<path d="M84.2848 137.576C84.2848 137.576 84.2937 137.594 84.2996 137.605C84.2996 137.605 84.2908 137.588 84.2848 137.576Z" fill="#15252F"/>
<path d="M84.8146 134.85C84.8146 134.85 84.8305 134.831 84.8391 134.819C84.8391 134.819 84.8232 134.838 84.8146 134.85C84.7958 134.878 84.7917 134.906 84.7729 134.934C84.7873 134.904 84.7914 134.877 84.8146 134.85Z" fill="#15252F"/>
<path d="M85.6105 133.846C85.5526 133.905 85.4991 133.965 85.4456 134.026C85.4991 133.965 85.557 133.906 85.6105 133.846Z" fill="#15252F"/>
<path d="M88.7526 131.739C88.5214 131.839 88.302 131.962 88.0768 132.073C88.302 131.962 88.5228 131.834 88.7526 131.739Z" fill="#15252F"/>
<path d="M86.2238 131.162C86.7423 130.864 87.2815 130.592 87.8414 130.361C88.2514 130.188 88.6793 130.05 89.1071 129.912C88.8525 129.995 88.5993 130.087 88.3462 130.18C88.1804 130.243 88.0056 130.288 87.8414 130.361C87.6843 130.426 87.5391 130.515 87.3792 130.59C86.9852 130.773 86.5927 130.951 86.2238 131.162C86.0931 131.236 85.98 131.33 85.8523 131.41C85.4748 131.647 85.0929 131.882 84.7479 132.154C85.209 131.794 85.7053 131.46 86.2238 131.162Z" fill="#15252F"/>
<path d="M83.2396 140.441C83.5437 140.7 83.8813 140.945 84.274 141.155C83.8769 140.944 83.5393 140.698 83.2353 140.44L83.2396 140.441Z" fill="#15252F"/>
<path d="M82.477 134.641C82.454 134.682 82.4353 134.724 82.4123 134.765C82.3116 134.942 82.2167 135.115 82.1407 135.289C82.049 135.497 81.9733 135.701 81.9064 135.907C82.0387 135.484 82.2294 135.06 82.477 134.641Z" fill="#15252F"/>
<path d="M84.7479 132.154C84.4956 132.349 84.2608 132.549 84.0406 132.75C83.819 132.955 83.6164 133.161 83.4283 133.367C83.8058 132.95 84.249 132.541 84.7493 132.15L84.7479 132.154Z" fill="#15252F"/>
<path d="M87.5521 132.33C87.266 132.495 87.0005 132.685 86.7394 132.877C87.0049 132.687 87.2704 132.496 87.5565 132.332L87.5521 132.33Z" fill="#15252F"/>
<path d="M81.7975 136.348C81.7821 136.425 81.7565 136.504 81.7425 136.577C81.7578 136.485 81.7891 136.389 81.8102 136.293C81.8046 136.311 81.7989 136.329 81.7946 136.342L81.7975 136.348Z" fill="#15252F"/>
<path d="M91.3073 129.349C91.0144 129.399 90.7204 129.484 90.4276 129.549C90.7204 129.484 91.01 129.398 91.3073 129.349Z" fill="#15252F"/>
<path d="M92.7389 130.842C92.7389 130.842 92.7724 130.843 92.787 130.843C93.2378 130.829 93.6843 130.843 94.1107 130.889C93.6654 130.841 93.2056 130.823 92.7389 130.842C92.5186 130.848 92.2971 130.888 92.0756 130.913C92.1208 130.909 92.1703 130.905 92.2155 130.9C92.3905 130.884 92.5653 130.854 92.7418 130.848L92.7389 130.842Z" fill="#15252F"/>
<path d="M92.0304 129.273C91.9546 129.282 91.886 129.284 91.8102 129.293C91.6426 129.317 91.4777 129.317 91.3087 129.344C91.5506 129.301 91.7898 129.297 92.0318 129.268L92.0304 129.273Z" fill="#15252F"/>
<path d="M87.5521 132.33C87.9341 132.109 88.3381 131.91 88.7482 131.737C88.517 131.837 88.2976 131.96 88.0724 132.072C87.898 132.161 87.7191 132.234 87.5521 132.33C87.266 132.495 87.0005 132.685 86.735 132.876C86.6465 132.939 86.5463 132.994 86.4563 133.062C86.8 132.795 87.1657 132.549 87.5477 132.329L87.5521 132.33Z" fill="#1B3069"/>
<path d="M85.3321 139.178C85.5642 139.374 85.8137 139.562 86.1156 139.723C85.8137 139.562 85.5583 139.377 85.3321 139.178Z" fill="#1B3069"/>
<path d="M84.2996 137.605C84.3673 137.86 84.4728 138.103 84.6074 138.331C84.4699 138.097 84.3644 137.854 84.2996 137.605Z" fill="#1B3069"/>
<path d="M92.2126 130.895C92.1674 130.899 92.1178 130.903 92.0726 130.907C91.8218 130.933 91.571 130.944 91.3145 130.987C91.6132 130.933 91.9136 130.919 92.2082 130.893L92.2126 130.895Z" fill="#1B3069"/>
<path d="M85.4471 134.021C85.2157 134.286 85.0092 134.549 84.8392 134.819C85.0048 134.548 85.2113 134.285 85.4471 134.021Z" fill="#1B3069"/>
<path d="M84.7773 134.935C84.6349 135.18 84.5201 135.429 84.4316 135.672C84.5215 135.425 84.6349 135.18 84.7773 134.935Z" fill="#1B3069"/>
<path d="M94.1108 130.889C94.5561 130.936 94.9843 131.021 95.3894 131.133C94.9857 131.017 94.5561 130.936 94.1122 130.884C93.6814 130.837 93.2392 130.825 92.7884 130.839C93.2392 130.825 93.6858 130.838 94.1122 130.884L94.1108 130.889Z" fill="#1B3069"/>
<path d="M84.6313 138.392C84.6313 138.392 84.6193 138.355 84.606 138.336C84.606 138.336 84.618 138.374 84.6313 138.392C84.6578 138.43 84.696 138.462 84.7226 138.5C84.696 138.462 84.6535 138.429 84.6313 138.392Z" fill="#15252F"/>
<path d="M85.1498 139.007C85.2086 139.065 85.2674 139.123 85.3364 139.179C85.2718 139.124 85.213 139.066 85.1542 139.009L85.1498 139.007Z" fill="#15252F"/>
<path d="M84.2848 137.576C84.2848 137.576 84.2937 137.594 84.2996 137.605C84.3673 137.86 84.4729 138.103 84.6075 138.331C84.6207 138.35 84.6194 138.369 84.6327 138.388C84.6593 138.426 84.6975 138.458 84.724 138.495C84.8465 138.671 84.985 138.842 85.1468 139.001C85.2056 139.059 85.2645 139.117 85.3291 139.172C85.5612 139.369 85.8107 139.556 86.1126 139.717C86.4642 139.904 86.8463 140.057 87.2499 140.173C87.6579 140.291 88.0875 140.372 88.5271 140.422C88.9725 140.47 89.4322 140.488 89.9034 140.471C90.3701 140.452 90.8469 140.403 91.3233 140.324C91.759 140.252 92.1945 140.15 92.6268 140.028C93.0592 139.906 93.4825 139.752 93.897 139.581C94.3129 139.405 94.7111 139.209 95.0989 138.985C95.4809 138.764 95.8524 138.516 96.1917 138.247C96.5498 137.965 96.867 137.675 97.1433 137.376C97.4152 137.076 97.6506 136.769 97.8378 136.461C98.2123 135.844 98.4159 135.216 98.4461 134.614C98.4764 134.013 98.3288 133.436 98.011 132.92C97.6931 132.404 97.1949 131.952 96.5209 131.592C96.1692 131.406 95.7872 131.253 95.3836 131.136C94.9799 131.02 94.5503 130.939 94.1049 130.892C93.6741 130.844 93.2319 130.832 92.7812 130.846C92.7666 130.846 92.7476 130.845 92.7331 130.845C92.5609 130.852 92.3803 130.886 92.2068 130.898C91.9078 130.922 91.6118 130.938 91.3131 130.991C90.8774 131.064 90.442 131.165 90.014 131.289C89.586 131.412 89.1583 131.564 88.7482 131.737C88.3381 131.91 87.9341 132.109 87.5521 132.33C87.1701 132.551 86.8044 132.796 86.4608 133.064C86.1374 133.313 85.8623 133.578 85.612 133.842C85.5541 133.901 85.5006 133.961 85.4471 134.021C85.2157 134.286 85.0092 134.549 84.8392 134.819C84.8363 134.828 84.8233 134.838 84.8146 134.85C84.7959 134.878 84.7917 134.906 84.773 134.934C84.6305 135.179 84.5157 135.428 84.4272 135.671C84.4158 135.706 84.3898 135.741 84.3784 135.777C84.2773 136.088 84.217 136.394 84.2019 136.695C84.1868 136.996 84.2125 137.291 84.2848 137.576Z" fill="#FFFFFC"/>
<path d="M83.1296 140.362C83.0723 140.314 83.0441 140.251 82.9926 140.201C83.0441 140.251 83.0737 140.31 83.1296 140.362Z" fill="#1B3069"/>
<path d="M84.2784 141.156C84.7546 141.408 85.2698 141.614 85.8197 141.773C86.3695 141.932 86.9497 142.042 87.5498 142.105C86.9497 142.042 86.371 141.927 85.8197 141.773C85.2698 141.614 84.7531 141.412 84.2827 141.158L84.2784 141.156Z" fill="#1B3069"/>
<path d="M81.834 138.359C81.7304 137.991 81.6806 137.606 81.6863 137.214C81.6905 137.007 81.7107 136.795 81.7411 136.582C81.7564 136.49 81.7877 136.393 81.8088 136.298C81.8371 136.181 81.8565 136.061 81.892 135.936C81.8949 135.928 81.8977 135.919 81.902 135.906C82.0343 135.483 82.225 135.059 82.4726 134.639C82.6007 134.424 82.7435 134.208 82.9037 133.998C83.0596 133.786 83.2359 133.571 83.424 133.365C83.8015 132.949 84.2447 132.539 84.7449 132.148C85.206 131.788 85.7023 131.454 86.2208 131.156C86.7394 130.858 87.2785 130.586 87.8384 130.355C88.2485 130.182 88.6763 130.044 89.1042 129.906C89.2439 129.864 89.3762 129.8 89.5145 129.763C89.5247 129.761 89.5363 129.755 89.5479 129.749C89.8376 129.664 90.1349 129.614 90.4276 129.549C90.7204 129.484 91.01 129.398 91.3073 129.349C91.5491 129.306 91.7884 129.301 92.0304 129.273C92.4297 129.222 92.832 129.164 93.2288 129.151C93.8618 129.128 94.4806 129.15 95.0852 129.214C95.6853 129.278 96.264 129.393 96.8095 129.55C97.355 129.708 97.8702 129.914 98.3464 130.165C98.7846 130.399 99.1704 130.66 99.4981 130.951C99.8258 131.242 100.098 131.553 100.314 131.89C100.531 132.223 100.691 132.58 100.801 132.946C100.904 133.315 100.96 133.697 100.954 134.088C100.95 134.504 100.884 134.934 100.754 135.363C100.625 135.792 100.435 136.23 100.18 136.657C100.052 136.873 99.9089 137.089 99.753 137.3C99.5971 137.512 99.4208 137.726 99.2328 137.932C98.8553 138.349 98.4164 138.76 97.9162 139.151C97.4493 139.514 96.9529 139.848 96.4344 140.146C95.9145 140.449 95.371 140.719 94.8097 140.954C94.2483 141.19 93.6736 141.392 93.0943 141.563C92.5106 141.733 91.9192 141.867 91.3291 141.967C90.6836 142.073 90.0407 142.141 89.4077 142.164C88.7746 142.187 88.1514 142.165 87.5513 142.101C86.9511 142.038 86.3724 141.923 85.8211 141.768C85.2712 141.609 84.7545 141.408 84.2842 141.153C83.8871 140.942 83.5495 140.697 83.2454 140.438C83.2116 140.408 83.1648 140.388 83.1296 140.362C83.0723 140.314 83.0441 140.251 82.9926 140.201C82.8853 140.098 82.8056 139.985 82.7143 139.878C82.5803 139.722 82.423 139.579 82.3152 139.418C82.0995 139.081 81.9376 138.728 81.834 138.359ZM84.2019 136.695C84.1868 136.996 84.2125 137.291 84.2848 137.576C84.2864 137.586 84.2937 137.594 84.2996 137.605C84.3673 137.86 84.4729 138.103 84.6074 138.331C84.6207 138.35 84.6194 138.369 84.6327 138.388C84.6593 138.426 84.6975 138.458 84.724 138.495C84.8421 138.67 84.9865 138.838 85.1482 138.997C85.2071 139.055 85.2659 139.113 85.3335 139.173C85.5656 139.37 85.8151 139.558 86.117 139.719C86.4686 139.906 86.8507 140.058 87.2543 140.175C87.6623 140.293 88.0919 140.374 88.5315 140.424C88.9769 140.471 89.4366 140.489 89.9078 140.472C90.3745 140.453 90.8512 140.404 91.3277 140.326C91.7634 140.253 92.1988 140.152 92.6312 140.03C93.0636 139.908 93.4869 139.754 93.9014 139.582C94.3173 139.407 94.7155 139.21 95.1033 138.987C95.4853 138.766 95.8568 138.517 96.1961 138.249C96.5542 137.967 96.8714 137.677 97.1477 137.378C97.4196 137.078 97.655 136.77 97.8422 136.462C98.2167 135.846 98.4203 135.218 98.4505 134.616C98.4807 134.014 98.3331 133.437 98.0153 132.922C97.6975 132.406 97.1993 131.953 96.5253 131.594C96.1736 131.407 95.7916 131.254 95.3879 131.138C94.9843 131.021 94.5547 130.94 94.1107 130.889C93.6654 130.841 93.2056 130.823 92.7389 130.842C92.5186 130.848 92.2971 130.888 92.0756 130.913C91.8248 130.939 91.5739 130.95 91.3175 130.993C90.8818 131.065 90.4464 131.167 90.0184 131.29C89.5904 131.413 89.1627 131.566 88.7526 131.739C88.5214 131.839 88.302 131.962 88.0768 132.073C87.9024 132.162 87.7235 132.235 87.5565 132.332C87.2704 132.496 87.0049 132.687 86.7438 132.879C86.6553 132.942 86.5551 132.997 86.4651 133.065C86.1461 133.316 85.8681 133.575 85.6163 133.843C85.5585 133.902 85.505 133.962 85.4514 134.023C85.2201 134.287 85.0136 134.551 84.8436 134.821C84.8393 134.834 84.8277 134.84 84.819 134.852C84.8002 134.879 84.7961 134.907 84.7773 134.935C84.6349 135.18 84.5201 135.429 84.4316 135.673C84.4202 135.708 84.3942 135.743 84.3828 135.778C84.2817 136.09 84.2214 136.396 84.2063 136.696L84.2019 136.695Z" fill="#127FF9"/>
<path d="M170.032 36.952L192.299 48.2871L228.031 66.4782L130.982 142.668L95.9182 124.087L115.217 134.314L135.278 144.944L232.368 68.6752L165.785 34.7936L165.781 34.7921L69.091 109.87L73.3036 112.105L170.032 36.952Z" fill="#FFFFFC"/>
<path d="M228.031 66.4782L192.299 48.2871L170.032 36.952L73.3036 112.105L93.65 122.885L95.8055 124.031L130.982 142.668L228.031 66.4782Z" fill="url(#paint1_linear_1613_4093)"/>
<path d="M51.28 127.755C51.28 127.755 51.2666 127.721 51.2577 127.704C50.9485 127.176 50.8082 126.592 50.8457 125.983C50.8844 125.355 51.1024 124.697 51.5014 124.05C51.9004 123.403 52.479 122.77 53.2359 122.185L69.0896 109.875L73.3022 112.109L93.6442 122.888L95.8011 124.029L95.9168 124.091L115.216 134.319L135.276 144.948L232.368 68.6752L165.786 34.7892L170.972 30.7619C171.323 30.4874 171.7 30.2359 172.098 30.0106C172.492 29.7839 172.907 29.5789 173.333 29.4015C173.759 29.2241 174.197 29.07 174.643 28.9377C175.087 28.8098 175.538 28.7038 175.99 28.6269C176.483 28.5439 176.98 28.4915 177.467 28.4698C177.954 28.4482 178.434 28.4631 178.895 28.5059C179.361 28.5501 179.81 28.6324 180.234 28.7456C180.658 28.8588 181.059 29.0131 181.431 29.1968L237.713 57.739C238.435 58.0993 238.972 58.5649 239.325 59.0919C239.662 59.5942 239.823 60.1608 239.826 60.7492C239.826 60.7784 239.838 60.8017 239.838 60.8309C239.838 60.8601 239.823 60.8938 239.823 60.923C239.812 61.1961 239.77 61.4739 239.685 61.752C239.675 61.7828 239.665 61.8135 239.657 61.8399C239.571 62.1034 239.451 62.3702 239.303 62.6328C239.282 62.6651 239.28 62.7031 239.255 62.7339C239.245 62.7501 239.225 62.7678 239.213 62.7883C239.046 63.0642 238.841 63.3376 238.604 63.6053C238.556 63.6627 238.5 63.7172 238.449 63.7687C238.19 64.0439 237.908 64.3165 237.576 64.5777L119.366 157.449C119.002 157.734 118.617 157.993 118.211 158.23C117.804 158.467 117.382 158.675 116.943 158.863C116.506 159.046 116.056 159.206 115.6 159.34C115.145 159.474 114.685 159.577 114.223 159.655C113.716 159.738 113.208 159.792 112.712 159.811C112.216 159.83 111.723 159.811 111.25 159.759C110.777 159.708 110.321 159.618 109.891 159.493C109.461 159.369 109.053 159.207 108.682 159.004L52.8231 129.143C52.5095 128.974 52.2468 128.782 52.0088 128.573C51.9397 128.517 51.8823 128.455 51.8191 128.395C51.647 128.223 51.4968 128.043 51.3684 127.856C51.3418 127.818 51.3036 127.787 51.277 127.749L51.28 127.755ZM195.195 43.3916C195.195 43.3916 195.2 43.4076 195.203 43.4134C195.205 43.482 195.221 43.5505 195.26 43.6115C195.26 43.6115 195.258 43.6159 195.257 43.6203L195.266 43.6231C195.311 43.6914 195.38 43.7477 195.477 43.7936L212.324 52.3525C212.374 52.3784 212.43 52.4012 212.484 52.4139C212.541 52.4324 212.601 52.4421 212.662 52.4475C212.724 52.4528 212.791 52.4551 212.855 52.4517C212.919 52.4482 212.989 52.4418 213.056 52.4295C213.117 52.4202 213.18 52.4065 213.239 52.3871C213.299 52.3676 213.359 52.3481 213.42 52.3242C213.477 52.2989 213.533 52.2736 213.587 52.2425C213.641 52.2114 213.695 52.1802 213.741 52.1419C213.839 52.0622 213.915 51.9798 213.967 51.8947C214.018 51.8095 214.042 51.7203 214.049 51.6399C214.051 51.5581 214.029 51.478 213.979 51.4084C213.929 51.3387 213.857 51.2765 213.761 51.2262L196.913 42.6718C196.863 42.6459 196.807 42.623 196.749 42.6089C196.7 42.5933 196.645 42.585 196.588 42.5811C196.579 42.5782 196.575 42.5768 196.566 42.574C196.505 42.5686 196.437 42.5663 196.373 42.5698C196.309 42.5732 196.239 42.5797 196.172 42.5919C196.111 42.6012 196.053 42.6163 195.989 42.6344C195.929 42.6538 195.869 42.6733 195.813 42.6986C195.756 42.7239 195.699 42.7492 195.645 42.7804C195.592 42.8115 195.542 42.844 195.492 42.881C195.406 42.9503 195.342 43.0268 195.288 43.1061C195.285 43.1149 195.272 43.1252 195.265 43.1326C195.262 43.1413 195.26 43.1457 195.257 43.1545C195.219 43.2293 195.194 43.304 195.186 43.3741C195.186 43.3741 195.183 43.3829 195.182 43.3873L195.195 43.3916ZM81.8384 138.361C81.942 138.729 82.1024 139.087 82.3196 139.42C82.4259 139.585 82.5876 139.73 82.7186 139.879C82.81 139.986 82.8897 140.099 82.997 140.202C83.0484 140.253 83.0781 140.311 83.134 140.363C83.1678 140.394 83.2146 140.414 83.2484 140.444C83.5525 140.703 83.89 140.948 84.2827 141.158C84.7589 141.409 85.2741 141.615 85.824 141.774C86.3739 141.933 86.954 142.043 87.5542 142.107C88.1544 142.17 88.7776 142.193 89.4106 142.17C90.0437 142.147 90.691 142.08 91.3321 141.973C91.9222 141.873 92.5135 141.739 93.0972 141.569C93.681 141.399 94.2557 141.197 94.8126 140.96C95.3739 140.725 95.9175 140.454 96.4374 140.152C96.9573 139.85 97.4522 139.52 97.9191 139.157C98.4194 138.766 98.8582 138.355 99.2357 137.938C99.4252 137.728 99.5956 137.516 99.7559 137.306C99.9118 137.094 100.055 136.879 100.183 136.663C100.435 136.23 100.628 135.798 100.757 135.369C100.887 134.94 100.953 134.51 100.957 134.094C100.963 133.702 100.913 133.317 100.804 132.952C100.696 132.582 100.538 132.23 100.317 131.896C100.1 131.563 99.8287 131.247 99.501 130.957C99.1733 130.666 98.7875 130.405 98.3494 130.171C97.8732 129.919 97.358 129.713 96.8125 129.556C96.267 129.399 95.6869 129.288 95.0881 129.22C94.4879 129.157 93.8647 129.134 93.2317 129.157C92.765 129.176 92.2883 129.24 91.8117 129.304C91.6441 129.327 91.4793 129.327 91.3102 129.355C90.7201 129.455 90.1332 129.589 89.5553 129.756C89.5451 129.758 89.5335 129.764 89.5218 129.77C89.1259 129.884 88.7375 130.035 88.3492 130.186C88.1833 130.248 88.0086 130.294 87.8443 130.367C87.6872 130.432 87.5421 130.521 87.3822 130.596C86.9882 130.778 86.5957 130.957 86.2268 131.167C86.096 131.242 85.983 131.336 85.8552 131.416C85.4778 131.653 85.0959 131.888 84.7508 132.16C84.4985 132.355 84.2637 132.555 84.0436 132.756C83.8219 132.96 83.6193 133.167 83.4313 133.373C83.2418 133.583 83.067 133.793 82.9111 134.005C82.7508 134.215 82.6081 134.431 82.4799 134.647C82.4569 134.688 82.4383 134.73 82.4153 134.771C82.3145 134.947 82.2196 135.12 82.1437 135.295C82.0447 135.51 81.9647 135.727 81.8994 135.944C81.8552 136.08 81.8301 136.217 81.8049 136.355C81.7895 136.432 81.7638 136.511 81.7498 136.585C81.715 136.797 81.6948 137.008 81.695 137.217C81.6894 137.609 81.7392 137.994 81.8428 138.362L81.8384 138.361Z" fill="#FFFFFC"/>
<path d="M241.1 65.7202L239.744 60.014C239.807 60.2529 239.824 60.501 239.826 60.7492C239.826 60.7784 239.838 60.8017 239.838 60.8309C239.839 60.8601 239.823 60.8938 239.823 60.923C239.819 60.9946 239.826 61.0646 239.817 61.1348C239.794 61.3408 239.748 61.5442 239.685 61.752C239.675 61.7828 239.665 61.8135 239.657 61.8399C239.607 61.9936 239.557 62.1473 239.482 62.3028C239.432 62.4127 239.362 62.5257 239.303 62.6328C239.282 62.6651 239.28 62.7031 239.255 62.734C239.245 62.7501 239.225 62.7678 239.213 62.7883C239.075 63.0202 238.919 63.2464 238.73 63.4714C238.691 63.517 238.642 63.5641 238.603 63.6097C238.555 63.6671 238.499 63.7216 238.448 63.7731C238.189 64.0483 237.907 64.3209 237.575 64.5821L119.364 157.453C119 157.738 118.616 157.997 118.209 158.234C117.803 158.471 117.381 158.679 116.942 158.867C116.504 159.05 116.055 159.21 115.599 159.344C115.143 159.478 114.683 159.581 114.221 159.66C113.714 159.743 113.207 159.797 112.711 159.816C112.215 159.834 111.722 159.815 111.249 159.764C110.775 159.712 110.319 159.623 109.89 159.498C109.46 159.373 109.051 159.212 108.68 159.009L52.8217 129.148C52.5697 129.012 52.3453 128.867 52.1397 128.708C52.0898 128.668 52.0515 128.621 52.006 128.582C51.9369 128.526 51.8795 128.463 51.8163 128.404C51.7457 128.338 51.665 128.273 51.6002 128.203C51.5089 128.096 51.4394 127.981 51.3655 127.865C51.339 127.827 51.3008 127.795 51.2742 127.758C51.2653 127.74 51.2608 127.724 51.2519 127.707C51.2401 127.683 51.218 127.662 51.2018 127.637C51.0952 127.442 51.0118 127.236 50.9489 127.026L52.5988 132.662C52.6617 132.872 52.7451 133.079 52.8517 133.274C52.9583 133.468 53.0897 133.661 53.2458 133.838C53.4004 134.019 53.5783 134.189 53.7838 134.348C53.985 134.505 54.2138 134.652 54.4658 134.787L110.268 164.703C110.64 164.901 111.047 165.067 111.477 165.192C111.907 165.317 112.363 165.406 112.836 165.458C113.309 165.509 113.798 165.527 114.294 165.508C114.79 165.489 115.296 165.44 115.803 165.357C116.265 165.278 116.725 165.175 117.181 165.041C117.636 164.907 118.085 164.752 118.522 164.568C118.96 164.385 119.383 164.173 119.788 163.94C120.195 163.703 120.579 163.444 120.943 163.159L238.938 70.2955C239.393 69.9383 239.775 69.5671 240.093 69.1848C240.411 68.8025 240.659 68.412 240.84 68.0191C241.02 67.6263 241.132 67.2355 241.176 66.8468C241.218 66.4624 241.195 66.0859 241.103 65.726L241.1 65.7202Z" fill="#127FF9"/>
<g style="mix-blend-mode:overlay" opacity="0.4">
<path d="M170.032 36.952L110.159 83.4686L94.4281 123.298L95.8069 124.026L130.816 142.58L172.117 38.0162L170.032 36.952Z" fill="url(#paint2_linear_1613_4093)"/>
<path d="M195.249 49.7922L192.299 48.2871L179.36 41.7041L143.298 132.996L170.965 111.279L195.249 49.7922Z" fill="url(#paint3_linear_1613_4093)"/>
</g>
</g>
<defs>
<linearGradient id="paint0_linear_1613_4093" x1="137.73" y1="-114.04" x2="137.73" y2="284.86" gradientUnits="userSpaceOnUse">
<stop offset="0.6" stop-color="white" stop-opacity="0"/>
<stop offset="0.68" stop-color="#127FF9" stop-opacity="0.29"/>
<stop offset="0.76" stop-color="#127FF9" stop-opacity="0.54"/>
<stop offset="0.84" stop-color="#127FF9" stop-opacity="0.74"/>
<stop offset="0.91" stop-color="#127FF9" stop-opacity="0.88"/>
<stop offset="0.96" stop-color="#127FF9" stop-opacity="0.97"/>
<stop offset="1" stop-color="#127FF9"/>
</linearGradient>
<linearGradient id="paint1_linear_1613_4093" x1="74.6752" y1="85.8938" x2="226.604" y2="93.8174" gradientUnits="userSpaceOnUse">
<stop stop-color="#8FFFFF"/>
<stop offset="0.66" stop-color="#507FDF"/>
<stop offset="1" stop-color="#3343D0"/>
</linearGradient>
<linearGradient id="paint2_linear_1613_4093" x1="132.515" y1="23.7401" x2="134.222" y2="147.828" gradientUnits="userSpaceOnUse">
<stop stop-color="white"/>
<stop offset="0.09" stop-color="white" stop-opacity="0.95"/>
<stop offset="0.26" stop-color="white" stop-opacity="0.8"/>
<stop offset="0.5" stop-color="white" stop-opacity="0.57"/>
<stop offset="0.78" stop-color="white" stop-opacity="0.26"/>
<stop offset="1" stop-color="white" stop-opacity="0"/>
</linearGradient>
<linearGradient id="paint3_linear_1613_4093" x1="168.373" y1="23.2474" x2="170.076" y2="147.336" gradientUnits="userSpaceOnUse">
<stop stop-color="white"/>
<stop offset="0.09" stop-color="white" stop-opacity="0.95"/>
<stop offset="0.26" stop-color="white" stop-opacity="0.8"/>
<stop offset="0.5" stop-color="white" stop-opacity="0.57"/>
<stop offset="0.78" stop-color="white" stop-opacity="0.26"/>
<stop offset="1" stop-color="white" stop-opacity="0"/>
</linearGradient>
<clipPath id="clip0_1613_4093">
<rect width="156.038" height="106" fill="white" transform="matrix(1 0 -0.00125033 0.999999 60 175)"/>
</clipPath>
<clipPath id="clip1_1613_4093">
<rect width="275.47" height="201.04" fill="white" transform="translate(0 34)"/>
</clipPath>
<clipPath id="clip2_1613_4093">
<rect width="163" height="151" fill="white" transform="matrix(-0.951257 -0.3084 -0.3084 0.951257 246.623 50.2693)"/>
</clipPath>
</defs>
</svg>
