<svg width="375" height="210" viewBox="0 0 375 210" fill="none" xmlns="http://www.w3.org/2000/svg">
<g clip-path="url(#clip0_598_5083)">
<path d="M213.101 106.922C211.984 108.133 210.706 109.296 209.317 110.362C206.986 112.159 204.32 113.715 201.472 115.001C197.895 116.609 194.026 117.799 190.14 118.47C187.039 118.999 183.948 119.197 180.986 119.028C179.232 118.929 177.515 118.688 175.884 118.306C174.253 117.923 172.781 117.427 171.488 116.826C169.303 115.813 167.589 114.49 166.4 112.974C164.892 111.064 164.625 110.262 164.764 107.847C164.859 105.918 165.508 103.886 166.717 101.828C167.425 100.612 168.341 99.3807 169.472 98.1652C170.589 96.9542 171.866 95.7918 173.256 94.726C175.587 92.9288 178.253 91.3721 181.101 90.0866C184.678 88.479 188.547 87.2887 192.433 86.6172C195.534 86.0887 198.625 85.8907 201.587 86.0598C203.341 86.1587 205.058 86.3998 206.689 86.782C208.32 87.1641 209.791 87.6607 211.084 88.2614C213.27 89.2749 214.984 90.5973 216.173 92.1137C217.681 94.0234 217.948 94.8251 217.809 97.241C217.713 99.1691 217.065 101.202 215.856 103.26C215.147 104.476 214.232 105.707 213.101 106.922Z" fill="#D0CEC9"/>
<path d="M209.332 110.357L207.814 105.504L199.969 110.144L201.486 114.996C197.91 116.604 194.04 117.794 190.155 118.466L188.637 113.613L179.483 114.171L181 119.023C179.247 118.924 177.53 118.683 175.899 118.301C174.268 117.919 172.796 117.422 171.503 116.822L169.986 111.969L164.877 108.106L166.395 112.959C165.672 112.052 165.133 111.056 164.772 110.005C164.383 108.864 163.222 105.047 163.222 105.047L166.697 101.818C167.406 100.601 168.321 99.3704 169.452 98.1548C170.569 96.9439 171.847 95.7815 173.236 94.7157L186.011 99.0843L181.097 90.0717C184.673 88.4641 188.543 87.2738 192.428 86.6023L193.622 96.7596L201.583 86.0449C203.336 86.1438 205.053 86.385 206.684 86.7671C208.315 87.1493 209.787 87.6459 211.08 88.2465L199.999 98.235L216.188 92.1092C215.82 91.1913 215.697 88.512 216.054 89.4987C216.078 89.5734 217.348 93.6347 217.371 93.7094C217.721 94.8293 217.879 96.0084 217.824 97.2365L216.306 92.3838L214.353 98.4024L215.871 103.255C215.162 104.471 214.247 105.702 213.116 106.918C211.999 108.129 210.721 109.291 209.332 110.357Z" fill="#166FED"/>
<path d="M211.583 102.07C210.467 103.281 209.189 104.443 207.799 105.509C205.469 107.306 202.803 108.863 199.954 110.148C196.378 111.756 192.508 112.946 188.622 113.618C185.521 114.146 182.43 114.344 179.468 114.175C177.714 114.076 175.998 113.835 174.367 113.453C172.736 113.071 171.264 112.574 169.971 111.973C167.785 110.96 166.071 109.638 164.882 108.121C163.375 106.212 162.655 103.961 162.793 101.546C162.889 99.6174 163.537 97.5848 164.746 95.5269C165.455 94.3105 166.37 93.0797 167.502 91.8641C168.618 90.6532 169.896 89.4908 171.285 88.425C173.616 86.6277 176.282 85.071 179.131 83.7856C182.707 82.178 186.577 80.9876 190.462 80.3161C193.564 79.7876 196.655 79.5897 199.617 79.7588C201.37 79.8577 203.087 80.0988 204.718 80.481C206.349 80.8631 207.821 81.3597 209.114 81.9604C211.3 82.9738 213.014 84.2962 214.203 85.8127C215.71 87.7223 216.43 89.9724 216.292 92.3883C216.196 94.3165 215.548 96.3491 214.338 98.4069C213.63 99.6233 212.715 100.854 211.583 102.07Z" fill="#D6D4D0"/>
<path d="M213.56 85.7322C212.38 84.2456 210.71 82.9589 208.578 81.9616C207.304 81.3713 205.867 80.8805 204.27 80.5041C202.674 80.1278 200.996 79.9074 199.272 79.7994C196.374 79.627 193.347 79.8216 190.309 80.3468C186.513 80.9909 182.717 82.1585 179.215 83.7433C176.426 85.0105 173.814 86.534 171.534 88.2832C170.169 89.3249 168.926 90.4438 167.839 91.6456C166.748 92.8325 165.843 94.0439 165.144 95.2408C163.97 97.2551 163.338 99.2338 163.228 101.117C163.105 103.479 163.806 105.669 165.275 107.558C166.455 109.045 168.125 110.332 170.257 111.329C171.53 111.919 172.968 112.41 174.564 112.786C176.161 113.163 177.839 113.383 179.563 113.491C182.461 113.664 185.488 113.469 188.525 112.944C192.322 112.3 196.117 111.132 199.62 109.547C202.409 108.28 205.02 106.757 207.301 105.007C208.666 103.966 209.909 102.847 210.995 101.645C212.082 100.443 212.992 99.2467 213.69 98.0498C214.864 96.0354 215.497 94.0568 215.607 92.1734C215.73 89.8114 215.024 87.6061 213.56 85.7322Z" fill="#EEEEEE"/>
<path d="M207.81 105.489L195.034 101.121L199.949 110.133C196.373 111.741 192.503 112.931 188.618 113.603L187.424 103.446L179.463 114.16C177.71 114.061 175.993 113.82 174.362 113.438C172.731 113.056 171.259 112.559 169.966 111.959L181.047 101.97L164.877 108.106C163.37 106.197 162.65 103.947 162.788 101.531L179.655 97.5698L164.727 95.5166C165.435 94.3002 166.351 93.0693 167.482 91.8538C168.599 90.6429 169.876 89.4804 171.266 88.4147L184.041 92.7833L179.111 83.7753C182.688 82.1676 186.557 80.9773 190.443 80.3058L191.637 90.4631L199.597 79.7485C201.351 79.8473 203.068 80.0885 204.699 80.4706C206.33 80.8528 207.801 81.3494 209.094 81.9501L198.014 91.9386L214.198 85.7978C215.706 87.7074 216.425 89.9575 216.287 92.3734L199.421 96.3342L214.344 98.3725C213.635 99.5889 212.72 100.82 211.589 102.035C210.472 103.246 209.194 104.409 207.805 105.474L207.81 105.489Z" fill="#127FF9"/>
<path d="M165.169 95.2167C165.868 94.0198 166.763 92.8279 167.864 91.6215C168.911 90.4977 170.074 89.436 171.354 88.4366L171.281 88.41C169.891 89.4758 168.623 90.6187 167.497 91.8492C166.38 93.0601 165.465 94.291 164.742 95.5119L164.982 95.5526C165.043 95.4357 165.109 95.3336 165.169 95.2167Z" fill="#127FF9"/>
<path d="M165.3 107.534C163.894 105.741 163.196 103.664 163.243 101.424L162.788 101.531C162.665 103.942 163.385 106.192 164.877 108.106L165.56 107.847C165.478 107.741 165.382 107.64 165.3 107.534Z" fill="#127FF9"/>
<path d="M190.324 80.3423C190.324 80.3423 190.398 80.3195 190.448 80.3207C188.978 80.5599 187.522 80.8932 186.07 81.2908C187.478 80.9069 188.909 80.5976 190.324 80.3423Z" fill="#127FF9"/>
<path d="M204.285 80.4995C205.882 80.8759 207.315 81.3517 208.593 81.957C208.71 82.0192 208.822 82.0665 208.939 82.1287L209.114 81.9603C207.821 81.3597 206.345 80.8481 204.718 80.4809C203.092 80.1137 201.375 79.8726 199.617 79.7587L199.571 79.8218C201.197 79.9273 202.777 80.1452 204.285 80.4995Z" fill="#127FF9"/>
<path d="M179.245 83.7341C180.994 82.9343 182.814 82.2597 184.667 81.6896C182.77 82.2733 180.905 82.9616 179.111 83.7752C179.111 83.7752 179.185 83.7524 179.23 83.7387L179.245 83.7341Z" fill="#127FF9"/>
<path d="M211.006 101.625C209.914 102.812 208.656 103.936 207.311 104.988C207.207 105.069 207.102 105.15 206.993 105.217L207.795 105.494C209.184 104.428 210.452 103.285 211.579 102.055C212.695 100.844 213.61 99.6129 214.334 98.392L213.554 98.2882C212.876 99.3967 212.042 100.521 211.006 101.625Z" fill="#127FF9"/>
<path d="M214.203 85.8127L213.767 85.9794C215.114 87.7912 215.743 89.9056 215.617 92.1539C215.61 92.2871 215.603 92.4202 215.581 92.5579L216.292 92.3883C216.415 89.977 215.695 87.7269 214.203 85.8127Z" fill="#127FF9"/>
<path d="M188.536 112.924L188.618 113.603C192.503 112.931 196.378 111.756 199.949 110.133L199.615 109.532C196.113 111.117 192.327 112.265 188.536 112.924Z" fill="#127FF9"/>
<path d="M179.588 113.467C177.869 113.374 176.186 113.139 174.589 112.762C173.1 112.418 171.756 111.964 170.565 111.431L169.981 111.954C171.274 112.555 172.75 113.066 174.377 113.433C176.003 113.801 177.72 114.042 179.478 114.156L179.981 113.477C179.848 113.469 179.721 113.475 179.588 113.467Z" fill="#127FF9"/>
<path d="M206.009 100.773C199.751 107.576 187.303 111.372 178.212 109.275C169.116 107.162 166.812 99.9492 173.071 93.1463C179.329 86.3434 191.777 82.5468 200.868 84.6443C209.964 86.7567 212.268 93.9698 206.009 100.773Z" fill="#166FED"/>
<path d="M205.295 101.189C199.372 107.61 187.625 111.208 179.024 109.221C170.423 107.235 168.255 100.406 174.158 93.9738C180.081 87.5525 191.828 83.9553 200.429 85.9416C209.03 87.9278 211.198 94.7573 205.295 101.189Z" fill="#127FF9"/>
<path d="M202.106 100.451C197.399 105.565 188.04 108.428 181.202 106.833C174.37 105.252 172.636 99.8109 177.347 94.7116C182.053 89.5974 191.413 86.7345 198.25 88.3303C205.083 89.9112 206.817 95.352 202.106 100.451Z" fill="#EEEEEE"/>
</g>
<g clip-path="url(#clip1_598_5083)">
<path d="M165.043 68.7106C163.903 68.5917 162.724 68.3636 161.553 68.0341C159.584 67.4853 157.611 66.652 155.717 65.6064C153.341 64.2908 151.08 62.6415 149.103 60.7698C147.53 59.2728 146.147 57.6455 145.023 55.9384C144.356 54.9283 143.785 53.8799 143.329 52.821C142.872 51.7621 142.546 50.7441 142.351 49.7821C142.021 48.1566 142.059 46.6649 142.422 45.3834C142.875 43.7642 143.215 43.2866 144.63 42.3688C145.753 41.6283 147.162 41.1501 148.816 40.9717C149.792 40.8628 150.86 40.8622 152.009 40.9873C153.149 41.1062 154.328 41.3343 155.499 41.6638C157.468 42.2126 159.44 43.0459 161.335 44.0915C163.71 45.4071 165.972 47.0564 167.948 48.9281C169.522 50.4251 170.905 52.0524 172.029 53.7595C172.695 54.7696 173.266 55.818 173.723 56.8769C174.179 57.9358 174.506 58.9538 174.7 59.9158C175.03 61.5413 174.993 63.033 174.63 64.3145C174.177 65.9338 173.836 66.4113 172.422 67.3291C171.299 68.0696 169.889 68.5478 168.235 68.7262C167.26 68.8351 166.192 68.8357 165.043 68.7106Z" fill="#D0CEC9"/>
<path d="M161.562 68.0404L163.664 65.2043L157.828 62.7766L155.725 65.6126C153.35 64.2971 151.089 62.6478 149.112 60.7761L151.215 57.94L147.134 53.1086L145.031 55.9447C144.365 54.9345 143.794 53.8862 143.338 52.8272C142.881 51.7683 142.555 50.7504 142.36 49.7883L144.463 46.9523L144.531 42.5385L142.428 45.3746C142.641 44.6018 142.979 43.8938 143.421 43.2616C143.902 42.577 145.569 40.3644 145.569 40.3644L148.814 40.9566C149.789 40.8477 150.858 40.8471 152.007 40.9722C153.147 41.0911 154.326 41.3192 155.497 41.6487L158.299 50.509L161.341 44.0827C163.717 45.3983 165.978 47.0476 167.955 48.9193L162.738 53.7594L172.036 53.7507C172.702 54.7609 173.273 55.8092 173.729 56.8681C174.186 57.927 174.512 58.945 174.707 59.907L164.533 57.8922L174.638 64.3208C175.003 63.7394 176.458 62.5689 176.05 63.1725C176.018 63.2162 174.258 65.5897 174.226 65.6334C173.741 66.2879 173.143 66.8602 172.43 67.3353L174.533 64.4992L170.347 65.8964L168.244 68.7325C167.269 68.8414 166.2 68.842 165.052 68.7168C163.912 68.598 162.732 68.3699 161.562 68.0404Z" fill="#166FED"/>
<path d="M167.146 65.8745C166.006 65.7557 164.826 65.5276 163.656 65.1981C161.686 64.6492 159.714 63.816 157.819 62.7704C155.444 61.4548 153.182 59.8055 151.206 57.9338C149.633 56.4368 148.249 54.8095 147.125 53.1024C146.459 52.0922 145.888 51.0439 145.432 49.985C144.975 48.926 144.648 47.9081 144.454 46.9461C144.124 45.3205 144.162 43.8289 144.525 42.5473C144.977 40.9281 145.946 39.6041 147.36 38.6863C148.483 37.9458 149.892 37.4676 151.547 37.2892C152.522 37.1803 153.59 37.1797 154.739 37.3048C155.879 37.4237 157.058 37.6518 158.229 37.9813C160.198 38.5301 162.17 39.3634 164.065 40.409C166.441 41.7246 168.702 43.3739 170.679 45.2456C172.252 46.7426 173.635 48.3699 174.759 50.077C175.425 51.0872 175.996 52.1355 176.453 53.1944C176.909 54.2533 177.236 55.2713 177.431 56.2333C177.761 57.8589 177.723 59.3505 177.36 60.6321C176.907 62.2513 175.939 63.5753 174.524 64.493C173.401 65.2336 171.992 65.7117 170.338 65.8902C169.363 65.9991 168.294 65.9997 167.146 65.8745Z" fill="#D6D4D0"/>
<path d="M177.141 60.2435C177.49 58.9793 177.526 57.5265 177.209 55.9374C177.017 54.9904 176.701 53.9938 176.256 52.9563C175.81 51.9188 175.243 50.9005 174.594 49.9029C173.499 48.2299 172.144 46.6366 170.598 45.1735C168.674 43.3398 166.456 41.7221 164.124 40.4381C162.263 39.4177 160.333 38.601 158.411 38.06C157.264 37.7344 156.124 37.5078 155.001 37.4016C153.885 37.2867 152.831 37.2849 151.871 37.3914C150.256 37.5713 148.884 38.0359 147.78 38.7503C146.402 39.6546 145.46 40.9437 145.002 42.5328C144.653 43.7969 144.617 45.2497 144.934 46.8388C145.126 47.7858 145.442 48.7824 145.888 49.8199C146.333 50.8575 146.9 51.8758 147.549 52.8733C148.644 54.5463 150 56.1397 151.545 57.6027C153.469 59.4364 155.687 61.0541 158.02 62.3381C159.88 63.3585 161.811 64.1752 163.732 64.7162C164.879 65.0418 166.02 65.2684 167.142 65.3746C168.265 65.4808 169.312 65.4914 170.272 65.3848C171.887 65.2049 173.259 64.7403 174.363 64.0259C175.741 63.1217 176.69 61.8238 177.141 60.2435Z" fill="#EEEEEE"/>
<path d="M163.671 65.1956L160.868 56.3353L157.826 62.7616C155.45 61.446 153.189 59.7967 151.212 57.925L156.43 53.0849L147.132 53.0936C146.466 52.0834 145.894 51.0351 145.438 49.9762C144.982 48.9173 144.655 47.8993 144.46 46.9373L154.634 48.9522L144.531 42.5385C144.984 40.9193 145.952 39.5953 147.367 38.6775L156.534 46.3715L151.544 37.2741C152.52 37.1652 153.588 37.1646 154.737 37.2897C155.877 37.4086 157.056 37.6367 158.227 37.9662L161.029 46.8265L164.063 40.3939C166.438 41.7095 168.7 43.3588 170.676 45.2305L165.459 50.0706L174.757 50.0619C175.423 51.072 175.994 52.1204 176.451 53.1793C176.907 54.2382 177.234 55.2562 177.428 56.2182L167.255 54.2033L177.366 60.6233C176.914 62.2425 175.945 63.5665 174.531 64.4843L165.363 56.7903L170.359 65.879C169.384 65.9879 168.316 65.9885 167.167 65.8633C166.027 65.7445 164.848 65.5164 163.677 65.1869L163.671 65.1956Z" fill="#127FF9"/>
<path d="M151.895 37.3954C152.855 37.2889 153.893 37.2931 155.025 37.4056C156.087 37.5215 157.162 37.7276 158.251 38.024L158.235 37.9725C157.065 37.643 155.901 37.4125 154.745 37.2961C153.605 37.1772 152.537 37.1778 151.553 37.2804L151.629 37.43C151.72 37.4156 151.804 37.4098 151.895 37.3954Z" fill="#127FF9"/>
<path d="M145.026 42.5367C145.456 41.0214 146.335 39.7807 147.614 38.8846L147.367 38.6776C145.961 39.6017 144.992 40.9257 144.531 42.5386L144.958 42.8094C144.983 42.7206 145 42.6255 145.026 42.5367Z" fill="#127FF9"/>
<path d="M170.607 45.18C170.607 45.18 170.65 45.2116 170.67 45.2392C169.931 44.5255 169.144 43.8578 168.323 43.2186C169.118 43.8388 169.881 44.5026 170.607 45.18Z" fill="#127FF9"/>
<path d="M176.264 52.9626C176.71 54.0002 177.032 54.9881 177.218 55.9438C177.231 56.034 177.251 56.1156 177.264 56.2059L177.431 56.2333C177.236 55.2712 176.916 54.2445 176.453 53.1944C175.99 52.1442 175.419 51.0958 174.759 50.0769L174.705 50.0778C175.315 51.02 175.843 51.9829 176.264 52.9626Z" fill="#127FF9"/>
<path d="M164.141 40.4508C165.31 41.0884 166.439 41.8173 167.522 42.6071C166.413 41.7983 165.258 41.0505 164.063 40.3939C164.063 40.3939 164.106 40.4255 164.132 40.4445L164.141 40.4508Z" fill="#127FF9"/>
<path d="M167.157 65.3723C166.041 65.2574 164.892 65.0245 163.747 64.7139C163.659 64.6896 163.57 64.6652 163.488 64.6321L163.662 65.1894C164.833 65.5189 165.997 65.7494 167.152 65.8658C168.292 65.9847 169.36 65.9841 170.344 65.8815L170.082 65.4075C169.18 65.4894 168.204 65.4906 167.157 65.3723Z" fill="#127FF9"/>
<path d="M177.36 60.632L177.087 60.4599C176.623 61.95 175.694 63.1678 174.378 64.0236C174.3 64.0744 174.223 64.1253 174.136 64.1698L174.524 64.493C175.93 63.5689 176.898 62.2449 177.36 60.632Z" fill="#127FF9"/>
<path d="M151.56 57.6004L151.212 57.925C153.189 59.7967 155.444 61.4547 157.826 62.7616L158.026 62.3295C155.694 61.0455 153.491 59.4254 151.56 57.6004Z" fill="#127FF9"/>
<path d="M147.572 52.8773C146.917 51.8885 146.357 50.8615 145.911 49.824C145.492 48.8592 145.194 47.9291 145.003 47.0511L144.469 46.9436C144.664 47.9056 144.984 48.9324 145.447 49.9825C145.91 51.0327 146.481 52.0811 147.14 53.1L147.729 53.0988C147.679 53.022 147.622 52.954 147.572 52.8773Z" fill="#127FF9"/>
<path d="M165.581 62.2593C159.182 61.5991 151.925 56.2799 149.362 50.3911C146.806 44.4935 149.911 40.2509 156.31 40.9111C162.709 41.5713 169.966 46.8905 172.529 52.7794C175.085 58.6769 171.98 62.9195 165.581 62.2593Z" fill="#166FED"/>
<path d="M165.052 62.0354C159.006 61.4038 152.15 56.3903 149.726 50.8181C147.303 45.2458 150.249 41.2364 156.293 41.853C162.339 42.4846 169.195 47.4981 171.619 53.0703C174.042 58.6426 171.097 62.652 165.052 62.0354Z" fill="#127FF9"/>
<path d="M164.155 59.9691C159.344 59.472 153.883 55.4759 151.965 51.0393C150.042 46.6114 152.386 43.4136 157.191 43.9194C162.002 44.4165 167.463 48.4126 169.38 52.8492C171.303 57.2772 168.959 60.4749 164.155 59.9691Z" fill="#EEEEEE"/>
</g>
<g clip-path="url(#clip2_598_5083)">
<path d="M253.989 53.8847C253.649 54.9705 253.194 56.073 252.639 57.1476C251.712 58.9561 250.503 60.7118 249.1 62.3507C247.335 64.4046 245.263 66.2826 243.026 67.8399C241.239 69.0782 239.36 70.1063 237.452 70.8664C236.323 71.3173 235.175 71.6682 234.039 71.9055C232.903 72.1429 231.832 72.2619 230.843 72.2634C229.171 72.2672 227.704 71.9392 226.507 71.3362C224.994 70.5797 224.588 70.1551 223.957 68.5999C223.444 67.3629 223.246 65.8989 223.392 64.255C223.475 63.2851 223.683 62.2457 224.031 61.1527C224.371 60.067 224.827 58.9644 225.381 57.8899C226.308 56.0814 227.517 54.3256 228.921 52.6867C230.685 50.6328 232.758 48.7548 234.994 47.1975C236.782 45.9592 238.661 44.9312 240.568 44.171C241.697 43.7202 242.845 43.3693 243.982 43.1319C245.118 42.8946 246.188 42.7755 247.178 42.7741C248.849 42.7702 250.317 43.0982 251.513 43.7012C253.026 44.4578 253.432 44.8824 254.063 46.4376C254.577 47.6746 254.774 49.1386 254.628 50.7825C254.545 51.7523 254.337 52.7917 253.989 53.8847Z" fill="#D0CEC9"/>
<path d="M252.647 57.1404L250.253 54.5416L246.713 59.7448L249.108 62.3436C247.343 64.3975 245.271 66.2754 243.034 67.8328L240.64 65.2339L235.066 68.2605L237.46 70.8593C236.331 71.3101 235.183 71.661 234.047 71.8984C232.911 72.1357 231.84 72.2547 230.851 72.2562L228.457 69.6574L224.105 68.7295L226.5 71.3283C225.777 70.9708 225.143 70.5038 224.604 69.9504C224.021 69.3491 222.158 67.2956 222.158 67.2956L223.377 64.2542C223.46 63.2844 223.668 62.245 224.016 61.152C224.356 60.0662 224.811 58.9637 225.366 57.8891L234.674 56.8923L228.913 52.6788C230.678 50.6249 232.75 48.7469 234.987 47.1896L238.755 53.2091L240.561 44.163C241.69 43.7122 242.838 43.3613 243.974 43.124C245.11 42.8866 246.181 42.7676 247.17 42.7661L243.192 52.2693L251.521 43.6941C251.018 43.2263 250.144 41.5823 250.661 42.0964C250.698 42.1364 252.702 44.3115 252.739 44.3514C253.291 44.9512 253.741 45.6444 254.071 46.4304L251.677 43.8316L252.242 48.1765L254.636 50.7753C254.553 51.7452 254.345 52.7846 253.997 53.8776C253.657 54.9633 253.202 56.0659 252.647 57.1404Z" fill="#166FED"/>
<path d="M251.595 51.2858C251.255 52.3716 250.8 53.4741 250.245 54.5487C249.318 56.3572 248.109 58.1129 246.705 59.7519C244.941 61.8058 242.869 63.6837 240.632 65.241C238.845 66.4794 236.965 67.5074 235.058 68.2676C233.929 68.7184 232.781 69.0693 231.645 69.3067C230.508 69.544 229.438 69.663 228.449 69.6645C226.777 69.6683 225.309 69.3404 224.113 68.7374C222.6 67.9808 221.48 66.7806 220.848 65.2253C220.335 63.9884 220.137 62.5243 220.284 60.8805C220.366 59.9106 220.574 58.8712 220.922 57.7782C221.262 56.6925 221.718 55.5899 222.272 54.5154C223.199 52.7068 224.408 50.9511 225.812 49.3122C227.577 47.2583 229.649 45.3803 231.886 43.823C233.673 42.5847 235.552 41.5567 237.46 40.7965C238.589 40.3456 239.737 39.9948 240.873 39.7574C242.009 39.5201 243.079 39.401 244.069 39.3995C245.741 39.3957 247.208 39.7237 248.405 40.3267C249.918 41.0832 251.038 42.2835 251.669 43.8387C252.182 45.0757 252.38 46.5397 252.234 48.1836C252.151 49.1535 251.943 50.1929 251.595 51.2858Z" fill="#D6D4D0"/>
<path d="M247.978 40.4643C246.796 39.8773 245.366 39.5589 243.733 39.5571C242.759 39.5594 241.712 39.6721 240.599 39.903C239.486 40.134 238.368 40.4865 237.255 40.9229C235.387 41.6623 233.547 42.6696 231.799 43.8871C229.61 45.4012 227.577 47.2432 225.852 49.2611C224.48 50.8713 223.296 52.5902 222.386 54.354C221.84 55.4061 221.393 56.4711 221.069 57.5425C220.738 58.6059 220.53 59.6301 220.448 60.5848C220.311 62.1911 220.503 63.6167 220.994 64.8297C221.619 66.3465 222.71 67.5148 224.192 68.2697C225.374 68.8567 226.803 69.1751 228.437 69.1769C229.41 69.1746 230.458 69.062 231.571 68.831C232.684 68.6001 233.801 68.2476 234.914 67.8111C236.782 67.0717 238.623 66.0645 240.371 64.8469C242.56 63.3328 244.592 61.4908 246.317 59.4729C247.689 57.8627 248.874 56.1438 249.784 54.3801C250.33 53.3279 250.776 52.2629 251.1 51.1915C251.425 50.1202 251.639 49.1039 251.721 48.1493C251.859 46.543 251.667 45.1173 251.176 43.9043C250.551 42.3875 249.453 41.2112 247.978 40.4643Z" fill="#EEEEEE"/>
<path d="M250.246 54.5336L240.937 55.5304L246.698 59.7439C244.934 61.7978 242.861 63.6758 240.625 65.2331L236.857 59.2136L235.051 68.2596C233.922 68.7105 232.774 69.0614 231.637 69.2987C230.501 69.5361 229.431 69.6551 228.441 69.6566L232.42 60.1534L224.105 68.7294C222.593 67.9729 221.472 66.7726 220.841 65.2174L230.238 57.8017L220.268 60.8797C220.351 59.9099 220.559 58.8705 220.907 57.7775C221.247 56.6917 221.703 55.5892 222.257 54.5146L231.566 53.5177L225.797 49.3114C227.561 47.2576 229.634 45.3796 231.87 43.8223L235.638 49.8418L237.444 40.7957C238.573 40.3449 239.721 39.994 240.858 39.7567C241.994 39.5193 243.064 39.4003 244.053 39.3988L240.075 48.902L248.397 40.3188C249.91 41.0753 251.03 42.2756 251.662 43.8308L242.264 51.2465L252.227 48.1605C252.144 49.1303 251.937 50.1697 251.589 51.2627C251.248 52.3485 250.793 53.451 250.238 54.5256L250.246 54.5336Z" fill="#127FF9"/>
<path d="M220.457 60.5623C220.539 59.6076 220.746 58.5986 221.078 57.52C221.4 56.5094 221.813 55.5036 222.319 54.5026L222.265 54.5074C221.711 55.5819 221.255 56.6693 220.915 57.7703C220.575 58.856 220.367 59.8954 220.276 60.8725L220.439 60.8277C220.443 60.7366 220.453 60.6534 220.457 60.5623Z" fill="#127FF9"/>
<path d="M224.2 68.2473C222.786 67.534 221.73 66.4361 221.094 65.0176L220.841 65.2174C221.48 66.7654 222.601 67.9657 224.105 68.7295L224.457 68.3673C224.374 68.3249 224.283 68.2897 224.2 68.2473Z" fill="#127FF9"/>
<path d="M231.807 43.8799C231.807 43.8799 231.846 43.8439 231.878 43.8303C231.028 44.4099 230.214 45.0447 229.421 45.7186C230.19 45.0663 230.995 44.4539 231.807 43.8799Z" fill="#127FF9"/>
<path d="M240.607 39.8958C241.72 39.6648 242.76 39.5442 243.741 39.5499C243.833 39.5547 243.917 39.5515 244.009 39.5563L244.069 39.3996C243.079 39.4011 242.002 39.5121 240.873 39.7575C239.744 40.0028 238.596 40.3537 237.46 40.7965L237.45 40.8493C238.501 40.44 239.556 40.1147 240.607 39.8958Z" fill="#127FF9"/>
<path d="M225.868 49.2467C226.727 48.2338 227.668 47.2784 228.66 46.379C227.644 47.3 226.679 48.2769 225.797 49.3115C225.797 49.3115 225.836 49.2755 225.86 49.2539L225.868 49.2467Z" fill="#127FF9"/>
<path d="M251.101 51.1763C250.769 52.2396 250.315 53.3118 249.784 54.3648C249.743 54.4463 249.702 54.5279 249.653 54.6014L250.238 54.5407C250.792 53.4662 251.247 52.3788 251.588 51.2779C251.928 50.1921 252.136 49.1527 252.226 48.1756L251.707 48.3387C251.611 49.2318 251.422 50.1808 251.101 51.1763Z" fill="#127FF9"/>
<path d="M248.405 40.3267L248.181 40.5586C249.564 41.3007 250.587 42.4426 251.177 43.8891C251.212 43.9746 251.247 44.0602 251.274 44.1529L251.669 43.8387C251.03 42.2907 249.91 41.0905 248.405 40.3267Z" fill="#127FF9"/>
<path d="M240.371 64.8317L240.625 65.2331C242.861 63.6758 244.941 61.8059 246.698 59.744L246.31 59.4649C244.585 61.4828 242.553 63.3096 240.371 64.8317Z" fill="#127FF9"/>
<path d="M234.923 67.7887C233.817 68.2331 232.692 68.5776 231.579 68.8086C230.543 69.0283 229.565 69.137 228.66 69.1505L228.449 69.6494C229.439 69.6479 230.516 69.5368 231.645 69.2915C232.774 69.0462 233.922 68.6953 235.059 68.2524L235.172 67.68C235.087 67.7135 235.008 67.7551 234.923 67.7887Z" fill="#127FF9"/>
<path d="M247.715 52.1026C245.813 58.1983 239.137 64.2191 232.814 65.5625C226.483 66.8979 222.894 63.0492 224.795 56.9535C226.697 50.8579 233.373 44.8371 239.697 43.4937C246.027 42.1583 249.617 46.007 247.715 52.1026Z" fill="#166FED"/>
<path d="M247.39 52.5728C245.586 58.331 239.29 64.0216 233.307 65.2915C227.324 66.5614 223.934 62.9134 225.723 57.1544C227.528 51.3961 233.824 45.7055 239.807 44.4356C245.79 43.1658 249.18 46.8137 247.39 52.5728Z" fill="#127FF9"/>
<path d="M245.172 53.0427C243.741 57.6256 238.724 62.1578 233.963 63.1568C229.208 64.1637 226.504 61.2594 227.942 56.6845C229.372 52.1015 234.39 47.5693 239.151 46.5704C243.905 45.5634 246.61 48.4677 245.172 53.0427Z" fill="#EEEEEE"/>
</g>
<g clip-path="url(#clip3_598_5083)">
<path d="M123.107 63.5103C122.044 66.905 120.619 70.3522 118.886 73.7118C115.987 79.3662 112.208 84.8555 107.819 89.9798C102.302 96.4014 95.8227 102.273 88.83 107.142C83.2414 111.014 77.366 114.228 71.4023 116.605C67.8727 118.014 64.2829 119.111 60.7305 119.853C57.1781 120.595 53.8315 120.967 50.7384 120.972C45.5113 120.984 40.9228 119.959 37.1818 118.073C32.452 115.708 31.1834 114.38 29.2091 109.518C27.6049 105.65 26.9864 101.073 27.4441 95.9335C27.7024 92.9012 28.3525 89.6514 29.4404 86.2342C30.5036 82.8395 31.9283 79.3923 33.6615 76.0327C36.5601 70.3783 40.3396 64.8889 44.7287 59.7647C50.2456 53.3431 56.7248 47.4716 63.7176 42.6026C69.3061 38.7309 75.1816 35.5167 81.1452 33.1399C84.6749 31.7304 88.2647 30.6333 91.8171 29.8912C95.3695 29.1491 98.7161 28.777 101.809 28.7723C107.036 28.7604 111.625 29.7858 115.366 31.6711C120.096 34.0365 121.364 35.364 123.338 40.2265C124.943 44.094 125.561 48.6713 125.103 53.811C124.845 56.8433 124.195 60.0931 123.107 63.5103Z" fill="#D0CEC9"/>
<path d="M118.911 73.6893L111.425 65.564L100.358 81.832L107.844 89.9573C102.327 96.3789 95.8475 102.25 88.8547 107.119L81.3693 98.9941L63.9416 108.457L71.4271 116.582C67.8974 117.992 64.3076 119.089 60.7552 119.831C57.2028 120.573 53.8562 120.945 50.7632 120.95L43.2778 112.824L29.6733 109.923L37.1587 118.048C34.8992 116.931 32.9164 115.471 31.2315 113.74C29.4083 111.86 23.5848 105.44 23.5848 105.44L27.3961 95.931C27.6544 92.8987 28.3045 89.6489 29.3925 86.2317C30.4556 82.837 31.8804 79.3898 33.6135 76.0302L62.7175 72.9134L44.7056 59.7397C50.2225 53.3181 56.7017 47.4466 63.6945 42.5776L75.4755 61.3979L81.1221 33.1149C84.6518 31.7054 88.2415 30.6083 91.7939 29.8662C95.3463 29.1242 98.693 28.752 101.786 28.7474L89.3483 58.4595L115.391 31.6486C113.815 30.1861 111.084 25.046 112.702 26.6536C112.817 26.7786 119.082 33.5789 119.197 33.7039C120.924 35.579 122.329 37.7466 123.363 40.2041L115.878 32.0787L117.643 45.6632L125.128 53.7885C124.87 56.8209 124.22 60.0706 123.132 63.4878C122.069 66.8825 120.644 70.3297 118.911 73.6893Z" fill="#166FED"/>
<path d="M115.622 55.3849C114.559 58.7796 113.134 62.2267 111.401 65.5864C108.502 71.2408 104.723 76.7301 100.333 81.8544C94.8165 88.2759 88.3373 94.1475 81.3446 99.0165C75.756 102.888 69.8806 106.102 63.9169 108.479C60.3873 109.889 56.7975 110.986 53.2451 111.728C49.6927 112.47 46.3461 112.842 43.253 112.847C38.0259 112.859 33.4374 111.833 29.6964 109.948C24.9666 107.583 21.4639 103.83 19.4896 98.9674C17.8853 95.0999 17.2669 90.5226 17.7246 85.3829C17.9828 82.3506 18.6329 79.1009 19.7209 75.6836C20.7841 72.2889 22.2088 68.8418 23.942 65.4821C26.8406 59.8277 30.6201 54.3384 35.0092 49.2141C40.5261 42.7926 47.0053 36.921 53.9981 32.052C59.5866 28.1803 65.462 24.9661 71.4257 22.5894C74.9554 21.1798 78.5451 20.0828 82.0975 19.3407C85.6499 18.5986 88.9966 18.2265 92.0896 18.2218C97.3167 18.2098 101.905 19.2353 105.646 21.1206C110.376 23.486 113.879 27.2386 115.853 32.1011C117.457 35.9686 118.076 40.5459 117.618 45.6856C117.36 48.7179 116.71 51.9676 115.622 55.3849Z" fill="#D6D4D0"/>
<path d="M104.311 21.5506C100.616 19.7153 96.1465 18.7199 91.04 18.7143C87.9948 18.7215 84.7209 19.0736 81.2411 19.7957C77.7614 20.5178 74.2674 21.6199 70.7874 22.9844C64.946 25.2962 59.1929 28.4454 53.7267 32.2522C46.8829 36.9862 40.5278 42.7452 35.135 49.0543C30.8452 54.0886 27.142 59.4629 24.2966 64.9773C22.5901 68.267 21.1937 71.5967 20.1802 74.9464C19.1437 78.2711 18.4954 81.4734 18.2389 84.4582C17.8096 89.4804 18.4086 93.9377 19.9438 97.7302C21.8986 102.473 25.3092 106.125 29.9433 108.486C33.6382 110.321 38.108 111.316 43.2146 111.322C46.2597 111.315 49.5337 110.963 53.0134 110.241C56.4931 109.518 59.9872 108.416 63.4672 107.052C69.3085 104.74 75.0616 101.591 80.5278 97.7841C87.3717 93.0501 93.7267 87.291 99.1196 80.9819C103.409 75.9477 107.113 70.5733 109.958 65.0589C111.664 61.7693 113.061 58.4396 114.074 55.0899C115.088 51.7401 115.759 48.5629 116.016 45.5781C116.445 40.5559 115.846 36.0985 114.311 32.3061C112.356 27.5636 108.922 23.8859 104.311 21.5506Z" fill="#EEEEEE"/>
<path d="M111.402 65.539L82.2985 68.6557L100.31 81.8295C94.7935 88.251 88.3143 94.1226 81.3215 98.9916L69.5405 80.1713L63.8939 108.454C60.3642 109.864 56.7745 110.961 53.2221 111.703C49.6696 112.445 46.323 112.817 43.23 112.822L55.6677 83.1097L29.6734 109.923C24.9435 107.558 21.4409 103.805 19.4666 98.9425L48.8484 75.7568L17.6767 85.3805C17.935 82.3482 18.5851 79.0984 19.6731 75.6812C20.7362 72.2865 22.161 68.8394 23.8941 65.4797L52.9981 62.363L34.9613 49.2117C40.4783 42.7901 46.9574 36.9186 53.9502 32.0496L65.7312 50.8699L71.3779 22.587C74.9075 21.1774 78.4973 20.0803 82.0497 19.3383C85.6021 18.5962 88.9487 18.2241 92.0417 18.2194L79.6041 47.9315L105.623 21.0957C110.353 23.4611 113.856 27.2137 115.83 32.0762L86.4482 55.2619L117.597 45.6132C117.339 48.6455 116.688 51.8952 115.6 55.3125C114.537 58.7072 113.113 62.1543 111.379 65.514L111.402 65.539Z" fill="#127FF9"/>
<path d="M18.2655 84.3882C18.522 81.4034 19.1685 78.2486 20.2068 74.8764C21.2132 71.7167 22.5066 68.572 24.0872 65.4423L23.9188 65.4573C22.1857 68.817 20.7627 72.2166 19.6978 75.6588C18.6346 79.0535 17.9845 82.3033 17.7014 85.3581L18.2102 85.2182C18.221 84.9332 18.2547 84.6732 18.2655 84.3882Z" fill="#127FF9"/>
<path d="M29.9699 108.416C25.5467 106.185 22.2477 102.753 20.2573 98.3176L19.4665 98.9425C21.4656 103.782 24.9683 107.535 29.6733 109.923L30.7709 108.791C30.5122 108.658 30.2286 108.548 29.9699 108.416Z" fill="#127FF9"/>
<path d="M53.7515 32.2296C53.7515 32.2296 53.8756 32.1171 53.9731 32.0746C51.3154 33.8868 48.771 35.8714 46.294 37.9785C48.6966 35.9389 51.2143 34.0242 53.7515 32.2296Z" fill="#127FF9"/>
<path d="M81.266 19.7731C84.7457 19.0511 87.9966 18.6739 91.0648 18.6917C91.3519 18.7068 91.616 18.6968 91.9032 18.7118L92.0895 18.2219C88.9965 18.2265 85.6268 18.5737 82.0974 19.3408C78.5681 20.1078 74.9783 21.2049 71.4256 22.5895L71.3954 22.7544C74.6804 21.4749 77.9795 20.4578 81.266 19.7731Z" fill="#127FF9"/>
<path d="M35.1846 49.0093C37.8695 45.8422 40.8114 42.8552 43.9144 40.0432C40.7369 42.9227 37.7206 45.9772 34.9612 49.2117C34.9612 49.2117 35.0853 49.0993 35.1598 49.0318L35.1846 49.0093Z" fill="#127FF9"/>
<path d="M114.076 55.0424C113.04 58.3671 111.618 61.7192 109.96 65.0114C109.83 65.2664 109.701 65.5213 109.548 65.7513L111.378 65.5615C113.111 62.2019 114.534 58.8022 115.599 55.36C116.662 51.9653 117.312 48.7155 117.595 45.6607L115.969 46.1705C115.672 48.9628 115.081 51.9301 114.076 55.0424Z" fill="#127FF9"/>
<path d="M105.646 21.1207L104.947 21.8456C109.271 24.1659 112.469 27.7361 114.313 32.2586C114.422 32.5261 114.532 32.7936 114.617 33.0836L115.853 32.1012C113.854 27.2613 110.351 23.5086 105.646 21.1207Z" fill="#127FF9"/>
<path d="M80.5297 97.7365L81.3214 98.9916C88.3142 94.1225 94.8164 88.276 100.31 81.8295L99.0965 80.9569C93.7037 87.266 87.3505 92.9775 80.5297 97.7365Z" fill="#127FF9"/>
<path d="M63.4938 106.982C60.0369 108.371 56.5198 109.448 53.04 110.17C49.8014 110.858 46.7437 111.197 43.913 111.239L43.2547 112.799C46.3477 112.795 49.7174 112.448 53.2468 111.68C56.7762 110.913 60.3659 109.816 63.9186 108.432L64.2739 106.642C64.0062 106.747 63.7615 106.877 63.4938 106.982Z" fill="#127FF9"/>
<path d="M103.49 57.9386C97.5437 76.9969 76.6699 95.8213 56.8995 100.021C37.106 104.197 25.884 92.1636 31.8298 73.1052C37.7757 54.0468 58.6495 35.2225 78.4199 31.0223C98.2134 26.8471 109.435 38.8802 103.49 57.9386Z" fill="#166FED"/>
<path d="M102.475 59.4084C96.8328 77.4118 77.1488 95.2038 58.4419 99.1741C39.735 103.144 29.1367 91.7389 34.7312 73.7329C40.3735 55.7295 60.0575 37.9375 78.7643 33.9672C97.4712 29.9969 108.07 41.4024 102.475 59.4084Z" fill="#127FF9"/>
<path d="M95.5387 60.8775C91.066 75.2063 75.3787 89.3764 60.4919 92.4997C45.6282 95.6479 37.1718 86.5675 41.6676 72.2637C46.1403 57.935 61.8275 43.7648 76.7143 40.6416C91.578 37.4933 100.034 46.5738 95.5387 60.8775Z" fill="#EEEEEE"/>
</g>
<path d="M107.926 139.736C108.53 137.942 109.495 136.142 110.579 134.465C117.692 124.054 132.037 121.302 142.644 128.366C153.133 135.43 155.905 149.676 148.792 160.21C143.971 167.274 135.893 170.862 127.938 170.268L123.84 176.256C134.566 178.174 145.777 173.862 152.286 164.404C160.963 151.593 157.593 134.118 144.694 125.496C131.794 116.873 114.198 120.225 105.515 133.036C104.55 134.471 103.709 136.03 102.986 137.583L107.926 139.736Z" fill="#00092A"/>
<path d="M214.487 129.083H205.206C204.602 129.083 203.879 129.683 203.761 130.283L201.107 140.218C200.628 141.417 199.058 145.005 195.682 145.005H182.06C178.927 145.005 178.803 142.611 178.927 141.535L181.942 130.283C182.185 129.565 181.823 129.083 181.101 129.083H171.82C171.216 129.083 170.493 129.683 170.375 130.283L161.212 164.28C160.97 164.998 161.331 165.48 162.054 165.48H171.334C171.938 165.48 172.661 164.88 172.779 164.28L175.794 153.028C176.398 151.593 177.962 148.482 181.101 148.482H194.723C198.099 148.482 197.98 151.234 197.856 152.075L194.598 164.286C194.356 165.004 194.717 165.486 195.439 165.486H204.72C205.324 165.486 206.047 164.886 206.165 164.286L215.328 130.289C215.446 129.571 215.085 129.089 214.487 129.089V129.083Z" fill="#00092A"/>
<path d="M131.072 163.798C121.068 163.798 112.99 156.016 112.99 146.44C112.99 136.865 121.068 129.083 131.072 129.083C134.809 129.083 138.303 130.159 141.199 132.077C137.942 129.565 133.843 128.007 129.384 128.007C118.776 128.007 110.218 136.624 110.218 147.399C110.218 158.175 118.776 166.55 129.384 166.55C137.699 166.55 144.936 161.163 147.465 153.622C144.694 159.61 138.427 163.798 131.072 163.798Z" fill="#166FEF"/>
<path d="M218.585 141.176C218.585 141.176 220.391 128.965 227.747 128.965H260.653C260.653 128.965 266.558 129.083 265.474 133.512C264.029 139.017 263.425 145.482 257.52 147.399C249.442 150.034 232.325 152.069 232.325 152.069C232.325 152.069 224.01 152.546 223.885 154.822C223.767 156.257 225.33 156.74 227.018 156.857C228.345 156.975 255.826 156.857 257.875 156.857L255.346 165.356H215.931C215.931 165.356 212.076 165.598 213.639 159.251C214.605 155.422 216.168 149.675 216.168 149.675C216.168 149.675 216.891 146.082 222.92 145.364C229.068 144.646 245.462 142.129 245.462 142.129C245.462 142.129 250.525 142.011 252.693 139.135C254.861 136.265 253.416 135.665 251.728 135.665C250.158 135.782 234.611 135.665 234.611 135.665C234.611 135.665 232.444 135.782 231.597 137.459C230.756 139.135 230.513 140.929 230.513 140.929L218.579 141.17L218.585 141.176Z" fill="#00092A"/>
<path d="M153.204 203.718L149.698 210H139.505L160.382 173.491H175.283L176.61 210H166.613L166.393 203.718H153.21H153.204ZM166.056 180.791H165.955L157.225 196.613H166.34L166.05 180.791H166.056Z" fill="#127FF9"/>
<path d="M178.599 207.488L186.577 177.92H201.544C208.929 177.92 210.866 181.038 208.781 188.76C206.537 197.077 203.907 199.918 195.609 199.918H188.585L186.542 207.488H178.599ZM195.87 193.06C199.039 192.942 199.572 192.59 200.602 188.76C201.419 185.725 201.2 184.778 198.103 184.778H192.666L190.433 193.06H195.87Z" fill="#127FF9"/>
<path d="M206.016 207.488L213.994 177.92H228.96C236.346 177.92 238.282 181.038 236.198 188.76C233.953 197.077 231.323 199.918 223.026 199.918H216.001L213.958 207.488H206.016ZM223.286 193.06C226.455 192.942 226.988 192.59 228.019 188.76C228.836 185.725 228.617 184.778 225.519 184.778H220.082L217.849 193.06H223.286Z" fill="#127FF9"/>
<g clip-path="url(#clip4_598_5083)">
<path d="M308.963 188.578C305.611 187.32 302.228 185.701 298.952 183.781C293.437 180.569 288.141 176.495 283.25 171.84C277.121 165.989 271.604 159.219 267.127 152.002C263.569 146.235 260.69 140.223 258.659 134.176C257.455 130.596 256.568 126.976 256.036 123.414C255.504 119.852 255.333 116.516 255.515 113.454C255.82 108.279 257.13 103.798 259.253 100.209C261.92 95.6694 263.333 94.4939 268.346 92.8338C272.336 91.4798 276.98 91.1447 282.125 91.909C285.161 92.3484 288.392 93.1887 291.765 94.4727C295.117 95.7308 298.5 97.35 301.777 99.2693C307.292 102.481 312.587 106.555 317.479 111.211C323.607 117.061 329.124 123.831 333.601 131.049C337.159 136.816 340.038 142.827 342.069 148.875C343.274 152.455 344.16 156.075 344.692 159.637C345.224 163.199 345.396 166.534 345.213 169.597C344.909 174.772 343.599 179.253 341.475 182.842C338.808 187.381 337.395 188.557 332.382 190.217C328.393 191.571 323.748 191.906 318.604 191.142C315.567 190.702 312.336 189.862 308.963 188.578Z" fill="#D0CEC9"/>
<path d="M298.973 183.807L307.604 176.889L291.901 164.947L283.271 171.866C277.142 166.015 271.625 159.245 267.149 152.028L275.779 145.109L267.311 127.283L258.681 134.201C257.476 130.622 256.589 127.001 256.057 123.44C255.526 119.878 255.354 116.542 255.536 113.48L264.167 106.561L267.911 93.2688L259.28 100.187C260.542 98.0181 262.131 96.1436 263.974 94.5803C265.977 92.8892 272.791 87.5128 272.791 87.5128L282.13 91.8617C285.166 92.301 288.397 93.1414 291.771 94.4254C295.123 95.6835 298.506 97.3027 301.782 99.222L303.156 128.223L317.505 111.189C323.634 117.04 329.151 123.81 333.627 131.027L313.973 141.551L342.095 148.854C343.3 152.433 344.187 156.054 344.719 159.615C345.25 163.177 345.422 166.513 345.24 169.575L316.09 155.463L341.496 182.868C343.063 181.397 348.402 179.005 346.686 180.509C346.553 180.615 339.33 186.405 339.197 186.512C337.205 188.108 334.939 189.368 332.403 190.243L341.034 183.324L327.255 184.249L318.625 191.167C315.589 190.728 312.357 189.888 308.984 188.604C305.632 187.346 302.249 185.726 298.973 183.807Z" fill="#166FED"/>
<path d="M317.594 181.659C314.242 180.401 310.859 178.782 307.582 176.863C302.067 173.651 296.772 169.577 291.88 164.921C285.752 159.071 280.235 152.301 275.758 145.083C272.2 139.316 269.321 133.305 267.29 127.257C266.085 123.677 265.199 120.057 264.667 116.495C264.135 112.934 263.963 109.598 264.146 106.536C264.45 101.36 265.76 96.8795 267.884 93.2901C270.551 88.7509 274.54 85.5105 279.553 83.8504C283.542 82.4964 288.187 82.1613 293.331 82.9256C296.368 83.365 299.599 84.2053 302.972 85.4893C306.324 86.7474 309.707 88.3666 312.983 90.2859C318.498 93.4979 323.794 97.5719 328.685 102.227C334.814 108.078 340.331 114.848 344.808 122.065C348.366 127.832 351.245 133.844 353.276 139.892C354.48 143.471 355.367 147.092 355.899 150.653C356.431 154.215 356.602 157.551 356.42 160.613C356.115 165.789 354.806 170.269 352.682 173.859C350.015 178.398 346.026 181.638 341.013 183.298C337.023 184.652 332.379 184.987 327.234 184.223C324.198 183.784 320.967 182.943 317.594 181.659Z" fill="#D6D4D0"/>
<path d="M352.33 172.511C354.401 168.964 355.673 164.599 355.988 159.544C356.165 156.529 356.009 153.267 355.493 149.778C354.977 146.289 354.079 142.764 352.917 139.236C350.944 133.313 348.123 127.427 344.623 121.785C340.273 114.723 334.862 108.083 328.839 102.362C324.032 97.81 318.847 93.8184 313.47 90.6676C310.263 88.7789 306.996 87.1949 303.686 85.9887C300.403 84.7613 297.219 83.9255 294.231 83.4909C289.203 82.7618 284.681 83.0849 280.771 84.3751C275.88 86.0232 271.997 89.1784 269.341 93.6232C267.27 97.17 265.998 101.535 265.683 106.59C265.506 109.605 265.662 112.868 266.178 116.356C266.694 119.845 267.591 123.371 268.754 126.898C270.727 132.821 273.548 138.707 277.048 144.349C281.398 151.411 286.809 158.052 292.832 163.772C297.639 168.324 302.823 172.316 308.201 175.467C311.408 177.355 314.675 178.939 317.984 180.145C321.294 181.352 324.451 182.209 327.44 182.643C332.468 183.372 336.99 183.049 340.9 181.759C345.791 180.111 349.7 176.934 352.33 172.511Z" fill="#EEEEEE"/>
<path d="M307.63 176.868L306.256 147.866L291.907 164.9C285.778 159.05 280.262 152.28 275.785 145.062L295.439 134.539L267.317 127.236C266.112 123.656 265.225 120.036 264.693 116.474C264.162 112.912 263.99 109.577 264.172 106.514L293.322 120.627L267.911 93.2689C270.578 88.7297 274.566 85.4893 279.58 83.8292L301.135 114.321L293.337 82.8785C296.373 83.3178 299.604 84.1581 302.977 85.4422C306.33 86.7002 309.713 88.3195 312.989 90.2387L314.363 119.24L328.691 102.18C334.819 108.031 340.336 114.801 344.813 122.018L325.159 132.542L353.281 139.844C354.486 143.424 355.373 147.044 355.904 150.606C356.436 154.168 356.608 157.504 356.425 160.566L327.276 146.454L352.708 173.837C350.041 178.377 346.052 181.617 341.039 183.277L319.484 152.785L327.309 184.206C324.272 183.767 321.041 182.927 317.668 181.643C314.316 180.385 310.933 178.765 307.657 176.846L307.63 176.868Z" fill="#127FF9"/>
<path d="M294.3 83.5214C297.288 83.9561 300.424 84.7871 303.755 86.0193C306.874 87.2069 309.961 88.6778 313.015 90.4321L313.01 90.2645C309.734 88.3453 306.398 86.7307 302.998 85.468C299.646 84.2099 296.415 83.3695 293.358 82.9043L293.468 83.4164C293.754 83.4443 294.014 83.4935 294.3 83.5214Z" fill="#127FF9"/>
<path d="M269.41 93.6537C271.922 89.4098 275.577 86.3517 280.161 84.6498L279.58 83.829C274.587 85.5151 270.599 88.7554 267.911 93.2688L268.984 94.424C269.133 94.1759 269.261 93.9018 269.41 93.6537Z" fill="#127FF9"/>
<path d="M344.644 121.811C344.644 121.811 344.749 121.94 344.786 122.039C343.124 119.299 341.28 116.659 339.31 114.08C341.217 116.582 342.991 119.19 344.644 121.811Z" fill="#127FF9"/>
<path d="M355.514 149.804C356.03 153.292 356.213 156.534 356.009 159.57C355.976 159.853 355.97 160.116 355.938 160.399L356.42 160.613C356.602 157.551 356.457 154.194 355.899 150.653C355.34 147.113 354.454 143.492 353.275 139.891L353.111 139.852C354.2 143.181 355.024 146.509 355.514 149.804Z" fill="#127FF9"/>
<path d="M328.881 102.413C331.906 105.263 334.734 108.357 337.376 111.599C334.67 108.279 331.779 105.108 328.691 102.18C328.691 102.18 328.796 102.31 328.86 102.388L328.881 102.413Z" fill="#127FF9"/>
<path d="M318.032 180.15C314.749 178.923 311.461 177.313 308.248 175.471C308 175.328 307.751 175.184 307.529 175.019L307.609 176.841C310.885 178.761 314.22 180.375 317.62 181.638C320.972 182.896 324.204 183.736 327.261 184.202L326.846 182.561C324.054 182.098 321.103 181.333 318.032 180.15Z" fill="#127FF9"/>
<path d="M352.682 173.858L351.994 173.123C349.397 177.263 345.611 180.213 340.948 181.764C340.672 181.856 340.396 181.949 340.099 182.015L341.013 183.298C346.005 181.612 349.993 178.372 352.682 173.858Z" fill="#127FF9"/>
<path d="M277.096 144.354L275.785 145.062C280.261 152.279 285.752 159.071 291.907 164.9L292.859 163.751C286.836 158.03 281.472 151.395 277.096 144.354Z" fill="#127FF9"/>
<path d="M268.823 126.929C267.634 123.422 266.763 119.875 266.247 116.387C265.751 113.139 265.595 110.091 265.723 107.286L264.193 106.54C264.011 109.602 264.156 112.959 264.714 116.5C265.273 120.04 266.159 123.661 267.338 127.262L269.118 127.722C269.028 127.45 268.912 127.2 268.823 126.929Z" fill="#127FF9"/>
<path d="M315.758 169.494C296.938 162.454 279.257 140.649 276.227 120.822C273.224 100.974 286.013 90.5928 304.834 97.6332C323.654 104.674 341.335 126.478 344.365 146.305C347.369 166.153 334.579 176.534 315.758 169.494Z" fill="#166FED"/>
<path d="M314.341 168.401C296.563 161.725 279.849 141.16 276.986 122.4C274.123 103.64 286.244 93.8387 304.026 100.468C321.803 107.144 338.518 127.708 341.381 146.468C344.244 165.228 332.123 175.03 314.341 168.401Z" fill="#127FF9"/>
<path d="M313.282 161.445C299.132 156.149 285.821 139.761 283.579 124.834C281.311 109.928 290.962 102.107 305.085 107.423C319.235 112.719 332.546 129.107 334.787 144.034C337.056 158.94 327.405 166.762 313.282 161.445Z" fill="#EEEEEE"/>
</g>
<defs>
<clipPath id="clip0_598_5083">
<rect width="55.0503" height="37.14" fill="white" transform="matrix(0.955798 -0.294023 0.298468 0.95442 158.44 89.7576)"/>
</clipPath>
<clipPath id="clip1_598_5083">
<rect width="38.0603" height="25.789" fill="white" transform="matrix(0.80796 0.589238 -0.595561 0.80331 152.194 31.4286)"/>
</clipPath>
<clipPath id="clip2_598_5083">
<rect width="38.0278" height="25.8111" fill="white" transform="matrix(0.741001 -0.671504 0.67755 0.735477 214.615 59.1073)"/>
</clipPath>
<clipPath id="clip3_598_5083">
<rect width="118.896" height="80.6997" fill="white" transform="matrix(0.741001 -0.671504 0.67755 0.735476 0 79.839)"/>
</clipPath>
<clipPath id="clip4_598_5083">
<rect width="118.749" height="80.7991" fill="white" transform="matrix(0.631715 0.775201 -0.780255 0.625462 299.984 65.7142)"/>
</clipPath>
</defs>
</svg>
