<svg width="375" height="210" viewBox="0 0 375 210" fill="none" xmlns="http://www.w3.org/2000/svg">
<g clip-path="url(#clip0_1382_10803)">
<path d="M208.2 128.4H198.7C198.1 128.4 197.3 129 197.2 129.6L194.5 139.9C194 141.1 192.4 144.8 188.9 144.8C186.7 144.8 184.2 144.8 181.7 144.8C179.3 144.8 177 144.8 174.9 144.8C171.7 144.8 171.6 142.3 171.7 141.2L174.8 129.6C175 128.9 174.7 128.4 173.9 128.4H164.4C163.8 128.4 163 129 162.9 129.6L153.5 164.7C153.3 165.4 153.6 165.9 154.4 165.9H163.9C164.5 165.9 165.3 165.3 165.4 164.7L168.5 153.1C169.1 151.6 170.7 148.4 173.9 148.4C175.9 148.4 178.1 148.4 180.3 148.4C182.9 148.4 185.5 148.4 187.8 148.4C191.3 148.4 191.1 151.2 191 152.1L187.7 164.7C187.5 165.4 187.8 165.9 188.6 165.9H198.1C198.7 165.9 199.5 165.3 199.6 164.7L209 129.6C209.2 128.9 208.8 128.4 208.2 128.4Z" fill="#00092A"/>
<path d="M98.8 139.4C99.4 137.5 100.4 135.7 101.5 134C108.8 123.2 123.5 120.4 134.4 127.7C145.2 135 148 149.7 140.7 160.6C135.8 167.9 127.5 171.6 119.3 171L115.1 177.2C126.1 179.2 137.6 174.7 144.3 165C153.2 151.8 149.7 133.7 136.5 124.8C123.3 115.9 105.2 119.4 96.3 132.6C95.3 134.1 94.4 135.7 93.7 137.3L98.8 139.4Z" fill="#00092A"/>
<path d="M122.6 164.3C112.3 164.3 104 156.3 104 146.4C104 136.5 112.3 128.5 122.6 128.5C126.4 128.5 130 129.6 133 131.6C129.7 129 125.5 127.4 120.9 127.4C110 127.4 101.2 136.3 101.2 147.4C101.2 158.5 110 167.2 120.9 167.2C129.4 167.2 136.9 161.6 139.5 153.8C136.6 160 130.1 164.3 122.6 164.3Z" fill="#166FED"/>
<path d="M212.4 141.1C212.4 141.1 214.3 128.5 221.8 128.5C240.4 128.5 255.6 128.5 255.6 128.5C255.6 128.5 261.7 128.6 260.5 133.2C259 138.9 258.4 145.6 252.3 147.6C244 150.3 226.4 152.4 226.4 152.4C226.4 152.4 217.9 152.9 217.7 155.2C217.6 156.7 219.2 157.2 220.9 157.3C222.3 157.4 250.5 157.3 252.6 157.3L250 166.1H209.5C209.5 166.1 205.5 166.3 207.1 159.8C208.1 155.8 209.7 149.9 209.7 149.9C209.7 149.9 210.4 146.2 216.6 145.4C222.9 144.7 239.7 142.1 239.7 142.1C239.7 142.1 244.9 142 247.1 139C249.3 136 247.8 135.4 246.1 135.4C244.5 135.5 228.5 135.4 228.5 135.4C228.5 135.4 226.3 135.5 225.4 137.3C224.5 139.1 224.3 140.9 224.3 140.9L212.4 141.1Z" fill="#00092A"/>
<path d="M170.4 195.6L170.1 196.7C169 200.8 168 204.5 163.8 207.3C159.7 210.1 155.6 210 151.2 210C141.1 210 133.8 209.5 137.4 195.9L140 186.3C143.3 174 150.4 172.2 161.3 172.2C171.5 172.2 176 173.2 173.2 184.4L172.8 185.8H162.6L163 184.4C163.5 181.1 161.3 180.8 157.9 180.8C152.2 180.8 151.2 182.5 149.8 187.9L148.2 193.7C146.7 199.3 146.4 201.4 152.4 201.4C156.5 201.4 158.6 201.1 159.8 196.7L160.1 195.6H170.4Z" fill="#166FED"/>
<path d="M180.2 200.1H192.9L191 207.2H170.2L178.4 176.8H186.5L180.2 200.1Z" fill="#166FED"/>
<path d="M227.8 176.7L222.4 197C220.2 205.1 215.8 207.4 206.9 207.4C194.7 207.4 194.2 204.3 196.2 197L201.6 176.7H209.7L204.3 196.8C203.4 200.3 205.3 200.3 208.7 200.3C212.2 200.3 213.4 200 214.4 196.4L219.7 176.6H227.8V176.7Z" fill="#166FED"/>
<path d="M230.4 176.7H246.4C252.4 176.7 255.7 177.8 253.9 184.5C252.9 188.4 251.4 190.9 247.2 191.5L247.1 191.8C251.5 192.1 251.6 194.8 250.6 198.6C248.6 206.1 244.8 207.1 238.4 207.1H222.2L230.4 176.7ZM235.2 188.9H241C243.8 188.9 244.7 188.4 245.3 186C245.8 184.2 245.7 183.5 243.4 183.4H236.6L235.2 188.9ZM232.1 200.5H238.2C240.8 200.5 242.1 199.9 242.8 197.4C243.5 194.9 242.6 194.5 240 194.5H233.7L232.1 200.5Z" fill="#166FED"/>
<mask id="mask0_1382_10803" style="mask-type:luminance" maskUnits="userSpaceOnUse" x="158" y="73" width="65" height="53">
<path d="M158.4 89.8L211.1 73.6L222.1 109L169.5 125.2L158.4 89.8Z" fill="white"/>
</mask>
<g mask="url(#mask0_1382_10803)">
<path d="M213.1 106.9C212 108.1 210.7 109.3 209.3 110.3C207 112.1 204.3 113.7 201.5 114.9C197.9 116.5 194.1 117.7 190.2 118.4C187.1 118.9 184 119.1 181 119C179.2 118.9 177.5 118.7 175.9 118.3C174.3 117.9 172.8 117.4 171.5 116.8C169.3 115.8 167.6 114.5 166.4 112.9C164.9 111 164.6 110.2 164.8 107.8C164.9 105.9 165.5 103.8 166.8 101.8C167.5 100.6 168.4 99.4 169.6 98.1C170.7 96.9 172 95.7 173.4 94.7C175.7 92.9 178.4 91.3 181.2 90.1C184.8 88.5 188.6 87.3 192.5 86.6C195.6 86.1 198.7 85.9 201.7 86C203.5 86.1 205.2 86.3 206.8 86.7C208.4 87.1 209.9 87.6 211.2 88.2C213.4 89.2 215.1 90.5 216.3 92.1C217.8 94 218.1 94.8 217.9 97.2C217.8 99.1 217.2 101.2 215.9 103.2C215.1 104.5 214.2 105.7 213.1 106.9Z" fill="#D0CEC9"/>
<path d="M209.3 110.4L207.8 105.5L200 110.1L201.5 115C197.9 116.6 194.1 117.8 190.2 118.5L188.7 113.6L179.5 114.2L181 119.1C179.2 119 177.5 118.8 175.9 118.4C174.3 118 172.8 117.5 171.5 116.9L170 112L164.9 108.1L166.4 113C165.7 112.1 165.1 111.1 164.8 110C164.4 108.9 163.2 105 163.2 105L166.7 101.8C167.4 100.6 168.3 99.4 169.5 98.1C170.6 96.9 171.9 95.7 173.3 94.7L186.1 99.1L181.2 90.1C184.8 88.5 188.6 87.3 192.5 86.6L193.7 96.8L201.7 86.1C203.5 86.2 205.2 86.4 206.8 86.8C208.4 87.2 209.9 87.7 211.2 88.3L200.1 98.3L216.3 92.2C215.9 91.3 215.8 88.6 216.2 89.6C216.2 89.7 217.5 93.7 217.5 93.8C217.8 94.9 218 96.1 218 97.3L216.5 92.4L214.5 98.4L216 103.3C215.3 104.5 214.4 105.7 213.2 107C212 108.1 210.7 109.3 209.3 110.4Z" fill="#166FED"/>
<path d="M211.6 102.1C210.5 103.3 209.2 104.5 207.8 105.5C205.5 107.3 202.8 108.9 200 110.1C196.4 111.7 192.6 112.9 188.7 113.6C185.6 114.1 182.5 114.3 179.5 114.2C177.7 114.1 176 113.9 174.4 113.5C172.8 113.1 171.3 112.6 170 112C167.8 111 166.1 109.7 164.9 108.1C163.4 106.2 162.7 103.9 162.8 101.5C162.9 99.5999 163.5 97.4999 164.8 95.4999C165.5 94.2999 166.4 93.0999 167.6 91.7999C168.7 90.5999 170 89.3999 171.4 88.3999C173.7 86.5999 176.4 84.9999 179.2 83.7999C182.8 82.1999 186.6 80.9999 190.5 80.2999C193.6 79.7999 196.7 79.5999 199.7 79.6999C201.5 79.7999 203.2 79.9999 204.8 80.3999C206.4 80.7999 207.9 81.2999 209.2 81.8999C211.4 82.8999 213.1 84.1999 214.3 85.7999C215.8 87.6999 216.5 89.9999 216.4 92.3999C216.3 94.2999 215.7 96.3999 214.4 98.3999C213.6 99.5999 212.7 100.9 211.6 102.1Z" fill="#D6D4D0"/>
<path d="M213.6 85.6999C212.4 84.1999 210.8 82.8999 208.6 81.8999C207.3 81.2999 205.9 80.7999 204.3 80.3999C202.7 79.9999 201 79.7999 199.3 79.6999C196.4 79.4999 193.4 79.6999 190.3 80.1999C186.5 80.7999 182.7 81.9999 179.2 83.5999C176.4 84.8999 173.8 86.3999 171.5 88.0999C170.1 89.0999 168.9 90.2999 167.8 91.4999C166.7 92.6999 165.8 93.8999 165.1 95.0999C163.9 97.0999 163.3 99.0999 163.2 101C163.1 103.4 163.8 105.6 165.2 107.4C166.4 108.9 168.1 110.2 170.2 111.2C171.5 111.8 172.9 112.3 174.5 112.7C176.1 113.1 177.8 113.3 179.5 113.4C182.4 113.6 185.4 113.4 188.5 112.9C192.3 112.3 196.1 111.1 199.6 109.5C202.4 108.2 205 106.7 207.3 105C208.7 104 209.9 102.8 211 101.6C212.1 100.4 213 99.1999 213.7 97.9999C214.9 95.9999 215.5 93.9999 215.6 92.0999C215.7 89.7999 215 87.5999 213.6 85.6999Z" fill="#EEEEEE"/>
<path d="M207.8 105.5L195 101.1L199.9 110.1C196.3 111.7 192.5 112.9 188.6 113.6L187.4 103.4L179.4 114.1C177.6 114 175.9 113.8 174.3 113.4C172.7 113 171.2 112.5 169.9 111.9L181 101.9L164.8 108C163.3 106.1 162.6 103.8 162.7 101.4L179.6 97.4L164.7 95.3C165.4 94.1 166.3 92.9 167.5 91.6C168.6 90.4 169.9 89.2 171.3 88.2L184.1 92.6L179.2 83.6C182.8 82 186.6 80.8 190.5 80.1L191.7 90.3L199.7 79.6C201.5 79.7 203.2 79.9 204.8 80.3C206.4 80.7 207.9 81.2 209.2 81.8L198.1 91.8L214.3 85.7C215.8 87.6 216.5 89.9 216.4 92.3L199.5 96.3L214.4 98.3C213.7 99.5 212.8 100.7 211.6 102C210.5 103.2 209.2 104.4 207.8 105.5Z" fill="#127FF9"/>
<path d="M165.2 95.2C165.9 94 166.8 92.8 167.9 91.6C168.9 90.5 170.1 89.4 171.4 88.4H171.3C169.9 89.5 168.6 90.6 167.5 91.8C166.4 93 165.5 94.2 164.7 95.5H164.9C165 95.4 165.1 95.3 165.2 95.2Z" fill="#127FF9"/>
<path d="M165.3 107.5C163.9 105.7 163.2 103.6 163.2 101.4L162.7 101.5C162.6 103.9 163.3 106.2 164.8 108.1L165.5 107.8C165.5 107.7 165.4 107.6 165.3 107.5Z" fill="#127FF9"/>
<path d="M190.3 80.2999H190.4C188.9 80.4999 187.5 80.8999 186 81.2999C187.5 80.8999 188.9 80.5999 190.3 80.2999Z" fill="#127FF9"/>
<path d="M204.3 80.4999C205.9 80.8999 207.3 81.3999 208.6 81.9999C208.7 82.0999 208.8 82.0999 208.9 82.1999L209.1 81.9999C207.8 81.3999 206.3 80.8999 204.7 80.4999C203.1 80.0999 201.4 79.8999 199.6 79.7999V79.8999C201.2 79.8999 202.8 80.0999 204.3 80.4999Z" fill="#127FF9"/>
<path d="M179.2 83.7C180.9 82.9 182.8 82.2 184.6 81.7C182.7 82.3 180.8 83 179 83.8C179.1 83.8 179.2 83.8 179.2 83.7Z" fill="#127FF9"/>
<path d="M211 101.6C209.9 102.8 208.7 103.9 207.3 105C207.2 105.1 207.1 105.2 207 105.2L207.8 105.5C209.2 104.4 210.5 103.3 211.6 102.1C212.7 100.9 213.6 99.6999 214.4 98.3999L213.6 98.2999C212.9 99.3999 212 100.5 211 101.6Z" fill="#127FF9"/>
<path d="M214.2 85.7999L213.8 85.9999C215.1 87.7999 215.8 89.8999 215.7 92.1999C215.7 92.2999 215.7 92.4999 215.7 92.5999L216.4 92.3999C216.4 89.9999 215.7 87.6999 214.2 85.7999Z" fill="#127FF9"/>
<path d="M188.5 112.9L188.6 113.6C192.5 112.9 196.4 111.8 199.9 110.1L199.6 109.5C196.1 111.1 192.3 112.3 188.5 112.9Z" fill="#127FF9"/>
<path d="M179.6 113.5C177.9 113.4 176.2 113.2 174.6 112.8C173.1 112.5 171.8 112 170.6 111.5L170 112C171.3 112.6 172.8 113.1 174.4 113.5C176 113.9 177.7 114.1 179.5 114.2L180 113.5C179.8 113.5 179.7 113.5 179.6 113.5Z" fill="#127FF9"/>
<path d="M206 100.8C199.7 107.6 187.3 111.4 178.2 109.3C169.1 107.2 166.8 99.9999 173.1 93.1999C179.4 86.3999 191.8 82.5999 200.9 84.6999C210 86.7999 212.3 93.9999 206 100.8Z" fill="#166FED"/>
<path d="M205.3 101.2C199.4 107.6 187.6 111.2 179 109.2C170.4 107.2 168.2 100.4 174.1 94C180 87.6 191.8 84 200.4 86C209 87.9 211.2 94.8 205.3 101.2Z" fill="#127FF9"/>
<path d="M202.1 100.5C197.4 105.6 188 108.5 181.2 106.9C174.4 105.3 172.6 99.9 177.3 94.8C182 89.7 191.4 86.8 198.2 88.4C205.1 89.9 206.8 95.4 202.1 100.5Z" fill="#EEEEEE"/>
</g>
<mask id="mask1_1382_10803" style="mask-type:luminance" maskUnits="userSpaceOnUse" x="136" y="31" width="47" height="44">
<path d="M152.2 31.4L182.9 53.9L167.6 74.6L136.8 52.1L152.2 31.4Z" fill="white"/>
</mask>
<g mask="url(#mask1_1382_10803)">
<path d="M165 68.7C163.9 68.6 162.7 68.4 161.5 68C159.5 67.5 157.6 66.6 155.7 65.6C153.3 64.3 151.1 62.6 149.1 60.8C147.5 59.3 146.1 57.7 145 56C144.3 55 143.8 53.9 143.3 52.9C142.8 51.8 142.5 50.8 142.3 49.9C142 48.3 142 46.8 142.4 45.5C142.9 43.9 143.2 43.4 144.6 42.5C145.7 41.8 147.1 41.3 148.8 41.1C149.8 41 150.8 41 152 41.1C153.1 41.2 154.3 41.4 155.5 41.8C157.5 42.3 159.4 43.2 161.3 44.2C163.7 45.5 165.9 47.2 167.9 49C169.5 50.5 170.9 52.1 172 53.8C172.7 54.8 173.2 55.9 173.7 56.9C174.2 58 174.5 59 174.7 59.9C175 61.5 175 63 174.6 64.3C174.1 65.9 173.8 66.4 172.4 67.3C171.3 68 169.9 68.5 168.2 68.7C167.3 68.8 166.2 68.8 165 68.7Z" fill="#D0CEC9"/>
<path d="M161.6 68L163.7 65.2L157.9 62.8L155.8 65.6C153.4 64.3 151.2 62.6 149.2 60.8L151.3 58L147.2 53.2L145.1 56C144.4 55 143.9 53.9 143.4 52.9C142.9 51.8 142.6 50.8 142.4 49.9L144.5 47.1L144.6 42.7L142.5 45.5C142.7 44.7 143.1 44 143.5 43.4C144 42.7 145.6 40.5 145.6 40.5L148.8 41.1C149.8 41 150.8 41 152 41.1C153.1 41.2 154.3 41.4 155.5 41.8L158.3 50.7L161.3 44.3C163.7 45.6 165.9 47.3 167.9 49.1L162.7 53.9H172C172.7 54.9 173.2 56 173.7 57C174.2 58.1 174.5 59.1 174.7 60L164.5 58L174.6 64.4C175 63.8 176.4 62.6 176 63.3C176 63.3 174.2 65.7 174.2 65.8C173.7 66.5 173.1 67 172.4 67.5L174.5 64.7L170.3 66.1L168.2 68.9C167.2 69 166.2 69 165 68.9C163.9 68.6 162.7 68.4 161.6 68Z" fill="#166FED"/>
<path d="M167.1 65.9C166 65.8 164.8 65.5999 163.6 65.1999C161.6 64.6999 159.7 63.7999 157.8 62.7999C155.4 61.4999 153.2 59.8 151.2 58C149.6 56.5 148.2 54.9 147.1 53.2C146.4 52.2 145.9 51.0999 145.4 50.0999C144.9 48.9999 144.6 47.9999 144.4 47.0999C144.1 45.4999 144.1 44 144.5 42.7C145 41.1 145.9 39.7999 147.3 38.7999C148.4 38.0999 149.8 37.6 151.5 37.4C152.5 37.3 153.5 37.3 154.7 37.4C155.8 37.5 157 37.6999 158.2 38.0999C160.2 38.5999 162.1 39.4999 164 40.4999C166.4 41.7999 168.6 43.4999 170.6 45.2999C172.2 46.7999 173.6 48.3999 174.7 50.0999C175.4 51.0999 175.9 52.2 176.4 53.2C176.9 54.3 177.2 55.3 177.4 56.2C177.7 57.8 177.7 59.2999 177.3 60.5999C176.8 62.1999 175.9 63.5 174.5 64.5C173.4 65.2 172 65.7 170.3 65.9C169.4 66 168.3 66 167.1 65.9Z" fill="#D6D4D0"/>
<path d="M177.1 60.2C177.4 58.9 177.5 57.5 177.2 55.9C177 55 176.7 54 176.2 52.9C175.8 51.9 175.2 50.8 174.5 49.8C173.4 48.1 172.1 46.5 170.5 45.1C168.6 43.3 166.4 41.6 164 40.4C162.1 39.4 160.2 38.6 158.3 38C157.2 37.7 156 37.4 154.9 37.3C153.8 37.2 152.7 37.2 151.8 37.3C150.2 37.5 148.8 37.9 147.7 38.7C146.3 39.6 145.4 40.9 144.9 42.5C144.6 43.8 144.5 45.2 144.8 46.8C145 47.7 145.3 48.7 145.8 49.8C146.2 50.8 146.8 51.9 147.5 52.9C148.6 54.6 150 56.2 151.5 57.6C153.4 59.4 155.6 61.1 158 62.3C159.9 63.3 161.8 64.1 163.7 64.7C164.8 65 166 65.3 167.1 65.4C168.2 65.5 169.3 65.5 170.2 65.4C171.8 65.2 173.2 64.8 174.3 64C175.7 63.1 176.7 61.8 177.1 60.2Z" fill="#EEEEEE"/>
<path d="M163.7 65.2L160.9 56.3L157.9 62.7C155.5 61.4 153.3 59.7 151.3 57.9L156.5 53.1H147.2C146.5 52.1 146 51 145.5 50C145 48.9 144.7 47.9 144.5 47L154.7 49L144.6 42.6C145.1 41 146 39.7 147.4 38.7L156.6 46.4L151.6 37.3C152.6 37.2 153.6 37.2 154.8 37.3C155.9 37.4 157.1 37.6 158.3 38L161.1 46.9L164.1 40.5C166.5 41.8 168.7 43.5 170.7 45.3L165.5 50.1H174.8C175.5 51.1 176 52.2 176.5 53.2C177 54.3 177.3 55.3 177.5 56.2L167.3 54.2L177.4 60.6C176.9 62.2 176 63.5 174.6 64.5L165.4 56.8L170.4 65.9C169.4 66 168.4 66 167.2 65.9C166 65.7 164.8 65.5 163.7 65.2Z" fill="#127FF9"/>
<path d="M151.9 37.4C152.9 37.3 153.9 37.3 155 37.4C156.1 37.5 157.1 37.7 158.2 38V37.9C157 37.6 155.9 37.3 154.7 37.2C153.6 37.1 152.5 37.1 151.5 37.2L151.6 37.3C151.7 37.4 151.8 37.4 151.9 37.4Z" fill="#127FF9"/>
<path d="M145 42.5C145.4 41 146.3 39.7 147.6 38.8L147.4 38.6C146 39.5 145 40.8 144.6 42.5L145 42.8C145 42.7 145 42.6 145 42.5Z" fill="#127FF9"/>
<path d="M170.6 45.2C169.9 44.5 169.1 43.9 168.3 43.2C169.1 43.8 169.9 44.5 170.6 45.2Z" fill="#127FF9"/>
<path d="M176.3 53C176.7 54 177.1 55 177.3 56C177.3 56.1 177.3 56.1999 177.3 56.2999H177.5C177.3 55.2999 177 54.2999 176.5 53.2999C176 52.1999 175.5 51.2 174.8 50.2H174.7C175.3 51 175.8 52 176.3 53Z" fill="#127FF9"/>
<path d="M164.1 40.5C165.3 41.1 166.4 41.9 167.5 42.7C166.4 41.8 165.3 41.1 164.1 40.5C164.1 40.4 164.1 40.4 164.1 40.5Z" fill="#127FF9"/>
<path d="M167.2 65.4C166.1 65.3 164.9 65.1 163.8 64.7C163.7 64.7 163.6 64.7 163.5 64.6L163.7 65.2C164.9 65.5 166 65.8 167.2 65.9C168.3 66 169.4 66 170.4 65.9L170.1 65.4C169.2 65.5 168.2 65.5 167.2 65.4Z" fill="#127FF9"/>
<path d="M177.4 60.6L177.1 60.4C176.6 61.9 175.7 63.1 174.4 64C174.3 64.1 174.2 64.1 174.2 64.1L174.6 64.4C175.9 63.6 176.9 62.2 177.4 60.6Z" fill="#127FF9"/>
<path d="M151.6 57.6L151.3 57.9C153.3 59.8 155.5 61.4 157.9 62.7L158.1 62.3C155.7 61 153.5 59.4 151.6 57.6Z" fill="#127FF9"/>
<path d="M147.6 52.9C146.9 51.9 146.4 50.9 145.9 49.8C145.5 48.8 145.2 47.9 145 47L144.5 46.9C144.7 47.9 145 48.9 145.5 49.9C146 51 146.5 52 147.2 53H147.8C147.7 53 147.6 53 147.6 52.9Z" fill="#127FF9"/>
<path d="M165.6 62.3C159.2 61.6 151.9 56.3 149.4 50.4C146.8 44.5 149.9 40.3 156.3 40.9C162.7 41.6 170 46.9 172.5 52.8C175.1 58.7 172 62.9 165.6 62.3Z" fill="#166FED"/>
<path d="M165.1 62C159.1 61.4 152.2 56.4 149.8 50.8C147.4 45.2 150.3 41.2 156.4 41.8C162.4 42.4 169.3 47.4 171.7 53C174 58.6 171.1 62.7 165.1 62Z" fill="#127FF9"/>
<path d="M164.2 60C159.4 59.5 153.9 55.5 152 51.1C150.1 46.7 152.4 43.5 157.2 44C162 44.5 167.5 48.5 169.4 52.9C171.3 57.3 169 60.5 164.2 60Z" fill="#EEEEEE"/>
</g>
<mask id="mask2_1382_10803" style="mask-type:luminance" maskUnits="userSpaceOnUse" x="214" y="33" width="47" height="46">
<path d="M214.6 59.1L242.8 33.6L260.3 52.6L232.1 78.1L214.6 59.1Z" fill="white"/>
</mask>
<g mask="url(#mask2_1382_10803)">
<path d="M254 53.9C253.7 55 253.2 56.1 252.7 57.2C251.8 59 250.6 60.8 249.2 62.4C247.4 64.5 245.4 66.3 243.1 67.9C241.3 69.1 239.4 70.2 237.5 70.9C236.4 71.4 235.2 71.7 234.1 71.9C233 72.1 231.9 72.3 230.9 72.3C229.2 72.3 227.8 72 226.6 71.4C225.1 70.6 224.7 70.2 224 68.7C223.5 67.5 223.3 66 223.4 64.4C223.5 63.4 223.7 62.4 224 61.3C224.3 60.2 224.8 59.1 225.3 58C226.2 56.2 227.4 54.4 228.8 52.8C230.6 50.7 232.6 48.9 234.9 47.3C236.7 46.1 238.6 45 240.5 44.3C241.6 43.8 242.8 43.5 243.9 43.3C245 43.1 246.1 42.9 247.1 42.9C248.8 42.9 250.2 43.2 251.4 43.8C252.9 44.6 253.3 45 254 46.5C254.5 47.7 254.7 49.2 254.6 50.8C254.5 51.8 254.3 52.8 254 53.9Z" fill="#D0CEC9"/>
<path d="M252.6 57.1L250.2 54.5L246.7 59.7L249.1 62.3C247.3 64.4 245.3 66.2 243 67.8L240.6 65.2L235 68.2L237.4 70.8C236.3 71.3 235.1 71.6 234 71.8C232.9 72 231.8 72.2 230.8 72.2L228.4 69.6L224 68.7L226.4 71.3C225.7 70.9 225 70.5 224.5 69.9C223.9 69.3 222.1 67.2 222.1 67.2L223.3 64.2C223.4 63.2 223.6 62.2 223.9 61.1C224.2 60 224.7 58.9 225.2 57.8L234.5 56.8L228.7 52.6C230.5 50.5 232.5 48.7 234.8 47.1L238.6 53.1L240.4 44.1C241.5 43.6 242.7 43.3 243.8 43.1C244.9 42.9 246 42.7 247 42.7L243 52.2L251.3 43.6C250.8 43.1 249.9 41.5 250.4 42C250.4 42 252.4 44.2 252.5 44.3C253.1 44.9 253.5 45.6 253.8 46.4L251.4 43.8L252 48.1L254.4 50.7C254.3 51.7 254.1 52.7 253.8 53.8C253.7 55 253.2 56.1 252.6 57.1Z" fill="#166FED"/>
<path d="M251.6 51.3C251.3 52.4 250.8 53.5 250.2 54.6C249.3 56.4 248.1 58.2 246.7 59.8C244.9 61.9 242.9 63.7 240.6 65.3C238.8 66.5 236.9 67.6 235 68.3C233.9 68.8 232.7 69.1 231.6 69.3C230.5 69.5 229.4 69.7 228.4 69.7C226.7 69.7 225.3 69.4 224.1 68.8C222.6 68 221.5 66.8 220.8 65.3C220.3 64.1 220.1 62.6 220.2 61C220.3 60 220.5 59 220.8 57.9C221.1 56.8 221.6 55.7 222.2 54.6C223.1 52.8 224.3 51 225.7 49.4C227.5 47.3 229.5 45.5 231.8 43.9C233.6 42.7 235.5 41.6 237.4 40.9C238.5 40.4 239.7 40.1 240.8 39.9C241.9 39.7 243 39.5 244 39.5C245.7 39.5 247.1 39.8 248.3 40.4C249.8 41.2 250.9 42.4 251.6 43.9C252.1 45.1 252.3 46.6 252.2 48.2C252.2 49.2 251.9 50.2 251.6 51.3Z" fill="#D6D4D0"/>
<path d="M248 40.5C246.8 39.9 245.4 39.6 243.8 39.6C242.8 39.6 241.8 39.7 240.7 39.9C239.6 40.1 238.5 40.5 237.4 40.9C235.5 41.6 233.7 42.6 231.9 43.9C229.7 45.4 227.7 47.3 226 49.3C224.6 50.9 223.4 52.6 222.5 54.4C222 55.5 221.5 56.5 221.2 57.6C220.9 58.7 220.7 59.7 220.6 60.6C220.5 62.2 220.7 63.6 221.1 64.8C221.7 66.3 222.8 67.5 224.3 68.2C225.5 68.8 226.9 69.1 228.5 69.1C229.5 69.1 230.5 69 231.6 68.8C232.7 68.6 233.8 68.2 234.9 67.8C236.8 67.1 238.6 66.1 240.4 64.8C242.6 63.3 244.6 61.4 246.3 59.4C247.7 57.8 248.9 56.1 249.8 54.3C250.3 53.2 250.8 52.2 251.1 51.1C251.4 50 251.6 49 251.7 48.1C251.8 46.5 251.6 45.1 251.2 43.9C250.6 42.4 249.5 41.2 248 40.5Z" fill="#EEEEEE"/>
<path d="M250.2 54.5L240.9 55.5L246.7 59.7C244.9 61.8 242.9 63.6 240.6 65.2L236.8 59.2L235 68.2C233.9 68.7 232.7 69 231.6 69.2C230.5 69.4 229.4 69.6 228.4 69.6L232.4 60.1L224.1 68.7C222.6 67.9 221.5 66.7 220.8 65.2L230.2 57.8L220.2 60.9C220.3 59.9 220.5 58.9 220.8 57.8C221.1 56.7 221.6 55.6 222.2 54.5L231.5 53.5L225.7 49.3C227.5 47.2 229.5 45.4 231.8 43.8L235.6 49.8L237.4 40.8C238.5 40.3 239.7 40 240.8 39.8C241.9 39.6 243 39.4 244 39.4L240 48.9L248.3 40.3C249.8 41.1 250.9 42.3 251.6 43.8L242.2 51.2L252.2 48.1C252.1 49.1 251.9 50.1 251.6 51.2C251.2 52.3 250.8 53.5 250.2 54.5Z" fill="#127FF9"/>
<path d="M220.5 60.6C220.6 59.6 220.8 58.6 221.1 57.6C221.4 56.6 221.8 55.6 222.3 54.6H222.2C221.6 55.7 221.2 56.8 220.8 57.9C220.5 59 220.3 60 220.2 61H220.4C220.4 60.7 220.5 60.7 220.5 60.6Z" fill="#127FF9"/>
<path d="M224.2 68.2C222.8 67.5 221.7 66.4 221.1 65L220.8 65.2C221.4 66.7 222.6 67.9 224.1 68.7L224.5 68.3C224.4 68.3 224.3 68.3 224.2 68.2Z" fill="#127FF9"/>
<path d="M231.8 43.9C231 44.4 230.2 45.1 229.4 45.7C230.2 45.1 231 44.5 231.8 43.9Z" fill="#127FF9"/>
<path d="M240.6 39.9C241.7 39.7 242.8 39.5 243.7 39.6C243.8 39.6 243.9 39.6 244 39.6L244.1 39.4C243.1 39.4 242 39.5 240.9 39.8C239.8 40 238.6 40.4 237.5 40.8V40.9C238.5 40.4 239.6 40.1 240.6 39.9Z" fill="#127FF9"/>
<path d="M225.9 49.2001C226.8 48.2001 227.7 47.2 228.7 46.3C227.6 47.3 226.7 48.3001 225.9 49.2001C225.8 49.3001 225.8 49.3001 225.9 49.2001Z" fill="#127FF9"/>
<path d="M251.1 51.2C250.8 52.3 250.3 53.3 249.8 54.4C249.8 54.5 249.7 54.6 249.7 54.6L250.3 54.5C250.9 53.4 251.3 52.3 251.6 51.2C251.9 50.1 252.1 49.1 252.2 48.1L251.7 48.3C251.6 49.2 251.4 50.2 251.1 51.2Z" fill="#127FF9"/>
<path d="M248.4 40.3L248.2 40.5C249.6 41.2 250.6 42.4 251.2 43.8C251.2 43.9 251.3 44 251.3 44.1L251.7 43.8C251 42.3 249.9 41.1 248.4 40.3Z" fill="#127FF9"/>
<path d="M240.4 64.8L240.7 65.2C242.9 63.6 245 61.8 246.8 59.7L246.4 59.4C244.6 61.5 242.6 63.3 240.4 64.8Z" fill="#127FF9"/>
<path d="M234.9 67.8C233.8 68.2 232.7 68.6 231.6 68.8C230.6 69 229.6 69.1 228.7 69.1L228.5 69.6C229.5 69.6 230.6 69.5 231.7 69.2C232.8 69 234 68.6 235.1 68.2L235.2 67.6C235.1 67.7 235 67.8 234.9 67.8Z" fill="#127FF9"/>
<path d="M247.7 52.1C245.8 58.2 239.1 64.2 232.8 65.6C226.5 66.9 222.9 63.1 224.8 57C226.7 50.9 233.4 44.9 239.7 43.5C246 42.2 249.6 46 247.7 52.1Z" fill="#166FED"/>
<path d="M247.4 52.6C245.6 58.4 239.3 64 233.3 65.3C227.3 66.6 223.9 62.9 225.7 57.2C227.5 51.4 233.8 45.8 239.8 44.5C245.8 43.2 249.2 46.8 247.4 52.6Z" fill="#127FF9"/>
<path d="M245.2 53C243.8 57.6 238.8 62.1 234 63.1C229.2 64.1 226.5 61.2 228 56.6C229.4 52 234.4 47.5 239.2 46.5C243.9 45.6 246.6 48.5 245.2 53Z" fill="#EEEEEE"/>
</g>
<mask id="mask3_1382_10803" style="mask-type:luminance" maskUnits="userSpaceOnUse" x="0" y="0" width="143" height="140">
<path d="M0 79.8L88.1 0L142.8 59.4L54.7 139.2L0 79.8Z" fill="white"/>
</mask>
<g mask="url(#mask3_1382_10803)">
<path d="M123.1 63.5C122 66.9 120.6 70.2999 118.9 73.6999C116 79.3999 112.2 84.8 107.8 90C102.3 96.4 95.7999 102.3 88.7999 107.2C83.1999 111.1 77.2999 114.3 71.3999 116.7C67.8999 118.1 64.2999 119.2 60.6999 119.9C57.0999 120.6 53.7999 121 50.6999 121C45.4999 121 40.8999 120 37.0999 118.1C32.3999 115.7 31.0999 114.4 29.0999 109.5C27.4999 105.6 26.8999 101.1 27.2999 95.8999C27.5999 92.8999 28.1999 89.5999 29.2999 86.1999C30.3999 82.7999 31.7999 79.4 33.4999 76C36.3999 70.3 40.1999 64.9 44.5999 59.7C50.0999 53.3 56.5999 47.4 63.5999 42.5C69.1999 38.6 75.0999 35.4 80.9999 33C84.4999 31.6 88.0999 30.4999 91.6999 29.7999C95.2999 29.0999 98.5999 28.7 101.7 28.7C106.9 28.7 111.5 29.7 115.3 31.6C120 34 121.3 35.3 123.3 40.2C124.9 44.1 125.5 48.5999 125.1 53.7999C124.8 56.7999 124.2 60.1 123.1 63.5Z" fill="#D0CEC9"/>
<path d="M118.9 73.6999L111.4 65.5999L100.3 81.8999L107.8 89.9999C102.3 96.3999 95.8 102.3 88.8 107.2L81.4 98.9999L64 108.5L71.5 116.6C68 118 64.3999 119.1 60.7999 119.8C57.1999 120.5 53.8999 120.9 50.7999 120.9L43.2999 112.8L29.7 109.9L37.2 118C34.9 116.9 32.9999 115.4 31.2999 113.7C29.4999 111.8 23.7 105.4 23.7 105.4L27.5 95.8999C27.8 92.8999 28.4 89.5999 29.5 86.1999C30.6 82.7999 32 79.3999 33.7 75.9999L62.7999 72.8999L44.7999 59.6999C50.2999 53.2999 56.7999 47.3999 63.7999 42.4999L75.5999 61.2999L81.1999 32.9999C84.6999 31.5999 88.2999 30.4999 91.8999 29.7999C95.4999 29.0999 98.7999 28.6999 101.9 28.6999L89.3 58.4999L115.3 31.6999C113.7 30.1999 111 25.0999 112.6 26.6999C112.7 26.7999 119 33.5999 119.1 33.7999C120.8 35.6999 122.2 37.7999 123.3 40.2999L115.8 32.1999L117.6 45.7999L125.1 53.8999C124.8 56.8999 124.2 60.1999 123.1 63.5999C122.1 66.8999 120.6 70.2999 118.9 73.6999Z" fill="#166FED"/>
<path d="M115.6 55.4C114.5 58.8 113.1 62.1999 111.4 65.5999C108.5 71.2999 104.7 76.7 100.3 81.9C94.8 88.3 88.3 94.1999 81.3 99.0999C75.7 103 69.8 106.2 63.9 108.6C60.4 110 56.8 111.1 53.2 111.8C49.6 112.5 46.3 112.9 43.2 112.9C38 112.9 33.4 111.9 29.6 110C24.9 107.6 21.4 103.9 19.4 99C17.8 95.1 17.2 90.5999 17.6 85.3999C17.9 82.3999 18.5 79.0999 19.6 75.6999C20.7 72.2999 22.1 68.9 23.8 65.5C26.7 59.8 30.5 54.4 34.9 49.2C40.4 42.8 46.9 36.9 53.9 32C59.5 28.1 65.4 24.9 71.3 22.5C74.8 21.1 78.4 19.9999 82 19.2999C85.6 18.5999 88.9 18.2 92 18.2C97.2 18.2 101.8 19.2 105.6 21.1C110.3 23.5 113.8 27.1999 115.8 32.0999C117.4 35.9999 118 40.5 117.6 45.7C117.4 48.7 116.7 52 115.6 55.4Z" fill="#D6D4D0"/>
<path d="M104.3 21.5999C100.6 19.7999 96.1 18.7999 91 18.7999C88 18.7999 84.7 19.1999 81.2 19.8999C77.7 20.5999 74.2 21.6999 70.7 23.0999C64.9 25.3999 59.1 28.5999 53.6 32.3999C46.9 36.9999 40.5 42.6999 35.1 49.0999C30.8 54.0999 27.1 59.4999 24.3 64.9999C22.6 68.2999 21.2 71.5999 20.2 74.9999C19.2 78.2999 18.5 81.4999 18.3 84.4999C17.9 89.4999 18.5 93.9999 20 97.7999C22 102.5 25.4 106.2 30 108.6C33.7 110.4 38.2 111.4 43.3 111.4C46.3 111.4 49.6 111 53.1 110.3C56.6 109.6 60.1 108.5 63.6 107.1C69.4 104.8 75.2 101.6 80.7 97.7999C87.5 93.0999 93.9 87.2999 99.3 80.9999C103.6 75.9999 107.3 70.5999 110.1 65.0999C111.8 61.7999 113.2 58.4999 114.2 55.0999C115.2 51.7999 115.9 48.5999 116.1 45.5999C116.5 40.5999 115.9 36.0999 114.4 32.2999C112.4 27.5999 108.9 23.8999 104.3 21.5999Z" fill="#EEEEEE"/>
<path d="M111.4 65.5L82.3 68.5999L100.3 81.8C94.8 88.2 88.3 94.1 81.3 99L69.5 80.1999L63.9 108.5C60.4 109.9 56.8 111 53.2 111.7C49.6 112.4 46.3 112.8 43.2 112.8L55.6 83.0999L29.6 109.9C24.9 107.5 21.4 103.8 19.4 98.8999L48.8 75.6999L17.6 85.3C17.9 82.3 18.5 78.9999 19.6 75.5999C20.7 72.1999 22.1 68.8 23.8 65.4L53 62.4L35 49.2C40.5 42.8 47 36.9 54 32L65.8 50.7999L71.4 22.5C74.9 21.1 78.5 19.9999 82.1 19.2999C85.7 18.5999 89 18.2 92.1 18.2L79.6 47.9L105.6 21.1C110.3 23.5 113.8 27.1999 115.8 32.0999L86.4 55.2999L117.5 45.7C117.2 48.7 116.6 52 115.5 55.4C114.5 58.7 113.1 62.2 111.4 65.5Z" fill="#127FF9"/>
<path d="M18.2999 84.4C18.5999 81.4 19.2 78.3 20.2 74.9C21.2 71.7 22.5 68.6 24.1 65.5H23.9C22.1999 68.9 20.7 72.3 19.7 75.7C18.6 79.1 18 82.3 17.7 85.4L18.2 85.3C18.2 84.9 18.2999 84.7 18.2999 84.4Z" fill="#127FF9"/>
<path d="M30 108.4C25.6 106.2 22.3 102.7 20.3 98.2999L19.5 98.8999C21.5 103.7 25 107.5 29.7 109.9L30.8 108.8C30.5 108.7 30.2 108.5 30 108.4Z" fill="#127FF9"/>
<path d="M53.7999 32.2C53.7999 32.2 53.8999 32.1 53.9999 32C51.2999 33.8 48.7999 35.8 46.2999 37.9C48.6999 35.9 51.1999 34 53.7999 32.2Z" fill="#127FF9"/>
<path d="M81.3 19.7999C84.8 19.0999 88 18.7 91.1 18.7C91.4 18.7 91.7 18.7 91.9 18.7L92.1 18.2C89 18.2 85.6 18.5999 82.1 19.2999C78.6 20.0999 75 21.2 71.4 22.5V22.7C74.7 21.5 78 20.4999 81.3 19.7999Z" fill="#127FF9"/>
<path d="M35.2 49C37.9 45.8 40.8 42.8 43.9 40C40.7 42.9 37.7 45.9 34.9 49.2C35 49.2 35.1 49.1 35.2 49Z" fill="#127FF9"/>
<path d="M114.1 55C113.1 58.3 111.6 61.7 110 65C109.9 65.3 109.7 65.5 109.6 65.7L111.4 65.5C113.1 62.1 114.6 58.7 115.6 55.3C116.7 51.9 117.3 48.7 117.6 45.6L116 46.1C115.7 49 115.1 51.9 114.1 55Z" fill="#127FF9"/>
<path d="M105.6 21.1L104.9 21.8C109.2 24.1 112.4 27.7 114.3 32.2C114.4 32.5 114.5 32.7 114.6 33L115.8 32C113.9 27.3 110.4 23.5 105.6 21.1Z" fill="#127FF9"/>
<path d="M80.5 97.7L81.3 99C88.3 94.1 94.8 88.3 100.3 81.8L99.1 81C93.7 87.3 87.4 93 80.5 97.7Z" fill="#127FF9"/>
<path d="M63.5 107C60 108.4 56.5 109.5 53 110.2C49.8 110.9 46.7 111.2 43.9 111.3L43.2 112.9C46.3 112.9 49.7 112.5 53.2 111.8C56.7 111 60.3 109.9 63.9 108.6L64.3 106.8C64 106.7 63.8 106.9 63.5 107Z" fill="#127FF9"/>
<path d="M103.5 57.9C97.5 77 76.7 95.8 56.9 100C37.1 104.2 25.9 92.1 31.8 73.1C37.8 54 58.6 35.2 78.4 31C98.2 26.8 109.4 38.9 103.5 57.9Z" fill="#166FED"/>
<path d="M102.5 59.4C96.9 77.4 77.2 95.2 58.5 99.2C39.8 103.2 29.2 91.8 34.8 73.8C40.4 55.8 60.1 38 78.8 34C97.5 30 108.1 41.4 102.5 59.4Z" fill="#127FF9"/>
<path d="M95.5 60.8999C91 75.1999 75.3 89.3999 60.5 92.4999C45.6 95.5999 37.2 86.5999 41.7 72.2999C46.2 57.9999 61.9 43.7999 76.7 40.6999C91.6 37.4999 100 46.5999 95.5 60.8999Z" fill="#EEEEEE"/>
</g>
<mask id="mask4_1382_10803" style="mask-type:luminance" maskUnits="userSpaceOnUse" x="236" y="65" width="139" height="144">
<path d="M300 65.7L375 157.8L312 208.3L236.9 116.3L300 65.7Z" fill="white"/>
</mask>
<g mask="url(#mask4_1382_10803)">
<path d="M309 188.6C305.6 187.3 302.3 185.7 299 183.8C293.5 180.6 288.2 176.5 283.3 171.9C277.2 166 271.7 159.3 267.2 152.1C263.6 146.3 260.8 140.3 258.7 134.3C257.5 130.7 256.6 127.1 256.1 123.5C255.6 119.9 255.4 116.6 255.6 113.5C255.9 108.3 257.2 103.8 259.3 100.3C262 95.8 263.4 94.6 268.4 92.9C272.4 91.5 277 91.2 282.2 92C285.2 92.4 288.5 93.3 291.8 94.6C295.2 95.9 298.5 97.5 301.8 99.4C307.3 102.6 312.6 106.7 317.5 111.3C323.6 117.1 329.1 123.9 333.6 131.1C337.2 136.9 340 142.9 342.1 148.9C343.3 152.5 344.2 156.1 344.7 159.7C345.2 163.3 345.4 166.6 345.2 169.7C344.9 174.9 343.6 179.4 341.5 182.9C338.8 187.4 337.4 188.6 332.4 190.3C328.4 191.7 323.8 192 318.6 191.2C315.6 190.7 312.3 189.9 309 188.6Z" fill="#D0CEC9"/>
<path d="M299 183.8L307.6 176.9L291.9 165L283.3 171.9C277.2 166 271.7 159.3 267.2 152.1L275.8 145.2L267.3 127.4L258.7 134.3C257.5 130.7 256.6 127.1 256.1 123.5C255.6 119.9 255.4 116.6 255.6 113.5L264.2 106.6L267.9 93.3L259.3 100.2C260.6 98 262.2 96.2 264 94.6C266 92.9 272.8 87.5 272.8 87.5L282.1 91.8C285.1 92.2 288.4 93.1 291.7 94.4C295.1 95.7 298.4 97.3 301.7 99.2L303.1 128.2L317.4 111.2C323.5 117.1 329 123.8 333.5 131L314 141.6L342.1 148.9C343.3 152.5 344.2 156.1 344.7 159.7C345.2 163.3 345.4 166.6 345.2 169.7L316.1 155.6L341.5 183C343.1 181.5 348.4 179.1 346.7 180.6C346.6 180.7 339.3 186.5 339.2 186.6C337.2 188.2 334.9 189.5 332.4 190.3L341 183.4L327.2 184.3L318.6 191.2C315.6 190.8 312.3 189.9 309 188.6C305.6 187.3 302.2 185.7 299 183.8Z" fill="#166FED"/>
<path d="M317.6 181.7C314.2 180.4 310.9 178.8 307.6 176.9C302.1 173.7 296.8 169.6 291.9 165C285.8 159.1 280.3 152.4 275.8 145.2C272.2 139.4 269.4 133.4 267.3 127.4C266.1 123.8 265.2 120.2 264.7 116.6C264.2 113 264 109.7 264.2 106.6C264.5 101.4 265.8 96.8999 267.9 93.3999C270.6 88.8999 274.6 85.5999 279.6 83.9999C283.6 82.5999 288.2 82.2999 293.4 83.0999C296.4 83.4999 299.7 84.3999 303 85.6999C306.4 86.9999 309.7 88.5999 313 90.4999C318.5 93.6999 323.8 97.7999 328.7 102.4C334.8 108.3 340.3 115 344.8 122.2C348.4 128 351.2 134 353.3 140C354.5 143.6 355.4 147.2 355.9 150.8C356.4 154.4 356.6 157.7 356.4 160.8C356.1 166 354.8 170.5 352.7 174C350 178.5 346 181.8 341 183.4C337 184.8 332.4 185.1 327.2 184.3C324.2 183.8 321 182.9 317.6 181.7Z" fill="#D6D4D0"/>
<path d="M352.3 172.5C354.4 169 355.6 164.6 356 159.5C356.2 156.5 356 153.2 355.5 149.7C355 146.2 354.1 142.7 352.9 139.2C350.9 133.3 348.1 127.4 344.6 121.7C340.3 114.6 334.8 108 328.8 102.3C324 97.7 318.8 93.8 313.4 90.6C310.2 88.7 306.9 87.1 303.6 85.9C300.3 84.7 297.1 83.8 294.1 83.4C289.1 82.7 284.6 83 280.6 84.3C275.7 85.9 271.8 89.1 269.2 93.5C267.1 97 265.9 101.4 265.5 106.5C265.3 109.5 265.5 112.8 266 116.3C266.5 119.8 267.4 123.3 268.6 126.8C270.6 132.7 273.4 138.6 276.9 144.3C281.3 151.4 286.7 158 292.7 163.7C297.5 168.3 302.7 172.2 308.1 175.4C311.3 177.3 314.6 178.9 317.9 180.1C321.2 181.3 324.4 182.2 327.4 182.6C332.4 183.3 336.9 183 340.9 181.7C345.8 180.1 349.7 176.9 352.3 172.5Z" fill="#EEEEEE"/>
<path d="M307.6 176.9L306.2 147.9L291.9 164.9C285.8 159.1 280.3 152.3 275.8 145.1L295.5 134.6L267.4 127.3C266.2 123.7 265.3 120.1 264.8 116.5C264.3 112.9 264.1 109.6 264.3 106.5L293.4 120.6L268 93.1999C270.7 88.6999 274.7 85.3999 279.7 83.7999L301.3 114.3L293.5 82.8999C296.5 83.2999 299.8 84.1999 303.1 85.4999C306.5 86.7999 309.8 88.3999 313.1 90.2999L314.5 119.3L328.8 102.2C334.9 108.1 340.4 114.8 344.9 122L325.2 132.5L353.3 139.8C354.5 143.4 355.4 147 355.9 150.6C356.4 154.2 356.6 157.5 356.4 160.6L327.3 146.5L352.7 173.9C350 178.4 346 181.7 341 183.3L319.4 152.8L327.2 184.2C324.2 183.8 320.9 182.9 317.6 181.6C314.3 180.4 310.9 178.8 307.6 176.9Z" fill="#127FF9"/>
<path d="M294.3 83.4999C297.3 83.8999 300.4 84.7999 303.8 85.9999C306.9 87.1999 310 88.6999 313.1 90.3999V90.1999C309.8 88.2999 306.5 86.6999 303.1 85.3999C299.7 84.0999 296.5 83.2999 293.5 82.7999L293.6 83.2999C293.8 83.3999 294 83.4999 294.3 83.4999Z" fill="#127FF9"/>
<path d="M269.4 93.6999C271.9 89.4999 275.6 86.3999 280.2 84.6999L279.6 83.8999C274.6 85.5999 270.6 88.7999 267.9 93.2999L269 94.4999C269.1 94.1999 269.3 93.8999 269.4 93.6999Z" fill="#127FF9"/>
<path d="M344.6 121.8C344.6 121.8 344.7 121.9 344.7 122C343 119.3 341.2 116.6 339.2 114C341.2 116.6 343 119.2 344.6 121.8Z" fill="#127FF9"/>
<path d="M355.5 149.8C356 153.3 356.2 156.5 356 159.6C356 159.9 356 160.1 355.9 160.4L356.4 160.6C356.6 157.5 356.4 154.2 355.9 150.6C355.3 147.1 354.5 143.4 353.3 139.8H353.1C354.2 143.2 355 146.5 355.5 149.8Z" fill="#127FF9"/>
<path d="M328.9 102.4C331.9 105.2 334.8 108.3 337.4 111.6C334.7 108.3 331.8 105.1 328.7 102.2C328.7 102.2 328.8 102.3 328.9 102.4Z" fill="#127FF9"/>
<path d="M318 180.1C314.7 178.9 311.4 177.3 308.2 175.4C308 175.3 307.7 175.1 307.5 174.9L307.6 176.7C310.9 178.6 314.2 180.2 317.6 181.5C321 182.8 324.2 183.6 327.2 184.1L326.8 182.5C324.1 182.1 321.1 181.3 318 180.1Z" fill="#127FF9"/>
<path d="M352.7 173.9L352 173.2C349.4 177.3 345.6 180.3 341 181.8C340.7 181.9 340.4 182 340.2 182.1L341.1 183.4C346 181.6 350 178.4 352.7 173.9Z" fill="#127FF9"/>
<path d="M277.1 144.4L275.8 145.1C280.3 152.3 285.8 159.1 291.9 164.9L292.9 163.8C286.8 158 281.5 151.4 277.1 144.4Z" fill="#127FF9"/>
<path d="M268.8 126.9C267.6 123.4 266.7 119.8 266.2 116.4C265.7 113.2 265.5 110.1 265.7 107.3L264.2 106.6C264 109.7 264.2 113 264.7 116.6C265.3 120.1 266.1 123.8 267.3 127.4L269.1 127.9C269 127.4 268.9 127.2 268.8 126.9Z" fill="#127FF9"/>
<path d="M315.8 169.5C297 162.5 279.3 140.7 276.3 120.8C273.3 101 286.1 90.5999 304.9 97.5999C323.7 104.6 341.4 126.4 344.4 146.3C347.4 166.2 334.6 176.5 315.8 169.5Z" fill="#166FED"/>
<path d="M314.3 168.4C296.5 161.7 279.8 141.2 276.9 122.4C274 103.6 286.2 93.8 303.9 100.5C321.7 107.2 338.4 127.7 341.3 146.5C344.2 165.2 332.1 175 314.3 168.4Z" fill="#127FF9"/>
<path d="M313.3 161.4C299.1 156.1 285.8 139.7 283.6 124.8C281.3 109.9 291 102.1 305.1 107.4C319.2 112.7 332.6 129.1 334.8 144C337.1 158.9 327.4 166.8 313.3 161.4Z" fill="#EEEEEE"/>
</g>
<g opacity="0.85">
<path d="M63.2999 55.5C64.5999 54.5 66 53.6 67.4 52.8C76.5 47.8 85 49.2 86.5 56.1C87.9 62.9 81.6999 72.6 72.5999 77.7C66.4999 81.1 60.5 81.6 56.9 79.4L51.7 82.3C56 85.9 63.7999 85.7 72.0999 81.1C83.1999 74.9 90.8999 63.1 89.0999 54.7C87.2999 46.4 76.7999 44.6 65.6999 50.7C64.4999 51.4 63.2 52.2 62 53L63.2999 55.5Z" fill="#00092A"/>
<path d="M61.8999 75.9C56.8999 73.7 57.0999 66.9 62.1999 60.9C67.2999 54.9 75.3999 51.7 80.3999 53.9C82.2999 54.7 83.3999 56.2 83.7999 58.1C83.4999 55.8 82.2999 53.9 80.0999 52.9C74.7999 50.5 65.9999 54.1 60.2999 60.9C54.5999 67.7 54.2999 75 59.5999 77.3C63.6999 79.2 70.1999 77.4 75.3999 73.1C70.8999 76.3 65.5999 77.5 61.8999 75.9Z" fill="#166FED"/>
</g>
<g opacity="0.6">
<path d="M234.6 51.3001C235 51.0001 235.5 50.8001 236 50.5001C239 49.1001 241.7 49.8001 242.2 51.9001C242.6 54.1001 240.5 56.9001 237.6 58.3001C235.6 59.2001 233.7 59.2001 232.5 58.5001L230.8 59.3001C232.2 60.5001 234.7 60.6001 237.4 59.4001C241 57.7001 243.6 54.2001 243.1 51.6001C242.6 49.0001 239.2 48.2001 235.5 49.8001C235.1 50.0001 234.7 50.2001 234.3 50.4001L234.6 51.3001Z" fill="#00092A"/>
<path d="M234 57.6001C232.4 56.8001 232.5 54.7001 234.2 52.9001C235.9 51.1001 238.5 50.3001 240.1 51.1001C240.7 51.4001 241.1 51.9001 241.2 52.5001C241.1 51.8001 240.8 51.2001 240 50.8001C238.3 49.9001 235.4 50.9001 233.5 52.9001C231.6 54.9001 231.5 57.1001 233.2 58.0001C234.5 58.7001 236.6 58.3001 238.4 57.1001C236.9 57.9001 235.2 58.2001 234 57.6001Z" fill="#166FED"/>
</g>
<path d="M293.6 128.1C293.3 126.7 293.2 125.4 293.3 124.1C293.8 116.1 301.3 113.7 310 118.9C318.7 124 325.4 134.8 324.9 142.9C324.6 148.3 321.1 151.2 316.2 150.9L315.9 155.5C322.9 156.7 328 153.3 328.4 146C329 136.1 320.8 123 310.1 116.7C299.4 110.4 290.3 113.3 289.7 123.1C289.6 124.2 289.7 125.4 289.8 126.6L293.6 128.1Z" fill="#00092A"/>
<path d="M315.8 145.9C309.9 146.1 302.4 140.3 299 133.1C295.6 125.8 297.6 119.8 303.5 119.6C305.7 119.5 308.1 120.3 310.5 121.7C307.7 119.9 304.7 118.8 302.1 118.8C295.9 119 293.9 125.7 297.7 133.8C301.5 141.9 309.5 148.1 315.8 147.9C320.7 147.7 323 143.5 321.9 137.8C322.3 142.5 320.1 145.8 315.8 145.9Z" fill="#166FED"/>
<g opacity="0.6">
<path d="M155.4 50.4C155.3 50.1 155.3 49.7 155.3 49.4C155.5 47.4 157.9 46.8 160.8 48.1C163.7 49.4 165.9 52.1 165.7 54.2C165.6 55.6 164.4 56.3 162.8 56.2L162.7 57.4C165 57.7 166.7 56.8 166.8 55C167 52.5 164.3 49.2 160.8 47.6C157.3 46 154.2 46.7 154.1 49.2C154.1 49.5 154.1 49.8 154.1 50.1L155.4 50.4Z" fill="#00092A"/>
<path d="M162.7 55.0001C160.8 55.0001 158.3 53.6001 157.1 51.8001C156 50.0001 156.6 48.4001 158.6 48.4001C159.3 48.4001 160.1 48.6001 160.9 48.9001C160 48.4001 159 48.2001 158.1 48.2001C156 48.3001 155.4 49.9001 156.6 52.0001C157.9 54.1001 160.5 55.6001 162.6 55.6001C164.2 55.6001 165 54.5001 164.6 53.0001C164.9 54.1001 164.1 54.9001 162.7 55.0001Z" fill="#166FED"/>
</g>
<g opacity="0.75">
<path d="M183.8 94.3999C184.4 93.9999 185 93.6999 185.7 93.3999C190.1 91.3999 195.5 91.3999 197.6 93.2999C199.7 95.1999 197.8 98.2999 193.4 100.3C190.4 101.6 187 102.1 184.4 101.7L181.8 102.8C185 103.6 189.6 103.1 193.7 101.3C199.1 98.8999 201.4 94.9999 198.8 92.6999C196.2 90.3999 189.6 90.4999 184.2 92.8999C183.6 93.1999 183 93.4999 182.5 93.7999L183.8 94.3999Z" fill="#00092A"/>
<path d="M186.8 100.3C183.5 99.8999 182.3 97.9999 184.2 95.8999C186.1 93.8999 190.3 92.4999 193.7 92.8999C194.9 92.9999 195.9 93.3999 196.5 93.8999C195.9 93.1999 194.8 92.7999 193.4 92.5999C189.9 92.1999 185.3 93.6999 183.2 95.9999C181.1 98.2999 182.3 100.4 185.8 100.8C188.6 101.1 192.1 100.2 194.4 98.6999C192.2 99.9999 189.3 100.6 186.8 100.3Z" fill="#166FED"/>
</g>
</g>
<defs>
<clipPath id="clip0_1382_10803">
<rect width="375" height="210" fill="white"/>
</clipPath>
</defs>
</svg>
