<?xml version="1.0" encoding="utf-8"?>
<!-- Generator: Adobe Illustrator 27.7.0, SVG Export Plug-In . SVG Version: 6.00 Build 0)  -->
<svg version="1.1" id="Layer_1" xmlns="http://www.w3.org/2000/svg" xmlns:xlink="http://www.w3.org/1999/xlink" x="0px" y="0px"
	 viewBox="0 0 470 100" style="enable-background:new 0 0 470 100;" xml:space="preserve">
<style type="text/css">
	.st0{fill:#FFFFFF;}
</style>
<g>
	<path class="st0" d="M10.3,34.8c1-3,2.6-6.1,4.5-8.9c12-17.7,36.1-22.3,54-10.4c17.7,12,22.3,36.1,10.4,54
		c-8.1,12-21.7,18.1-35.1,17l-6.9,10.1C55.2,99.9,74,92.6,85,76.6c14.6-21.7,8.9-51.3-12.8-66s-51.3-8.9-66,12.8
		c-1.6,2.4-3,5.1-4.3,7.7L10.3,34.8z"/>
	<path class="st0" d="M189.7,16.7h-15.6c-1,0-2.2,1-2.4,2l-4.5,16.8c-0.8,2-3.5,8.1-9.1,8.1c-3.7,0-7.7,0-11.8,0l0,0
		c-3.9,0-7.7,0-11.2,0c-5.3,0-5.5-4.1-5.3-5.9l5.1-19.1c0.4-1.2-0.2-2-1.4-2h-15.6c-1,0-2.2,1-2.4,2L100,76.4c-0.4,1.2,0.2,2,1.4,2
		h15.6c1,0,2.2-1,2.4-2l5.1-19.1c1-2.4,3.7-7.7,8.9-7.7c3.2,0,6.9,0,10.6,0l0,0c4.3,0,8.5,0,12.4,0c5.7,0,5.5,4.7,5.3,6.1l-5.5,20.7
		c-0.4,1.2,0.2,2,1.4,2h15.6c1,0,2.2-1,2.4-2l15.4-57.6C191.4,17.5,190.7,16.7,189.7,16.7z"/>
	<path class="st0" d="M49.3,75.6c-16.8,0-30.4-13.2-30.4-29.4s13.6-29.4,30.4-29.4c6.3,0,12.2,1.8,17,5.1
		c-5.5-4.3-12.4-6.9-19.9-6.9c-17.9,0-32.3,14.6-32.3,32.9s14.4,32.5,32.3,32.5c14,0,26.2-9.1,30.4-21.9
		C72.2,68.5,61.7,75.6,49.3,75.6z"/>
	<path class="st0" d="M196.6,37.4c0,0,3-20.7,15.4-20.7c30.4,0,55.4,0,55.4,0s9.9,0.2,8.1,7.7c-2.4,9.3-3.5,20.3-13.4,23.5
		c-13.6,4.5-42.4,7.9-42.4,7.9s-14,0.8-14.2,4.7c-0.2,2.4,2.4,3.2,5.3,3.5c2.2,0.2,48.5,0,52,0l-4.3,14.4h-66.4
		c0,0-6.5,0.4-3.9-10.4c1.6-6.5,4.3-16.2,4.3-16.2s1.2-6.1,11.4-7.3c10.4-1.2,38-5.5,38-5.5s8.5-0.2,12.2-5.1s1.2-5.9-1.6-5.9
		c-2.6,0.2-28.8,0-28.8,0s-3.7,0.2-5.1,3c-1.4,2.8-1.8,5.9-1.8,5.9L196.6,37.4z"/>
	<g>
		<path class="st0" d="M330.2,54.8l-0.5,1.8c-1.8,6.7-3.5,12.7-10.3,17.4c-6.8,4.6-13.5,4.5-20.6,4.5c-16.6,0-28.6-0.8-22.6-23.2
			l4.2-15.8c5.4-20.2,17.1-23.2,35-23.2c16.8,0,24.2,1.7,19.6,20.1l-0.6,2.4h-16.8l0.6-2.4c0.9-5.5-2.8-5.9-8.4-5.9
			c-9.3,0-11,2.9-13.3,11.6l-2.6,9.5c-2.4,9.1-3,12.6,6.8,12.6c6.8,0,10.2-0.5,12.1-7.7l0.5-1.8H330.2z"/>
		<path class="st0" d="M346.4,62.1h20.8l-3.1,11.6H330l13.4-49.9h13.3L346.4,62.1z"/>
		<path class="st0" d="M424.4,23.8l-8.9,33.3c-3.6,13.3-10.8,17-25.5,17c-20,0-20.8-5.1-17.5-17l8.9-33.3h13.3l-8.8,33
			c-1.5,5.7,1.7,5.7,7.3,5.7c5.7,0,7.7-0.5,9.3-6.3l8.7-32.4H424.4z"/>
		<path class="st0" d="M428.6,23.8h26.2c9.9,0,15.3,1.9,12.4,12.8c-1.7,6.3-4.1,10.5-10.9,11.5l-0.1,0.5c7.3,0.5,7.3,4.9,5.7,11.2
			c-3.3,12.3-9.5,13.9-20,13.9h-26.5L428.6,23.8z M436.6,43.8h9.6c4.7,0,6-0.8,7.1-4.8c0.8-3,0.6-4.1-3.1-4.3H439L436.6,43.8z
			 M431.5,62.8h10.1c4.3,0,6.4-1,7.5-5.1c1.1-4.1-0.3-4.7-4.6-4.7h-10.3L431.5,62.8z"/>
	</g>
</g>
</svg>
