<svg version="1.1" id="Layer_1" xmlns="http://www.w3.org/2000/svg" xmlns:xlink="http://www.w3.org/1999/xlink" x="0px" y="0px"
	 viewBox="0 0 800 432" style="enable-background:new 0 0 800 432;" xml:space="preserve">
<g>
	<path fill='#FFFFFF' d="M24.1,94.2c3-8.9,7.7-17.8,13-26.1c35-51.6,105.6-65.2,157.8-30.3c51.6,35,65.2,105.6,30.3,157.8
		c-23.7,35-63.5,52.8-102.6,49.8l-20.2,29.7c52.8,9.5,108-11.9,140-58.7c42.7-63.5,26.1-150.1-37.4-192.8S54.9-2.5,12.2,61
		C7.5,68.1,3.3,75.8-0.2,83.5L24.1,94.2z"/>
	<path fill='#FFFFFF' d="M548.4,41.4h-45.7c-3,0-6.5,3-7.1,5.9l-13,49.2c-2.4,5.9-10.1,23.7-26.7,23.7c-10.7,0-22.5,0-34.4,0l0,0
		c-11.3,0-22.5,0-32.6,0c-15.4,0-16-11.9-15.4-17.2l14.8-55.8c1.2-3.6-0.6-5.9-4.2-5.9h-45.7c-3,0-6.5,3-7.1,5.9l-45.1,168.5
		c-1.2,3.6,0.6,5.9,4.2,5.9h45.7c3,0,6.5-3,7.1-5.9l14.8-55.8c3-7.1,10.7-22.5,26.1-22.5c9.5,0,20.2,0,30.8,0l0,0
		c12.5,0,24.9,0,36.2,0c16.6,0,16,13.6,15.4,17.8l-16,60.5c-1.2,3.6,0.6,5.9,4.2,5.9h45.7c3,0,6.5-3,7.1-5.9l45.1-168.5
		C553.2,43.8,551.4,41.4,548.4,41.4z"/>
	<path fill='#FFFFFF' d="M138,213.4c-49.2,0-89-38.6-89-86s39.7-86,89-86c18.4,0,35.6,5.3,49.8,14.8c-16-12.5-36.2-20.2-58.1-20.2
		c-52.2,0-94.3,42.7-94.3,96.1s42.1,94.9,94.3,94.9c40.9,0,76.5-26.7,89-64.1C205,192.7,174.2,213.4,138,213.4z"/>
	<path fill='#FFFFFF' d="M568.6,101.9c0,0,8.9-60.5,45.1-60.5c89,0,161.9,0,161.9,0S804.7,42,799.3,64c-7.1,27.3-10.1,59.3-39.1,68.8
		c-39.7,13-124,23.1-124,23.1s-40.9,2.4-41.5,13.6c-0.6,7.1,7.1,9.5,15.4,10.1c6.5,0.6,141.8,0,151.8,0l-12.5,42.1h-194
		c0,0-19,1.2-11.3-30.3c4.7-19,12.5-47.5,12.5-47.5s3.6-17.8,33.2-21.4c30.3-3.6,110.9-16,110.9-16s24.9-0.6,35.6-14.8
		c10.7-14.2,3.6-17.2-4.7-17.2c-7.7,0.6-84.2,0-84.2,0s-10.7,0.6-14.8,8.9s-5.3,17.2-5.3,17.2L568.6,101.9z"/>
	<g>
		<path fill='#FFFFFF' d="M367.2,363.3l-1.4,5.2c-5.2,19.6-10.2,37.2-30.1,50.8c-19.8,13.4-39.5,13.1-60.3,13.1
			c-48.6,0-83.5-2.4-66-67.7l12.4-46.3c15.8-59.1,49.8-67.7,102.3-67.7c49.1,0,70.7,5,57.2,58.7l-1.9,6.9h-49.1l1.9-6.9
			c2.6-16-8.3-17.2-24.5-17.2c-27.2,0-32,8.3-38.9,33.9l-7.5,27.9c-7.2,26.7-8.7,37,19.9,37c19.8,0,29.7-1.4,35.3-22.4l1.4-5.2
			H367.2z"/>
		<path fill='#FFFFFF' d="M414.5,384.8h60.9l-9.1,33.9h-99.8l39.1-146h38.9L414.5,384.8z"/>
		<path fill='#FFFFFF' d="M642.5,272.7l-26.1,97.3C606,409,584.8,419.9,542,419.9c-58.4,0-60.7-14.8-51.3-49.8l26.1-97.3h38.9
			l-25.9,96.5c-4.4,16.5,4.9,16.7,21.2,16.7c16.5,0,22.6-1.4,27.1-18.5l25.4-94.8H642.5z"/>
		<path fill='#FFFFFF' d="M654.8,272.7h76.7c29,0,44.7,5.4,36.1,37.4c-5,18.5-11.9,30.6-32,33.7l-0.4,1.6c21.2,1.4,21.4,14.4,16.5,32.7
			c-9.6,35.8-27.6,40.7-58.6,40.7h-77.5L654.8,272.7z M678,331.1h28c13.6,0,17.6-2.3,20.7-14c2.3-8.8,1.9-12.1-8.9-12.5h-32.7
			L678,331.1z M663.1,386.8h29.4c12.6,0,18.7-2.9,21.9-14.8c3.2-12.1-0.8-13.8-13.4-13.8h-30.2L663.1,386.8z"/>
	</g>
</g>
</svg>
