<svg width="230" height="127" viewBox="0 0 230 127" fill="none" xmlns="http://www.w3.org/2000/svg">
<g clip-path="url(#clip0_252_2115)">
<path d="M6.98594 27.0567C7.84034 24.505 9.2057 21.9449 10.7386 19.5605C20.7987 4.75222 41.0864 0.836809 56.0886 10.8847C70.9232 20.9326 74.8434 41.1957 64.7833 56.1797C57.9649 66.2276 46.5394 71.331 35.2899 70.486L29.4934 79.0029C44.6631 81.7303 60.5197 75.5978 69.7254 62.1448C81.9969 43.9231 77.2307 19.0669 58.9868 6.80196C40.743 -5.46299 15.8566 -0.694219 3.57674 17.5275C2.21138 19.5689 1.02192 21.786 0 23.9946L6.98594 27.0567Z" fill="#00092A"/>
<path d="M157.695 11.9052H144.569C143.714 11.9052 142.692 12.7586 142.525 13.6119L138.772 27.7426C138.094 29.4493 135.874 34.5527 131.1 34.5527H111.834C107.403 34.5527 107.227 31.1476 107.403 29.6166L111.666 13.6119C112.01 12.5912 111.499 11.9052 110.477 11.9052H97.3509C96.4965 11.9052 95.4746 12.7586 95.307 13.6119L82.3487 61.969C82.0053 62.9897 82.5162 63.6757 83.5382 63.6757H96.664C97.5184 63.6757 98.5403 62.8223 98.7079 61.969L102.971 45.9643C103.826 43.9229 106.037 39.4972 110.477 39.4972H129.743C134.517 39.4972 134.35 43.4126 134.174 44.609L129.567 61.9773C129.223 62.998 129.734 63.6841 130.756 63.6841H143.882C144.736 63.6841 145.758 62.8307 145.926 61.9773L158.884 13.6203C159.052 12.5996 158.541 11.9136 157.695 11.9136V11.9052Z" fill="#00092A"/>
<path d="M39.7209 61.2829C25.5732 61.2829 14.1477 50.2143 14.1477 36.594C14.1477 22.9738 25.5732 11.9052 39.7209 11.9052C45.0065 11.9052 49.9486 13.4362 54.0446 16.1636C49.4376 12.5912 43.6411 10.3741 37.3337 10.3741C22.3315 10.3741 10.2275 22.6307 10.2275 37.9577C10.2275 53.2848 22.3315 65.1983 37.3337 65.1983C49.0942 65.1983 59.3302 57.5348 62.9069 46.8093C58.9867 55.3261 50.1245 61.2829 39.7209 61.2829Z" fill="#166FEF"/>
<path d="M163.491 29.1062C163.491 29.1062 166.046 11.7379 176.449 11.7379H222.989C222.989 11.7379 231.34 11.9052 229.807 18.205C227.763 26.0358 226.909 35.2303 218.558 37.9577C207.132 41.7058 182.924 44.6006 182.924 44.6006C182.924 44.6006 171.164 45.2782 170.988 48.516C170.82 50.5574 173.032 51.2434 175.419 51.4107C177.295 51.578 216.162 51.4107 219.06 51.4107L215.484 63.5H159.738C159.738 63.5 154.285 63.843 156.497 54.8158C157.862 49.3693 160.074 41.1955 160.074 41.1955C160.074 41.1955 161.095 36.0837 169.623 35.063C178.317 34.0423 201.503 30.4616 201.503 30.4616C201.503 30.4616 208.665 30.2942 211.731 26.2031C214.797 22.1204 212.753 21.267 210.366 21.267C208.146 21.4344 186.158 21.267 186.158 21.267C186.158 21.267 183.092 21.4344 181.894 23.8187C180.705 26.2031 180.361 28.7549 180.361 28.7549L163.483 29.0979L163.491 29.1062Z" fill="#00092A"/>
<path d="M71.0239 118.065L66.065 127H51.6492L81.1761 75.0706H102.251L104.128 127H89.9881L89.6782 118.065H71.0322H71.0239ZM89.2007 85.4531H89.0583L76.7115 107.958H89.6028L89.1923 85.4531H89.2007Z" fill="#166FEF"/>
<path d="M106.942 123.428L118.225 81.3704H139.392C149.838 81.3704 152.577 85.8045 149.628 96.7894C146.454 108.619 142.734 112.66 130.999 112.66H121.065L118.175 123.428H106.942ZM131.368 102.905C135.849 102.738 136.603 102.236 138.06 96.7894C139.216 92.4724 138.906 91.1254 134.525 91.1254H126.836L123.678 102.905H131.368Z" fill="#166FEF"/>
<path d="M145.717 123.428L157 81.3704H178.167C188.612 81.3704 191.351 85.8045 188.403 96.7894C185.228 108.619 181.509 112.66 169.774 112.66H159.839L156.949 123.428H145.717ZM170.142 102.905C174.624 102.738 175.377 102.236 176.835 96.7894C177.991 92.4724 177.681 91.1254 173.3 91.1254H165.611L162.453 102.905H170.142Z" fill="#166FEF"/>
<path fill-rule="evenodd" clip-rule="evenodd" d="M37.5 66C53.2401 66 66 53.2401 66 37.5C66 21.7599 53.2401 9 37.5 9C21.7599 9 9 21.7599 9 37.5C9 53.2401 21.7599 66 37.5 66ZM37.5 61.25C50.6168 61.25 61.25 50.6168 61.25 37.5C61.25 24.3832 50.6168 13.75 37.5 13.75C24.3832 13.75 13.75 24.3832 13.75 37.5C13.75 50.6168 24.3832 61.25 37.5 61.25Z" fill="url(#paint0_angular_252_2115)"/>
<path fill-rule="evenodd" clip-rule="evenodd" d="M63.1063 31.8016C64.4072 31.6338 65.5978 32.5523 65.7657 33.8532C65.9217 35.0626 65.9999 36.2806 65.9999 37.5C65.9999 38.8117 64.9366 39.875 63.6249 39.875C62.3133 39.875 61.2499 38.8117 61.2499 37.5C61.2499 36.4839 61.1847 35.4688 61.0547 34.461C60.8869 33.1601 61.8054 31.9695 63.1063 31.8016Z" fill="#127FF9"/>
</g>
<defs>
<radialGradient id="paint0_angular_252_2115" cx="0" cy="0" r="1" gradientUnits="userSpaceOnUse" gradientTransform="translate(37.5 37.5) scale(28.5)">
<stop stop-color="#27AE60" stop-opacity="0"/>
<stop offset="0.0001" stop-color="#146DED" stop-opacity="0"/>
<stop offset="1" stop-color="#146DED"/>
</radialGradient>
<clipPath id="clip0_252_2115">
<rect width="230" height="127" fill="white"/>
</clipPath>
</defs>
</svg>
