<svg width="800" height="432" viewBox="0 0 800 432" fill="none" xmlns="http://www.w3.org/2000/svg">
<path d="M24.1 94.2C27.1 85.3 31.8 76.4 37.1 68.1C72.1 16.5 142.7 2.90001 194.9 37.8C246.5 72.8 260.1 143.4 225.2 195.6C201.5 230.6 161.7 248.4 122.6 245.4L102.4 275.1C155.2 284.6 210.4 263.2 242.4 216.4C285.1 152.9 268.5 66.3 205 23.6C141.5 -19.1 54.9 -2.49998 12.2 61C7.50005 68.1 3.30005 75.8 -0.199951 83.5L24.1 94.2Z" fill="#00092A"/>
<path d="M548.4 41.4001H502.7C499.7 41.4001 496.2 44.4 495.6 47.3L482.6 96.5C480.2 102.4 472.5 120.2 455.9 120.2C445.2 120.2 433.4 120.2 421.5 120.2C410.2 120.2 399 120.2 388.9 120.2C373.5 120.2 372.9 108.3 373.5 103L388.3 47.2001C389.5 43.6001 387.7 41.3 384.1 41.3H338.4C335.4 41.3 331.9 44.3001 331.3 47.2001L286.2 215.7C285 219.3 286.8 221.6 290.4 221.6H336.1C339.1 221.6 342.6 218.6 343.2 215.7L358 159.9C361 152.8 368.7 137.4 384.1 137.4C393.6 137.4 404.3 137.4 414.9 137.4C427.4 137.4 439.8 137.4 451.1 137.4C467.7 137.4 467.1 151 466.5 155.2L450.5 215.7C449.3 219.3 451.1 221.6 454.7 221.6H500.4C503.4 221.6 506.9 218.6 507.5 215.7L552.6 47.2001C553.2 43.8001 551.4 41.4001 548.4 41.4001Z" fill="#00092A"/>
<path d="M138 213.4C88.8 213.4 49 174.8 49 127.4C49 80 88.7 41.4 138 41.4C156.4 41.4 173.6 46.7 187.8 56.2C171.8 43.7 151.6 36 129.7 36C77.5 36 35.4 78.7 35.4 132.1C35.4 185.5 77.5 227 129.7 227C170.6 227 206.2 200.3 218.7 162.9C205 192.7 174.2 213.4 138 213.4Z" fill="#166FED"/>
<path d="M568.6 101.9C568.6 101.9 577.5 41.3999 613.7 41.3999C702.7 41.3999 775.6 41.3999 775.6 41.3999C775.6 41.3999 804.7 41.9999 799.3 63.9999C792.2 91.2999 789.2 123.3 760.2 132.8C720.5 145.8 636.2 155.9 636.2 155.9C636.2 155.9 595.3 158.3 594.7 169.5C594.1 176.6 601.8 179 610.1 179.6C616.6 180.2 751.9 179.6 761.9 179.6L749.4 221.7H555.4C555.4 221.7 536.4 222.9 544.1 191.4C548.8 172.4 556.6 143.9 556.6 143.9C556.6 143.9 560.2 126.1 589.8 122.5C620.1 118.9 700.7 106.5 700.7 106.5C700.7 106.5 725.6 105.9 736.3 91.6999C747 77.4999 739.9 74.4999 731.6 74.4999C723.9 75.0999 647.4 74.4999 647.4 74.4999C647.4 74.4999 636.7 75.0999 632.6 83.3999C628.5 91.6999 627.3 100.6 627.3 100.6L568.6 101.9Z" fill="#00092A"/>
<path d="M367.2 363.3L365.8 368.5C360.6 388.1 355.6 405.7 335.7 419.3C315.9 432.7 296.2 432.4 275.4 432.4C226.8 432.4 191.9 430 209.4 364.7L221.8 318.4C237.6 259.3 271.6 250.7 324.1 250.7C373.2 250.7 394.8 255.7 381.3 309.4L379.4 316.3H330.3L332.2 309.4C334.8 293.4 323.9 292.2 307.7 292.2C280.5 292.2 275.7 300.5 268.8 326.1L261.3 354C254.1 380.7 252.6 391 281.2 391C301 391 310.9 389.6 316.5 368.6L317.9 363.4H367.2V363.3Z" fill="#166FED"/>
<path d="M414.5 384.8H475.4L466.3 418.7H366.5L405.6 272.7H444.5L414.5 384.8Z" fill="#166FED"/>
<path d="M642.5 272.7L616.4 370C606 409 584.8 419.9 542 419.9C483.6 419.9 481.3 405.1 490.7 370.1L516.8 272.8H555.7L529.8 369.3C525.4 385.8 534.7 386 551 386C567.5 386 573.6 384.6 578.1 367.5L603.5 272.7H642.5Z" fill="#166FED"/>
<path d="M654.8 272.7H731.5C760.5 272.7 776.2 278.1 767.6 310.1C762.6 328.6 755.7 340.7 735.6 343.8L735.2 345.4C756.4 346.8 756.6 359.8 751.7 378.1C742.1 413.9 724.1 418.8 693.1 418.8H615.6L654.8 272.7ZM678 331.1H706C719.6 331.1 723.6 328.8 726.7 317.1C729 308.3 728.6 305 717.8 304.6H685.1L678 331.1ZM663.1 386.8H692.5C705.1 386.8 711.2 383.9 714.4 372C717.6 359.9 713.6 358.2 701 358.2H670.8L663.1 386.8Z" fill="#166FED"/>
</svg>
