<svg width="86" height="19" viewBox="0 0 86 19" fill="none" xmlns="http://www.w3.org/2000/svg">
<path d="M1.63059 6.32829C1.83002 5.73145 2.14871 5.13264 2.5065 4.57493C4.85463 1.11127 9.58999 0.195458 13.0917 2.54566C16.5542 4.89586 17.4692 9.6354 15.1211 13.1402C13.5296 15.4904 10.8628 16.6841 8.23703 16.4864L6.88407 18.4785C10.4248 19.1164 14.1259 17.6821 16.2746 14.5354C19.1389 10.2733 18.0264 4.45948 13.7681 1.59071C9.50983 -1.27807 3.70109 -0.162649 0.834847 4.09942C0.516159 4.57689 0.238528 5.09546 0 5.61208L1.63059 6.32829Z" fill="white"/>
<path d="M36.8076 2.7843H33.7439C33.5444 2.7843 33.3059 2.9839 33.2668 3.1835L32.3909 6.48866C32.2325 6.88786 31.7144 8.08155 30.6 8.08155H26.1031C25.0689 8.08155 25.0278 7.28511 25.0689 6.927L26.064 3.1835C26.1442 2.94477 26.0249 2.7843 25.7864 2.7843H22.7227C22.5233 2.7843 22.2847 2.9839 22.2456 3.1835L19.221 14.4942C19.1409 14.733 19.2601 14.8934 19.4987 14.8934H22.5624C22.7618 14.8934 23.0003 14.6938 23.0394 14.4942L24.0346 10.7507C24.234 10.2732 24.7502 9.23806 25.7864 9.23806H30.2832C31.3977 9.23806 31.3586 10.1539 31.3175 10.4337L30.2422 14.4962C30.162 14.7349 30.2813 14.8954 30.5198 14.8954H33.5835C33.783 14.8954 34.0215 14.6958 34.0606 14.4962L37.0852 3.18546C37.1243 2.94672 37.005 2.78626 36.8076 2.78626V2.7843Z" fill="white"/>
<path d="M9.27134 14.3338C5.9691 14.3338 3.30228 11.7449 3.30228 8.55907C3.30228 5.37329 5.9691 2.78435 9.27134 2.78435C10.505 2.78435 11.6586 3.14245 12.6146 3.78039C11.5393 2.94481 10.1863 2.42624 8.71412 2.42624C5.21245 2.42624 2.38727 5.29305 2.38727 8.87804C2.38727 12.463 5.21245 15.2496 8.71412 15.2496C11.4591 15.2496 13.8483 13.4571 14.6832 10.9484C13.7682 12.9405 11.6996 14.3338 9.27134 14.3338Z" fill="#166FEF"/>
<path d="M38.1608 6.80764C38.1608 6.80764 38.7571 2.74518 41.1854 2.74518H52.0482C52.0482 2.74518 53.9974 2.78432 53.6397 4.25784C53.1626 6.08947 52.9632 8.24007 51.0139 8.87801C48.3471 9.75469 42.6967 10.4318 42.6967 10.4318C42.6967 10.4318 39.9517 10.5903 39.9106 11.3476C39.8715 11.8251 40.3877 11.9855 40.9449 12.0247C41.3828 12.0638 50.4547 12.0247 51.1312 12.0247L50.2964 14.8523H37.2849C37.2849 14.8523 36.0121 14.9326 36.5282 12.8211C36.8469 11.5472 37.3631 9.63532 37.3631 9.63532C37.3631 9.63532 37.6016 8.43967 39.5919 8.20093C41.6214 7.9622 47.0332 7.12465 47.0332 7.12465C47.0332 7.12465 48.7049 7.08552 49.4205 6.12861C50.136 5.17365 49.659 4.97405 49.1018 4.97405C48.5836 5.01319 43.4514 4.97405 43.4514 4.97405C43.4514 4.97405 42.7358 5.01319 42.4562 5.5709C42.1786 6.12861 42.0984 6.72545 42.0984 6.72545L38.1588 6.80568L38.1608 6.80764Z" fill="white"/>
<path d="M58.2057 13.2968L57.0483 15.3867H53.6835L60.5754 3.24042H65.4945L65.9325 15.3867H62.6322L62.5598 13.2968H58.2077H58.2057ZM62.4484 5.66889H62.4152L59.5333 10.9329H62.5422L62.4464 5.66889H62.4484Z" fill="#166FEF"/>
<path d="M66.5894 14.5511L69.223 4.71393H74.1637C76.6017 4.71393 77.2411 5.75107 76.5528 8.32044C75.8118 11.0875 74.9438 12.0326 72.2046 12.0326H69.8858L69.2113 14.5511H66.5894ZM72.2906 9.75091C73.3366 9.71178 73.5126 9.59436 73.8528 8.32044C74.1226 7.3107 74.0503 6.99564 73.0277 6.99564H71.2329L70.4958 9.75091H72.2906Z" fill="#166FEF"/>
<path d="M75.6398 14.5511L78.2734 4.71393H83.2141C85.6521 4.71393 86.2915 5.75107 85.6033 8.32044C84.8623 11.0875 83.9942 12.0326 81.255 12.0326H78.9362L78.2617 14.5511H75.6398ZM81.341 9.75091C82.387 9.71178 82.563 9.59436 82.9032 8.32044C83.173 7.3107 83.1007 6.99564 82.0781 6.99564H80.2833L79.5462 9.75091H81.341Z" fill="#166FEF"/>
</svg>
