<svg width="226" height="125" viewBox="0 0 226 125" fill="none" xmlns="http://www.w3.org/2000/svg">
<path d="M6.85865 26.6298C7.69748 24.1182 9.03796 21.5984 10.5429 19.2516C20.4197 4.6763 40.3377 0.822499 55.0666 10.7123C69.6309 20.602 73.4797 40.5463 63.6029 55.2945C56.9087 65.1843 45.6914 70.2074 34.6469 69.3757L28.956 77.7585C43.8493 80.443 59.417 74.407 68.4549 61.1658C80.5028 43.2308 75.8235 18.7657 57.912 6.69378C40.0006 -5.37817 15.5677 -0.684436 3.51156 17.2506C2.17108 19.2598 1.0033 21.442 0 23.6159L6.85865 26.6298Z" fill="white"/>
<path d="M154.822 11.7164H141.935C141.097 11.7164 140.093 12.5564 139.929 13.3963L136.245 27.3046C135.578 28.9844 133.399 34.0075 128.712 34.0075H109.797C105.446 34.0075 105.274 30.656 105.446 29.1491L109.632 13.3963C109.97 12.3917 109.468 11.7164 108.465 11.7164H95.5779C94.7391 11.7164 93.7358 12.5564 93.5713 13.3963L80.8491 60.9924C80.5119 61.997 81.0136 62.6722 82.0169 62.6722H94.9036C95.7424 62.6722 96.7457 61.8323 96.9102 60.9924L101.096 45.2396C101.935 43.2303 104.106 38.8742 108.465 38.8742H127.379C132.067 38.8742 131.902 42.728 131.73 43.9055L127.207 61.0006C126.869 62.0052 127.371 62.6805 128.374 62.6805H141.261C142.1 62.6805 143.103 61.8405 143.268 61.0006L155.99 13.4045C156.154 12.3999 155.653 11.7247 154.822 11.7247V11.7164Z" fill="white"/>
<path d="M38.9974 60.3169C25.1074 60.3169 13.8901 49.4225 13.8901 36.0165C13.8901 22.6106 25.1074 11.7162 38.9974 11.7162C44.1866 11.7162 49.0386 13.2231 53.0601 15.9076C48.537 12.3914 42.8461 10.2092 36.6536 10.2092C21.9248 10.2092 10.0414 22.2729 10.0414 37.3588C10.0414 52.4446 21.9248 64.1707 36.6536 64.1707C48.1998 64.1707 58.2493 56.6278 61.7609 46.071C57.9121 54.4538 49.2113 60.3169 38.9974 60.3169Z" fill="#166FEF"/>
<path d="M160.512 28.6466C160.512 28.6466 163.02 11.5515 173.234 11.5515H218.926C218.926 11.5515 227.125 11.7162 225.62 17.9169C223.613 25.6245 222.775 34.6743 214.576 37.3588C203.358 41.0479 179.591 43.8971 179.591 43.8971C179.591 43.8971 168.045 44.5641 167.873 47.7509C167.708 49.7601 169.879 50.4354 172.223 50.6001C174.065 50.7648 212.223 50.6001 215.069 50.6001L211.557 62.4991H156.828C156.828 62.4991 151.474 62.8367 153.645 53.9516C154.986 48.5908 157.157 40.5456 157.157 40.5456C157.157 40.5456 158.16 35.5142 166.532 34.5096C175.068 33.505 197.832 29.9806 197.832 29.9806C197.832 29.9806 204.863 29.8159 207.873 25.7892C210.883 21.7707 208.876 20.9307 206.533 20.9307C204.353 21.0954 182.766 20.9307 182.766 20.9307C182.766 20.9307 179.756 21.0954 178.58 23.4423C177.412 25.7892 177.075 28.3007 177.075 28.3007L160.504 28.6383L160.512 28.6466Z" fill="white"/>
<path d="M69.7287 116.206L64.8602 125H50.707L79.6959 73.8878H100.387L102.229 125H88.3474L88.0431 116.206H69.7369H69.7287ZM87.5743 84.107H87.4345L75.3126 106.258H87.9691L87.5661 84.107H87.5743Z" fill="white"/>
<path d="M104.992 121.484L116.069 80.0884H136.851C147.106 80.0884 149.795 84.4527 146.9 95.2648C143.783 106.909 140.132 110.886 128.61 110.886H118.857L116.02 121.484H104.992ZM128.972 101.284C133.372 101.12 134.112 100.626 135.543 95.2648C136.678 91.0157 136.374 89.6899 132.073 89.6899H124.523L121.423 101.284H128.972Z" fill="white"/>
<path d="M143.06 121.484L154.138 80.0884H174.919C185.174 80.0884 187.863 84.4527 184.969 95.2648C181.852 106.909 178.2 110.886 166.679 110.886H156.926L154.088 121.484H143.06ZM167.041 101.284C171.441 101.12 172.181 100.626 173.612 95.2648C174.746 91.0157 174.442 89.6899 170.141 89.6899H162.592L159.491 101.284H167.041Z" fill="white"/>
</svg>
