<svg width="276" height="295" viewBox="0 0 276 295" fill="none" xmlns="http://www.w3.org/2000/svg">
<g clip-path="url(#clip0_1668_194)">
<path d="M193.236 281.694C189.188 284.061 184.745 286.159 180.082 287.901C172.252 290.848 163.72 292.857 154.925 293.973C143.888 295.357 132.413 295.357 121.335 293.929C112.499 292.768 103.972 290.714 96.1054 287.767C91.4471 286.026 87.0091 283.927 82.9232 281.516C78.8373 279.105 75.2792 276.515 72.2928 273.791C67.2424 269.192 63.7314 264.147 61.8032 259.012C59.3492 252.538 59.3082 250.127 61.7345 243.652C63.6316 238.473 67.1112 233.472 72.1292 228.873C75.0783 226.149 78.5989 223.559 82.6908 221.193C86.7387 218.827 91.182 216.728 95.8447 214.987C103.674 212.04 112.207 210.03 121.001 208.914C132.039 207.53 143.514 207.53 154.592 208.959C163.428 210.12 171.955 212.174 179.821 215.121C184.48 216.862 188.918 218.96 193.003 221.372C197.089 223.783 200.647 226.372 203.634 229.096C208.684 233.695 212.195 238.741 214.123 243.875C216.577 250.35 216.618 252.761 214.192 259.235C212.295 264.415 208.815 269.416 203.797 274.015C200.848 276.738 197.328 279.328 193.236 281.694Z" fill="#D0CEC9"/>
<path d="M180.126 287.901L180.144 273.389L154.987 279.462L154.969 293.973C143.932 295.357 132.456 295.357 121.378 293.929L121.397 279.417L96.1673 273.255L96.1492 287.767C91.4909 286.026 87.0528 283.927 82.9669 281.516C78.881 279.105 75.323 276.515 72.3366 273.791L72.3548 259.28L61.8212 244.456L61.8031 258.967C60.6199 255.886 60.0083 252.716 59.9243 249.546C59.8407 246.108 59.9428 234.722 59.9428 234.722L72.0851 228.828C75.0343 226.105 78.5548 223.515 82.6467 221.148C86.6946 218.782 91.1379 216.683 95.8006 214.942L126.637 237.58L121.001 208.869C132.039 207.485 143.514 207.485 154.592 208.914L149.192 237.624L179.821 215.076C184.479 216.817 188.917 218.916 193.003 221.327C197.089 223.738 200.647 226.328 203.634 229.051L165.184 247.001L214.167 243.875C213.951 241.062 215.895 233.65 216.023 236.642C216.023 236.865 216.007 249.01 216.007 249.234C216.003 252.582 215.427 255.931 214.236 259.235L214.254 244.724L203.859 259.503L203.841 274.015C200.892 276.738 197.371 279.328 193.28 281.694C189.232 284.061 184.788 286.159 180.126 287.901Z" fill="#166FED"/>
<path d="M193.254 267.183C189.206 269.55 184.763 271.648 180.1 273.389C172.27 276.336 163.738 278.346 154.943 279.462C143.906 280.846 132.431 280.846 121.353 279.417C112.517 278.256 103.99 276.202 96.1235 273.256C91.4652 271.514 87.0272 269.416 82.9413 267.004C78.8554 264.593 75.2973 262.004 72.311 259.28C67.2605 254.681 63.7495 249.635 61.8214 244.501C59.3673 238.026 59.3318 231.284 61.7581 224.81C63.6551 219.63 67.1347 214.629 72.1527 210.03C75.1019 207.307 78.6225 204.717 82.7144 202.351C86.7623 199.984 91.2056 197.886 95.8682 196.144C103.698 193.197 112.23 191.188 121.025 190.072C132.062 188.688 143.538 188.688 154.616 190.116C163.451 191.277 171.978 193.331 179.845 196.278C184.503 198.019 188.941 200.118 193.027 202.529C197.113 204.94 200.671 207.53 203.657 210.254C208.708 214.853 212.219 219.898 214.147 225.033C216.601 231.507 216.637 238.25 214.21 244.724C212.313 249.903 208.834 254.904 203.816 259.503C200.866 262.227 197.346 264.817 193.254 267.183Z" fill="#D6D4D0"/>
<path d="M212.477 224.274C210.549 219.228 207.125 214.317 202.207 209.807C199.264 207.128 195.794 204.583 191.796 202.217C187.798 199.85 183.448 197.841 178.878 196.099C171.187 193.197 162.836 191.188 154.176 190.072C143.362 188.643 132.106 188.643 121.289 190.027C112.67 191.143 104.313 193.108 96.6596 195.965C92.085 197.662 87.7737 199.671 83.8137 202.038C79.8538 204.36 76.3772 206.905 73.4721 209.584C68.5861 214.094 65.1946 218.96 63.2977 224.006C60.9595 230.346 60.9953 236.91 63.3615 243.295C65.2897 248.34 68.713 253.252 73.6317 257.762C76.5741 260.441 80.0443 262.986 84.0423 265.352C88.0403 267.719 92.3906 269.728 96.9609 271.469C104.652 274.372 113.003 276.381 121.663 277.497C132.477 278.926 143.732 278.926 154.55 277.542C163.169 276.426 171.525 274.461 179.179 271.603C183.753 269.907 188.065 267.897 192.025 265.531C195.985 263.164 199.461 260.664 202.366 257.985C207.252 253.475 210.644 248.608 212.541 243.563C214.879 237.223 214.843 230.614 212.477 224.274Z" fill="#EEEEEE"/>
<path d="M180.144 273.345L149.308 250.707L154.944 279.417C143.906 280.801 132.431 280.801 121.353 279.373L126.753 250.662L96.1236 273.211C91.4653 271.469 87.0273 269.371 82.9414 266.96C78.8555 264.549 75.2974 261.959 72.311 259.235L110.761 241.286L61.8214 244.456C59.3674 237.982 59.3318 231.239 61.7581 224.765L110.733 228.114L72.1088 209.986C75.058 207.262 78.5786 204.672 82.6705 202.306C86.7184 199.939 91.1617 197.841 95.8243 196.099L126.661 218.737L120.981 190.027C132.018 188.643 143.494 188.643 154.572 190.072L149.172 218.782L179.801 196.233C184.459 197.975 188.897 200.073 192.983 202.484C197.069 204.896 200.627 207.485 203.613 210.209L165.164 228.158L214.147 224.988C216.601 231.463 216.637 238.205 214.21 244.679L165.235 241.33L203.86 259.414C200.911 262.137 197.39 264.727 193.298 267.094C189.25 269.46 184.807 271.559 180.144 273.3L180.144 273.345Z" fill="#127FF9"/>
<path d="M73.5601 209.539C76.4652 206.86 79.8978 204.36 83.9017 201.993C87.6856 199.805 91.7329 197.885 96.0438 196.233L95.8681 196.099C91.2054 197.841 86.8061 199.895 82.7142 202.306C78.6663 204.672 75.1457 207.262 72.1526 209.986L72.7677 210.298C73.0318 210.03 73.2959 209.807 73.5601 209.539Z" fill="#127FF9"/>
<path d="M63.4495 243.25C61.1708 237.178 61.0467 230.927 63.0768 224.854L61.7579 224.765C59.3756 231.239 59.4111 237.982 61.8212 244.456L63.8878 244.322C63.7564 243.965 63.581 243.608 63.4495 243.25Z" fill="#127FF9"/>
<path d="M154.22 190.072C154.22 190.072 154.439 190.072 154.571 190.116C150.395 189.536 146.175 189.223 141.91 189.089C146.043 189.223 150.175 189.58 154.22 190.072Z" fill="#127FF9"/>
<path d="M191.84 202.217C195.838 204.583 199.308 207.083 202.251 209.807C202.514 210.075 202.778 210.298 203.041 210.566L203.657 210.254C200.671 207.53 197.113 204.896 193.027 202.529C188.941 200.163 184.503 198.064 179.845 196.278L179.669 196.412C183.975 198.064 188.062 199.984 191.84 202.217Z" fill="#127FF9"/>
<path d="M121.376 190.027C126.785 189.313 132.282 189 137.777 189C132.15 189 126.521 189.313 120.981 190.027C120.981 190.027 121.201 190.027 121.333 190.027H121.376Z" fill="#127FF9"/>
<path d="M192.069 265.486C188.109 267.808 183.754 269.817 179.223 271.559C178.871 271.693 178.519 271.827 178.167 271.916L180.1 273.345C184.763 271.603 189.162 269.549 193.254 267.138C197.302 264.772 200.822 262.182 203.815 259.458L201.794 258.521C199.021 260.977 195.809 263.343 192.069 265.486Z" fill="#127FF9"/>
<path d="M214.147 225.033L212.828 225.122C214.93 231.195 214.835 237.49 212.585 243.518C212.452 243.875 212.32 244.233 212.144 244.59L214.21 244.724C216.592 238.249 216.557 231.507 214.147 225.033Z" fill="#127FF9"/>
<path d="M121.707 277.453L121.353 279.373C132.431 280.801 143.906 280.846 154.943 279.417L154.55 277.497C143.732 278.881 132.521 278.837 121.707 277.453Z" fill="#127FF9"/>
<path d="M97.0489 271.425C92.4785 269.728 88.1283 267.674 84.1303 265.308C80.3959 263.12 77.1453 260.753 74.3784 258.298L72.3548 259.235C75.3411 261.959 78.8992 264.593 82.9851 266.96C87.0711 269.326 91.5091 271.425 96.1674 273.211L98.1037 271.782C97.7521 271.648 97.4005 271.559 97.0489 271.425Z" fill="#127FF9"/>
<path d="M179.283 258.967C156.579 272.273 119.691 272.184 96.8888 258.833C74.0868 245.438 73.9819 223.827 96.6854 210.522C119.389 197.216 156.277 197.305 179.079 210.655C201.881 224.051 201.986 245.661 179.283 258.967Z" fill="#166FED"/>
<path d="M176.996 259.503C155.524 272.05 120.702 272.005 99.1304 259.369C77.5585 246.733 77.4961 226.283 98.9238 213.692C120.395 201.145 155.217 201.19 176.789 213.826C198.361 226.462 198.423 246.912 176.996 259.503Z" fill="#127FF9"/>
<path d="M169 254.815C151.928 264.817 124.185 264.772 107.05 254.681C89.9159 244.635 89.8483 228.337 106.92 218.38C123.992 208.378 151.735 208.423 168.869 218.514C186.004 228.56 186.071 244.858 169 254.815Z" fill="#EEEEEE"/>
</g>
<g clip-path="url(#clip1_1668_194)">
<path opacity="0.53" d="M138.83 249.04L0 48H275.47L138.83 249.04Z" fill="url(#paint0_linear_1668_194)"/>
</g>
<g clip-path="url(#clip2_1668_194)">
<path d="M140.692 38.7032C142.616 39.0881 146.611 40.0959 147.949 38.0252C148.022 37.1822 148.058 36.3392 148.077 35.5146C147.765 35.7528 147.454 35.9361 147.142 36.0277C146.208 35.2764 145.236 34.2318 144.448 33.3705C144.045 32.949 143.587 32.5459 143.111 32.1427C142.341 34.3968 140.545 36.4309 139.134 38.3184C139.61 38.465 140.142 38.5749 140.692 38.7032Z" fill="#F89C69"/>
<path d="M153.08 46.3632C152.145 43.6144 151.669 40.6823 151.724 37.7686C151.357 37.4754 150.991 37.2372 150.624 36.9989C150.532 39.7661 149.525 42.2767 148.773 44.9155C148.187 46.8947 147.417 48.9837 146.299 50.743C146.208 51.0362 146.116 51.2927 146.079 51.4577C145.859 52.1357 145.658 52.8138 145.475 53.4918C148.352 56.9186 151.485 62.1964 154.344 65.6232C155.297 66.8693 156.378 68.0605 157.514 69.16C158.284 69.9297 159.054 70.6627 159.842 71.359C160.19 71.6889 160.575 72.0004 160.96 72.2753C157.954 65.4033 154.876 51.531 153.318 47.0779C153.226 46.8397 153.153 46.6014 153.08 46.3632Z" fill="#261721"/>
<path d="M142.964 51.0362C142.854 52.9054 143.166 53.4185 142.03 54.7563C141.297 55.5992 140.38 56.3139 139.537 57.0469C136.752 59.5392 130.081 69.0317 127.479 71.8355C127.443 72.147 127.424 72.4769 127.388 72.8251C126.783 79.917 126.71 90.2708 127.186 99.3236C127.461 104.235 127.882 108.779 128.487 112.206C129.385 112.536 130.301 112.829 131.254 113.104C133.362 113.691 135.616 114.13 137.998 114.607C139.262 114.864 140.563 115.12 141.92 115.395C143.037 115.67 144.1 115.835 145.108 115.89C147.381 111.088 148.004 105.481 148.004 99.8367C147.252 99.6718 145.108 99.0854 143.001 98.5173C141.187 98.0042 139.372 97.5094 138.401 97.2895C137.961 95.3653 137.741 93.3678 137.265 91.7369C140.637 93.093 144.76 94.1008 147.93 95.9334C147.784 92.2133 147.49 88.5666 147.326 85.1947C146.556 85.3596 145.768 85.8178 145.31 86.6058C145.475 84.5717 146.244 82.0977 147.179 80.3751C145.768 81.3097 144.375 82.4093 143.129 83.6371C141.883 77.1132 143.129 69.1783 143.917 62.6545C144.284 59.5942 144.668 56.5521 145.475 53.4918C145.658 52.8138 145.86 52.1357 146.079 51.4577C146.116 51.2928 146.208 51.0362 146.299 50.743C146.006 51.2195 145.695 51.6593 145.346 52.0624C144.632 51.5493 143.789 51.3477 142.964 51.0362Z" fill="#221F21"/>
<path d="M145.475 53.4918C144.668 56.5521 144.283 59.5941 143.917 62.6545C143.129 69.1783 141.883 77.1132 143.129 83.637C144.375 82.4092 145.768 81.3097 147.179 80.3751C146.244 82.0977 145.475 84.5716 145.31 86.6058C145.768 85.8178 146.556 85.3596 147.325 85.1947C147.49 88.5666 147.784 92.2133 147.93 95.9334C148.15 96.0617 148.352 96.1899 148.572 96.3182C148.572 97.5643 148.572 98.8105 148.15 99.855C148.113 99.855 148.059 99.8367 148.004 99.8367C148.004 105.481 147.38 111.088 145.108 115.89C148.535 116.11 151.467 115.193 154.399 113.452C155.279 112.939 156.177 112.335 157.056 111.675C155.957 102.75 154.417 91.4986 154.582 80.7783H154.527C155.554 76.7284 156.873 71.4873 157.514 69.16C156.378 68.0605 155.297 66.8693 154.344 65.6232C151.485 62.1964 148.352 56.9186 145.475 53.4918Z" fill="#1C191B"/>
<path d="M171.643 62.3063C170.837 59.0994 170.379 55.8924 169.572 52.6855C169.169 50.6514 168.4 48.5256 167.978 46.3815L167.612 46.4365C167.135 43.7793 166.439 41.1405 165.339 38.5932C164.24 35.9544 162.719 33.4438 161.803 30.7133L161.564 30.805C161.216 30.9699 160.85 31.1348 160.483 31.2814C157.588 32.5092 154.491 33.2239 152.273 35.6062L152.163 35.4963C151.742 34.9282 151.449 34.2135 151.064 33.6454C151.357 33.1689 151.76 32.6925 152.237 32.271L152.163 32.1794C151.779 32.2893 151.43 32.3443 151.119 32.3076C150.514 32.9124 149.854 33.7553 149.158 34.5067C149.213 34.635 149.25 34.7449 149.286 34.8549C149.763 35.3313 150.294 35.8628 150.642 36.4125C150.642 36.6141 150.642 36.8157 150.642 36.9989C151.009 37.2372 151.375 37.4754 151.742 37.7686C153.904 39.3079 156.232 41.3787 158.229 42.8447V42.918C157.258 42.8814 154.821 44.2191 153.098 46.3632C153.171 46.6014 153.245 46.8397 153.336 47.0779C154.894 51.531 157.973 65.4033 160.978 72.2753C162.096 73.1183 163.287 73.778 164.368 74.621C167.007 74.8409 170.562 72.7518 172.23 71.469L172.633 71.524C172.944 68.7568 172.248 64.6153 171.662 62.3063H171.643Z" fill="#221F21"/>
<path d="M151.064 33.6454C151.449 34.2135 151.742 34.9282 152.163 35.4963L152.273 35.6062C154.491 33.2239 157.588 32.5092 160.483 31.2814C160.245 30.4385 159.622 29.5955 159.109 28.9358C158.522 29.0457 157.899 29.2107 157.276 29.4122C155.462 30.017 153.575 31.0065 152.237 32.271C151.76 32.6925 151.357 33.1689 151.064 33.6454Z" fill="#CCE6F3"/>
<path d="M148.407 30.3835H148.37V30.3468C147.93 29.7421 147.491 29.1007 147.051 28.5326C146.354 27.6713 145.585 27.0116 144.54 27.1032C143.239 28.5326 142.103 29.7604 141.425 30.4751C141.535 30.6217 141.663 30.7683 141.791 30.9149C142.213 31.3547 142.671 31.7395 143.129 32.1427C143.606 32.5459 144.064 32.949 144.467 33.3705C145.255 34.2318 146.226 35.2763 147.161 36.0277C147.472 35.9361 147.784 35.7528 148.095 35.5146C148.462 35.2397 148.81 34.8915 149.176 34.525C149.873 33.7553 150.533 32.9124 151.137 32.3076C150.001 32.2343 149.176 31.373 148.425 30.3835H148.407Z" fill="#127FF9"/>
<path d="M141.773 30.9149C141.645 30.7683 141.516 30.6217 141.406 30.4751C142.085 29.7604 143.221 28.5326 144.522 27.1032C144.302 27.1032 144.064 27.1582 143.807 27.2498C143.606 26.81 143.349 26.2786 143.276 25.9487C144.595 23.5298 145.969 21.5506 148.022 20.1396C148.077 19.9747 148.132 19.8281 148.187 19.6815C148.242 19.5532 148.278 19.4066 148.315 19.2783C148.682 17.6107 147.362 15.9248 148.224 14.3854C147.637 14.3854 147.032 14.3304 146.483 14.2571C146.336 15.3017 146.244 16.3829 146.006 17.4091C145.805 18.527 145.218 19.5898 144.925 20.7443C142.561 21.2025 141.718 22.9983 141.333 25.1791C141.022 27.3598 140.618 29.7054 139.336 31.5563C139.794 31.428 140.252 31.3181 140.692 31.1898C141.058 31.0982 141.406 31.0065 141.773 30.9149Z" fill="#F9A873"/>
<path d="M147.949 38.0252C147.949 38.1351 147.93 38.2268 147.93 38.3367C146.556 40.1143 144.98 41.7452 143.404 43.3762C141.242 45.5936 139.079 47.8293 137.375 50.4131C135.891 52.5939 134.26 54.9578 132.72 57.3951C130.705 60.6387 128.872 64.0472 127.937 67.4008C127.901 67.4924 127.846 67.9139 127.754 68.4636H127.626V64.5054C127.791 60.0889 128.377 55.6725 129.165 51.3477C129.385 50.1016 129.623 48.8555 129.88 47.6094C130.411 45.4103 130.961 42.8997 131.694 40.4808C132.372 38.2634 133.215 36.1193 134.333 34.3968V34.3601C134.425 33.2789 134.535 32.1611 134.406 31.1898C134.186 31.1165 133.948 31.0432 133.728 30.9516C132.317 32.6742 130.558 35.258 129.367 36.9257C127.608 39.3263 126.16 41.5986 124.291 43.7794C124.914 44.1825 125.738 44.4024 126.251 44.9155C125.647 45.5386 123.778 46.0517 123.356 46.9863C123.154 47.4994 123.558 49.277 123.558 49.9917C123.558 52.1724 123.668 54.4447 123.778 56.6254C124.071 60.9502 126.197 67.7306 127.204 72.1287C127.259 72.367 127.333 72.6052 127.369 72.8251C127.406 72.4769 127.424 72.147 127.461 71.8355C130.063 69.0317 136.734 59.5392 139.519 57.0469C140.362 56.3139 141.278 55.5992 142.011 54.7563C143.147 53.4185 142.836 52.9054 142.946 51.0362C143.771 51.3477 144.614 51.5493 145.328 52.0624C145.676 51.6593 145.988 51.2195 146.281 50.743C147.399 48.9838 148.169 46.8947 148.755 44.9155C149.506 42.2767 150.514 39.7661 150.606 36.999C150.606 36.8157 150.606 36.6141 150.606 36.4126C150.258 35.8628 149.726 35.3314 149.25 34.8549C149.213 34.7449 149.177 34.635 149.122 34.525C148.755 34.8915 148.407 35.2397 148.04 35.5146C148.022 36.3392 147.985 37.1822 147.912 38.0252H147.949Z" fill="#323031"/>
<path d="M153.758 21.5323C153.19 21.1475 152.2 20.3961 151.247 19.883C150.569 19.5165 149.891 19.26 149.36 19.3333H149.341C148.865 19.5532 148.425 19.8281 148.022 20.1396C145.97 21.5506 144.595 23.5298 143.276 25.9487C143.349 26.2786 143.606 26.81 143.807 27.2498C144.064 27.1582 144.302 27.1032 144.522 27.1032C145.566 27.0116 146.336 27.6713 147.032 28.5326C147.472 29.1007 147.912 29.7421 148.352 30.3468C148.352 30.3468 148.352 30.3468 148.388 30.3835C149.14 31.3731 149.964 32.2343 151.101 32.3076C151.412 32.3443 151.76 32.3076 152.145 32.1794L152.218 32.271C153.556 31.0065 155.444 30.017 157.258 29.4122C156.928 28.5693 156.745 27.7446 156.58 26.9383C156.232 25.2157 155.957 23.6214 154.601 22.2653C154.363 22.0088 154.069 21.7706 153.739 21.5323H153.758Z" fill="#FDCCA9"/>
<path d="M155.187 11.5083C154.436 11.9848 153.593 12.388 152.805 12.8644C152.09 14.0006 150.148 14.4038 148.224 14.3854C147.362 15.9248 148.682 17.6107 148.315 19.2783C148.792 19.2783 149.305 19.205 149.8 19.0951C150.368 18.9485 150.917 18.7285 151.339 18.4537C151.137 18.7469 151.137 19.0401 150.972 19.2783C151.211 19.3516 151.504 19.3516 151.834 19.2783C152.842 18.2338 153.685 17.4274 154.161 17.0609C154.161 17.0609 154.399 17.2259 154.784 17.5191C155.297 17.9039 156.085 18.5636 156.928 19.3883C157.313 18.4353 157.496 17.2992 157.716 16.3646C157.753 16.2363 157.771 16.108 157.789 15.9797C158.193 14.1289 158.321 12.1681 158.321 10.2989H158.339C158.339 10.2989 158.321 10.2256 158.321 10.2072C158.266 10.2256 158.229 10.2439 158.211 10.2622C157.203 10.6471 156.122 10.8853 155.187 11.5083Z" fill="#160000"/>
<path d="M154.161 17.0609C153.684 17.4275 152.842 18.2338 151.834 19.2783C151.65 19.4616 151.449 19.6631 151.247 19.8831C152.2 20.3962 153.19 21.1475 153.758 21.5323C154.088 21.7706 154.381 22.0088 154.619 22.2654C155.975 23.6214 156.25 25.2157 156.598 26.92C157.551 25.7838 159.035 24.5194 159.897 23.2366C159.2 21.7889 158.028 20.4328 156.928 19.3883C156.085 18.5636 155.297 17.9039 154.784 17.5191C154.399 17.2259 154.161 17.0609 154.161 17.0609Z" fill="#127FF9"/>
<path d="M148.022 20.1396C148.425 19.8281 148.865 19.5532 149.341 19.3333H149.36C149.891 19.26 150.569 19.5165 151.247 19.8831C151.449 19.6632 151.65 19.4616 151.834 19.2783C151.504 19.3516 151.211 19.3516 150.972 19.2783C151.137 19.0401 151.137 18.7469 151.339 18.4537C150.917 18.7286 150.368 18.9485 149.799 19.0951C149.305 19.205 148.792 19.2783 148.315 19.2783C148.278 19.4066 148.242 19.5532 148.187 19.6815C148.132 19.8281 148.077 19.9747 148.022 20.1396Z" fill="#1F0000"/>
<path d="M154.931 202.331C155.48 201.231 156.03 200.113 156.268 199.179C156.47 198.391 156.323 197.456 156.323 196.631C156.323 196.027 156.177 195.22 156.14 194.176C156.067 194.194 155.993 194.212 155.92 194.231C155.92 196.54 155.609 199.472 154.931 202.331Z" fill="#010300"/>
<path d="M158.193 42.918V42.8447C156.213 41.3787 153.886 39.3079 151.724 37.7686C151.669 40.6824 152.145 43.6144 153.08 46.3632C154.802 44.2191 157.24 42.8814 158.193 42.918Z" fill="#1C191B"/>
<path d="M151.834 205.226C153.391 202.752 155.096 197.309 155.096 194.506V194.432C153.648 194.762 152.054 194.854 150.917 194.781C149.708 194.671 148.352 194.469 147.032 194.084C146.409 193.901 145.786 193.681 145.2 193.443C145.328 197.071 144.925 199.747 144.687 201.158C144.412 202.642 144.064 204.09 143.752 205.483C146.904 204.969 149.873 208.085 151.834 205.226Z" fill="#020500"/>
<path d="M154.454 203.338C154.308 203.705 154.143 204.126 153.923 204.548V204.585C153.025 206.435 151.614 208.58 150.331 209.239C148.26 209.368 145.127 208.744 143.221 208.03C143.092 208.763 142.964 209.477 142.891 210.174H143.037C145.145 211.31 148.902 211.713 151.027 210.797C152.86 208.909 154.161 205.684 154.931 202.331C154.784 202.642 154.619 202.972 154.473 203.283C154.473 203.283 154.473 203.32 154.473 203.338H154.454Z" fill="#010300"/>
<path d="M148.408 30.3842C148.408 30.3842 148.389 30.3468 148.37 30.3468V30.3842H148.408Z" fill="#1F0000"/>
<path d="M138.401 97.2895C139.372 97.5094 141.186 98.0042 143.001 98.5173C145.108 99.0854 147.252 99.6718 148.004 99.8367C148.058 99.8367 148.113 99.855 148.15 99.855C148.572 98.8105 148.572 97.5643 148.572 96.3182C148.352 96.1899 148.15 96.0617 147.93 95.9334C144.76 94.1008 140.637 93.093 137.265 91.7369C137.741 93.3678 137.961 95.3653 138.401 97.2895Z" fill="#2D2B2C"/>
<path d="M145.108 115.89C144.1 115.835 143.037 115.67 141.92 115.395C140.563 115.12 139.262 114.864 137.998 114.607C138.309 118.052 142.213 145.614 142.982 152.577C142.982 152.595 142.872 154.904 142.872 154.923C144.027 168.557 146.538 181.018 147.032 194.084C148.352 194.469 149.708 194.671 150.917 194.781C152.053 194.854 153.648 194.762 155.096 194.432C155.37 194.377 155.645 194.304 155.92 194.231C155.993 194.212 156.067 194.194 156.14 194.176C156.671 193.993 157.148 193.791 157.551 193.553L157.496 193.443C157.203 186.772 158.321 180.78 157.973 175.191C157.588 168.832 156.25 161.74 154.839 154.19C155.26 146.292 155.829 119.921 154.399 113.452C151.467 115.193 148.535 116.11 145.108 115.89Z" fill="#171416"/>
<path d="M155.095 194.432V194.506C155.095 197.309 153.391 202.752 151.834 205.226C149.873 208.085 146.904 204.969 143.752 205.483C143.569 206.344 143.367 207.205 143.221 208.03C145.126 208.744 148.26 209.368 150.331 209.239C151.614 208.58 153.025 206.435 153.923 204.585V204.548C154.143 204.126 154.307 203.705 154.454 203.338C154.454 203.338 154.454 203.302 154.454 203.283C154.601 202.972 154.766 202.642 154.912 202.331C155.59 199.472 155.902 196.54 155.902 194.231C155.627 194.304 155.352 194.377 155.077 194.432H155.095Z" fill="#14160E"/>
<path d="M137.851 43.5778C137.705 43.1013 137.576 42.6432 137.485 42.185C136.825 42.6249 135.304 43.7977 134.48 44.5857C134.516 44.5857 134.534 44.6223 134.571 44.6223C134.241 46.803 133.746 49.0754 133.527 51.2378C133.233 53.2536 133.032 55.4709 132.72 57.3951C134.26 54.9578 135.891 52.5939 137.375 50.4131C139.079 47.8293 141.242 45.5936 143.404 43.3762H143.386C142.451 44.1825 139.189 43.6694 137.851 43.5778Z" fill="#CCE6F3"/>
<path d="M134.443 7.31184C135.396 8.52131 136.294 9.69414 137.723 10.7753C140.728 13.066 143.312 12.1314 146.648 12.4429C146.024 13.066 144.98 13.2676 144.357 13.6707C144.852 13.9273 145.603 14.1289 146.464 14.2572C147.014 14.3305 147.619 14.3854 148.205 14.3854C150.129 14.3854 152.072 14.0006 152.787 12.8644C153.575 12.388 154.417 11.9848 155.169 11.5084C156.103 10.8853 157.185 10.6471 158.192 10.2622C158.211 10.2439 158.247 10.2256 158.302 10.2072C158.028 9.236 157.24 8.04485 156.836 7.31184C156.14 5.99241 154.674 4.91121 153.593 3.97662C152.108 2.69384 150.386 1.77757 148.553 1.17283C146.977 0.623073 145.328 0.329867 143.66 0.201589C142.653 0.146613 140.747 0.384843 139.134 0.696375C138.621 0.7147 138.108 0.696375 137.613 0.623073C137.576 0.623073 137.521 0.586422 137.466 0.568097C136.953 0.421494 136.239 9.95956e-06 135.854 9.95956e-06C134.718 -0.109942 133.893 0.934605 133.472 2.18073C133.013 3.57346 132.629 4.70963 133.325 5.99241H133.343C133.508 6.19399 133.673 6.37724 133.838 6.57882C134.04 6.81705 134.241 7.07361 134.424 7.31184H134.443Z" fill="#310A00"/>
<path d="M140.692 38.7032C140.142 38.5749 139.61 38.465 139.134 38.3184C138.126 38.0435 137.228 37.732 136.495 37.2372C135.561 36.6325 134.846 35.7528 134.351 34.3968C133.233 36.1193 132.39 38.2634 131.712 40.4808C131.932 40.774 132.115 41.0489 132.28 41.2871C132.702 40.8656 133.142 40.4258 133.581 39.986C134.516 39.0514 135.524 38.1168 136.55 37.4204C137.027 39.0697 137.137 40.5724 137.485 42.185C137.576 42.6432 137.705 43.1013 137.851 43.5778C139.189 43.6694 142.451 44.1825 143.385 43.3579H143.404C144.98 41.7452 146.556 40.1143 147.93 38.3367C147.93 38.2268 147.949 38.1351 147.949 38.0252C146.611 40.096 142.616 39.0881 140.692 38.7032Z" fill="#E8F6FF"/>
<path d="M134.351 34.3418V34.3784C134.846 35.7528 135.561 36.6324 136.495 37.2372C137.228 37.732 138.126 38.0435 139.134 38.3184C140.545 36.4309 142.341 34.3967 143.111 32.1427C142.653 31.7396 142.194 31.3547 141.773 30.9149C141.406 31.0065 141.058 31.0982 140.692 31.1898C140.252 31.3181 139.794 31.428 139.336 31.5563C139.189 31.593 139.042 31.6296 138.896 31.6663C138.658 31.7579 138.438 31.8678 138.2 31.9595C137.32 32.3076 136.385 31.8129 135.506 31.5197C135.194 31.428 134.828 31.3181 134.424 31.1898C134.553 32.161 134.443 33.2789 134.351 34.3418Z" fill="#F9A36D"/>
<path d="M133.856 6.57883C133.691 6.37725 133.527 6.194 133.362 6.01074C133.49 6.21232 133.636 6.43223 133.82 6.65213C133.82 6.65213 133.82 6.59715 133.856 6.57883Z" fill="#180000"/>
<path d="M132.28 13.7257V13.6341C132.28 13.5058 132.28 13.3775 132.225 13.2492L131.639 13.8173L132.28 13.7257Z" fill="#310A00"/>
<path d="M133.636 30.9149C133.636 30.9149 133.71 30.9516 133.746 30.9516C133.966 31.0432 134.204 31.1165 134.424 31.1898C134.828 31.3181 135.194 31.428 135.506 31.5197C136.385 31.8129 137.32 32.3077 138.199 31.9595C138.438 31.8678 138.658 31.7579 138.896 31.6663C139.042 31.6296 139.189 31.593 139.336 31.5563C140.618 29.7054 141.022 27.3598 141.333 25.1791C141.718 22.9984 142.561 21.2025 144.925 20.7443C145.218 19.5898 145.804 18.527 146.006 17.4091C146.244 16.3829 146.336 15.3017 146.482 14.2571C145.621 14.1289 144.87 13.9273 144.375 13.6707C144.998 13.2676 146.043 13.066 146.666 12.4429C143.331 12.1314 140.747 13.066 137.741 10.7753C136.312 9.69413 135.414 8.5213 134.461 7.31183C134.278 7.0736 134.076 6.81704 133.875 6.57881C133.875 6.59714 133.875 6.63379 133.838 6.65211C133.27 8.64958 132.83 10.9403 132.005 12.7911C132.134 12.9194 132.207 13.0843 132.244 13.2493C132.28 13.3775 132.299 13.5058 132.299 13.6341V13.7257C132.262 14.4221 131.877 15.2101 131.492 15.6316C131.309 15.9064 131.144 16.1996 130.979 16.4928C130.778 16.841 130.613 17.2075 130.539 17.574C130.246 18.8568 130.484 20.3229 130.539 21.6056C130.668 24.0246 130.686 26.6634 131.107 29.0641C131.382 29.7238 132.06 30.2002 132.848 30.5851C132.977 30.64 133.105 30.695 133.252 30.75C133.38 30.8233 133.526 30.8783 133.655 30.9149H133.636Z" fill="#FBB686"/>
<path d="M132.28 13.7257L131.639 13.8174L132.226 13.2493C132.189 13.0843 132.116 12.9194 131.987 12.7911C132.812 10.9403 133.252 8.6496 133.82 6.65213C133.637 6.43223 133.49 6.21232 133.362 6.01074C132.665 7.33017 132.171 8.7229 131.987 10.1889C131.712 12.2597 131.474 14.4587 130.961 16.4929C131.126 16.1997 131.291 15.9064 131.474 15.6316C131.859 15.2101 132.244 14.4221 132.28 13.7257Z" fill="#160000"/>
<path d="M142.872 154.923C142.872 154.923 142.982 152.595 142.982 152.577C142.213 145.614 138.309 118.052 137.998 114.607C135.616 114.13 133.362 113.691 131.254 113.104C131.767 115.945 132.537 120.654 132.885 122.212C133.563 125.749 133.783 129.322 134.461 132.859C135.194 136.652 135.872 140.501 136.514 144.367C136.935 146.823 137.338 149.279 137.741 151.753C138.273 155.124 138.713 160.805 139.226 164.177C140.985 174.989 142.726 181.586 143.386 192.453C143.954 192.838 144.558 193.168 145.2 193.443C145.786 193.681 146.409 193.901 147.032 194.084C146.538 181.018 144.027 168.557 142.872 154.923Z" fill="#0D0A0C"/>
<path d="M133.215 44.0359C133.215 42.8631 133.325 41.2504 133.581 39.986C133.142 40.4258 132.702 40.8656 132.28 41.2871C132.115 41.0489 131.932 40.774 131.712 40.4808C130.979 42.8997 130.429 45.4103 129.898 47.6094C129.641 48.8555 129.403 50.1016 129.183 51.3477C130.118 49.2403 131.749 45.7951 133.215 44.1092V44.0359Z" fill="#CCE6F3"/>
<path d="M134.571 44.6223C134.571 44.6223 134.516 44.604 134.479 44.5857C135.304 43.7977 136.825 42.6248 137.485 42.185C137.137 40.5724 137.027 39.0697 136.55 37.4204C135.524 38.1168 134.516 39.0514 133.582 39.986C133.325 41.2504 133.233 42.8631 133.215 44.0359C133.215 44.0359 133.252 44.0542 133.27 44.0542C133.27 44.0542 133.233 44.0909 133.215 44.1092C131.749 45.7951 130.118 49.2403 129.183 51.3477C128.395 55.6725 127.809 60.0889 127.644 64.5053V68.4453H127.772C127.864 67.9139 127.919 67.4924 127.956 67.4008C128.89 64.0472 130.723 60.6387 132.739 57.3951C133.05 55.4709 133.252 53.2536 133.545 51.2378C133.765 49.0754 134.26 46.803 134.589 44.6223H134.571Z" fill="#127FF9"/>
<path d="M132.885 122.212C132.537 120.654 131.767 115.945 131.254 113.104C130.301 112.829 129.385 112.536 128.487 112.206C127.882 108.779 127.461 104.235 127.186 99.3236C126.398 102.86 125.647 107.295 125.335 110.795C124.474 110.337 123.649 109.824 122.825 109.238C123.319 123.33 122.513 136.487 122.806 148.985C123.118 161.007 123.484 171.636 123.777 183.089C126.728 184.317 129.935 184.94 133.013 185.618C133.38 185.691 133.728 185.764 134.076 185.856C134.406 185.929 134.754 186.021 135.084 186.094C134.938 182.667 136.99 149.663 136.514 144.367C135.872 140.501 135.194 136.652 134.461 132.859C133.783 129.322 133.563 125.749 132.885 122.212Z" fill="#030203"/>
<path d="M133.013 185.618C129.935 184.94 126.728 184.317 123.777 183.089C122.989 182.759 122.201 182.393 121.45 181.953C121.065 185.16 117.987 188.788 115 190.511C116.447 191.17 117.858 191.867 119.031 192.801C122.678 190.749 130.301 189.246 133.013 185.618Z" fill="#020500"/>
<path d="M125.335 110.795C125.647 107.295 126.398 102.86 127.186 99.3236C126.709 90.2708 126.783 79.917 127.387 72.8251C127.351 72.6052 127.278 72.367 127.223 72.1287C126.215 67.7306 124.089 60.9502 123.796 56.6254C123.686 54.4447 123.576 52.1724 123.576 49.9917C123.576 49.277 123.173 47.4994 123.374 46.9863C123.796 46.0517 125.665 45.5386 126.27 44.9155C125.757 44.4024 124.932 44.1825 124.309 43.7794C126.178 41.5986 127.626 39.3263 129.385 36.9257C130.576 35.258 132.335 32.6742 133.746 30.9516C133.71 30.9516 133.673 30.9333 133.636 30.9149C133.508 30.8783 133.362 30.8233 133.233 30.75C133.087 30.695 132.958 30.6401 132.83 30.5851C130.631 29.7238 125.757 27.7813 123.759 27.6164C121.762 27.9096 120.625 29.6322 119.984 31.7762C119.306 34.0302 119.159 36.7424 119.141 38.7215C118.426 44.494 117.932 51.5127 117.638 58.3847C117.4 63.8273 117.272 69.16 117.272 73.723C117.492 75.7571 118.06 77.7913 118.06 79.8071C118.06 83.5454 117.803 86.9173 117.803 90.4908L117.748 90.5824C117.748 90.5824 117.877 90.674 117.95 90.7107C117.877 96.025 118.133 101.962 118.133 104.821C118.573 105.353 118.994 105.829 119.453 106.287C120.552 107.442 121.688 108.413 122.843 109.238C123.667 109.824 124.492 110.337 125.353 110.795H125.335Z" fill="#191718"/>
<path d="M122.806 148.985C122.513 136.487 123.319 123.33 122.824 109.238C121.67 108.413 120.534 107.442 119.434 106.287C118.921 110.41 119.911 157.268 119.911 161.318C119.911 168.062 121.194 174.842 121.01 181.678C121.157 181.769 121.303 181.861 121.45 181.953C122.201 182.393 122.989 182.759 123.777 183.089C123.484 171.636 123.118 161.007 122.806 148.985Z" fill="#0D0A0C"/>
<path d="M117.473 194.524C115.769 193.791 114.853 193.443 113.295 193.131C113.222 193.846 113.185 194.414 113.185 194.817C114.908 195.44 116.814 196.338 118.555 196.393V196.356C120.79 196.228 127.809 194.029 128.45 193.095C129.11 192.105 130.265 189.411 131.199 191.115C131.969 190.767 134.076 189.631 134.076 189.631C134.205 189.283 134.223 188.037 134.15 187.285L134.095 187.34C130.521 190.291 119.471 195.33 117.473 194.524Z" fill="#010300"/>
<path d="M119.031 192.801C117.858 191.867 116.447 191.17 115 190.511C114.542 190.767 114.102 190.987 113.662 191.152C113.479 191.885 113.369 192.563 113.295 193.131C114.853 193.443 115.769 193.791 117.474 194.524C119.471 195.33 130.521 190.291 134.095 187.34C134.095 187.249 134.131 187.175 134.131 187.102C134.186 186.791 134.168 186.479 134.076 185.856C133.728 185.764 133.38 185.691 133.014 185.618C130.301 189.246 122.678 190.749 119.031 192.801Z" fill="#14160E"/>
<path d="M106.79 68.3354C106.405 67.8772 106.039 67.4191 105.654 66.9243C104.921 66.7777 104.188 66.5761 103.51 66.2829C104.847 67.0526 105.965 67.7489 106.79 68.3354Z" fill="#0B57AD"/>
<path d="M109.245 58.293C111.408 52.887 113.57 47.6093 113.277 41.4154C111.591 44.7872 110.07 48.1958 108.402 50.5781C108.366 50.5781 108.348 50.6147 108.329 50.6514C107.156 52.209 105.984 53.6384 105.196 54.4081L105.067 54.6096C102.154 52.5755 99.2031 50.4498 95.8679 48.9471C97.5722 51.0362 99.6246 53.5834 101.824 55.9107C104.243 56.6804 106.863 57.7433 109.245 58.293Z" fill="#261721"/>
<path d="M100.229 63.4242C98.9282 63.1859 97.7004 62.7645 96.5092 62.2513C98.5617 63.4608 101.017 64.6336 103.326 65.2201C104.517 65.5133 106.24 65.5866 107.834 65.4216C108.842 65.33 109.777 65.1284 110.473 64.8352C110.015 64.1389 109.08 63.5891 108.696 62.966V62.8561C105.928 63.3142 103.143 63.9556 100.229 63.4242Z" fill="#FEE4B8"/>
<path d="M92.4777 60.3638C93.7971 61.0235 95.1348 61.6833 96.4909 62.2513C97.6821 62.7645 98.9099 63.1859 100.211 63.4242C103.125 63.9556 105.91 63.3142 108.659 62.8561C109.227 62.7645 109.795 62.6728 110.363 62.5995L110.162 62.3979C107.45 61.3534 104.517 58.7878 101.805 55.9108C99.6062 53.5834 97.5538 51.0362 95.8495 48.9471C95.483 48.5073 95.1348 48.0858 94.805 47.6827C94.4385 47.8476 94.0537 47.9759 93.6688 48.1041C92.9175 48.3424 92.1661 48.5073 91.4148 48.5989C96.5642 49.9917 96.3626 57.4318 92.4593 60.3638H92.4777Z" fill="#FFF2DF"/>
<path d="M103.326 65.22C101.017 64.6336 98.5618 63.4608 96.5093 62.2513C95.1533 61.6832 93.8155 61.0235 92.4961 60.3638C91.5798 59.924 90.6452 59.4842 89.7106 59.0994C90.6086 59.5392 91.5065 59.979 92.4045 60.4371C95.868 62.1597 99.2215 63.8823 101.952 65.385H101.97C102.502 65.6965 103.015 65.9714 103.473 66.2463C103.491 66.2646 103.51 66.2646 103.528 66.2829C104.206 66.5761 104.939 66.7777 105.672 66.9243C106.918 67.1809 108.201 67.2358 109.337 67.0892C108.879 66.6128 108.403 65.9897 107.853 65.5316V65.4216C106.258 65.5866 104.536 65.5132 103.345 65.22H103.326Z" fill="#FEDA9C"/>
<path d="M119.141 38.7215C119.16 36.7424 119.306 34.0302 119.984 31.7762C117.217 34.0485 115.146 37.7136 113.277 41.4154C113.57 47.6093 111.408 52.887 109.245 58.293C106.863 57.7433 104.243 56.6804 101.824 55.9107C104.536 58.7878 107.468 61.3534 110.18 62.3979L110.382 62.5995C109.814 62.6728 109.245 62.7644 108.677 62.856V62.966C109.081 63.5891 110.015 64.1388 110.473 64.8352C109.777 65.1284 108.842 65.33 107.834 65.4216V65.5316C108.384 65.9897 108.861 66.6128 109.319 67.0892C108.183 67.2358 106.9 67.1808 105.654 66.9243C106.039 67.4191 106.405 67.8772 106.79 68.3353L106.827 68.372C106.552 68.8485 106.258 69.3249 105.929 69.783C104.536 68.8118 102.447 67.584 99.9545 66.2279C97.4623 64.8902 94.5669 63.3875 91.5981 61.9031C95.5748 65.5132 104.298 73.5947 106.936 71.6156H106.955C110.418 69.9296 116.099 62.4529 117.62 58.3847C117.913 51.5126 118.408 44.494 119.123 38.7215H119.141Z" fill="#020102"/>
<path d="M105.928 69.7831C106.258 69.3249 106.551 68.8485 106.826 68.372L106.79 68.3354C105.965 67.7489 104.847 67.0526 103.509 66.2829C103.491 66.2829 103.473 66.2829 103.454 66.2463C102.923 66.0264 102.41 65.7331 101.952 65.4033H101.933C99.2029 63.8823 95.8494 62.1597 92.3859 60.4371C91.4879 59.979 90.59 59.5392 89.692 59.0994C89.692 59.0994 89.6798 59.0994 89.6554 59.0994C84.9641 56.772 80.3094 54.518 76.9376 52.7954C76.5161 52.5755 76.1313 52.3739 75.7648 52.1724C75.4715 52.5938 75.16 53.0153 74.8851 53.4185C74.9218 53.4735 74.9401 53.5101 74.9768 53.5651C78.6968 55.5259 84.6709 58.4396 90.5167 61.3717C90.8649 61.555 91.2314 61.7382 91.5979 61.9215C94.5666 63.4058 97.462 64.9085 99.9543 66.2463C102.447 67.6023 104.536 68.8301 105.928 69.8014V69.7831Z" fill="#127FF9"/>
<path d="M91.3599 48.6173C91.3599 48.6173 91.4149 48.6173 91.4333 48.6173C92.1846 48.5256 92.9359 48.3607 93.6873 48.1225C92.9726 47.4811 91.928 47.1695 91.1034 46.7664C91.2317 47.0413 91.3416 47.3711 91.3783 47.701C91.4332 48.0125 91.4332 48.324 91.3783 48.5989C91.3783 48.6173 91.3599 48.6173 91.3599 48.6356V48.6173Z" fill="#261721"/>
<path d="M89.9671 47.1879C90.0038 47.3528 89.9671 47.5361 89.9671 47.6827C89.9305 48.0675 89.8022 48.4157 89.6556 48.7089C90.2237 48.7089 90.7918 48.6906 91.3598 48.6173C91.3598 48.6173 91.3782 48.6173 91.3782 48.5806C91.4331 48.3057 91.4331 47.9942 91.3782 47.6827C90.9933 47.4078 90.5352 47.1512 89.9671 46.9496V47.0962C89.9671 47.0962 89.9671 47.1512 89.9671 47.1879Z" fill="#CCE6F3"/>
<path d="M85.4225 46.6198C86.8885 47.3894 88.2079 48.1041 89.3441 48.7089H89.6556C89.8022 48.4157 89.9305 48.0675 89.9672 47.6827C89.9672 47.5361 90.0038 47.3528 89.9672 47.1879C89.9672 47.1512 89.9672 47.1329 89.9672 47.0962V46.6564C89.9672 45.9417 89.8206 45.447 88.9593 44.604C85.8073 44.9522 83.7365 44.4574 81.2443 42.6065C80.7495 43.1013 80.5479 43.5961 80.5479 44.0359C80.6029 45.6669 83.4616 46.8214 85.4225 46.6198Z" fill="#FBB686"/>
<path d="M74.1891 48.379C73.9508 48.4706 73.676 48.5256 73.4561 48.5256C74.2624 49.7534 75.032 50.9629 75.7651 52.154C76.1316 52.3556 76.5164 52.5572 76.9379 52.7771C76.663 52.4106 76.4064 52.0441 76.1499 51.6593C75.4352 50.5964 74.7938 49.4785 74.1891 48.379Z" fill="#0B57AD"/>
<path d="M75.765 52.154C75.032 50.9629 74.2623 49.7534 73.456 48.5256C73.3644 48.4157 73.2911 48.2691 73.1994 48.1408C73.1078 48.0858 73.0162 48.0125 72.9246 47.9575C72.7413 48.3973 72.4481 48.8371 72.2465 49.2769C73.1628 50.6697 74.0424 52.0441 74.8854 53.4002C75.1603 52.997 75.4718 52.5755 75.765 52.1724V52.154Z" fill="#0863CA"/>
<path d="M73.1995 48.1408C73.2911 48.2691 73.3644 48.4157 73.456 48.5256C73.6759 48.5256 73.9508 48.4707 74.189 48.379C74.5555 48.2508 74.8487 48.0125 74.7938 47.7376L74.8304 47.6643C74.0607 47.2795 73.0529 46.7114 72.2282 46.5648C72.2465 46.6015 72.2465 46.6381 72.2465 46.6931C72.2099 47.2429 71.5135 47.701 71.5868 48.2691C71.8067 48.5989 72.0266 48.9471 72.2465 49.277C72.4481 48.8372 72.7413 48.3974 72.9246 47.9575C73.0162 48.0125 73.1078 48.0858 73.1995 48.1408Z" fill="#716C64"/>
<path d="M70.4505 41.1222C70.139 40.9756 69.351 40.4624 68.7279 40.2059C68.3981 40.0593 68.1232 39.986 67.9583 40.041L67.8666 40.1326C69.3693 42.3866 70.8354 44.5673 72.2464 46.6931C72.2464 46.6381 72.2464 46.6014 72.2281 46.5648C73.0527 46.7114 74.0606 47.2795 74.8303 47.6643C74.8853 47.6826 74.9219 47.7193 74.9586 47.7376C73.7124 45.392 71.9165 43.2112 70.4505 41.1222Z" fill="#8D857E"/>
<path d="M67.8667 40.1326C67.6468 40.3525 67.152 40.9206 66.9871 41.397C68.563 43.761 70.1207 46.0517 71.5867 48.2691C71.5134 47.701 72.2098 47.2428 72.2464 46.6931C70.8354 44.5673 69.3694 42.3866 67.8667 40.1326Z" fill="#A9A19B"/>
<path d="M91.433 48.5989C91.433 48.5989 91.3964 48.5989 91.3597 48.5989C90.7917 48.6722 90.2236 48.7089 89.6555 48.6905C89.6372 48.7455 89.6188 48.7822 89.6005 48.8188C89.5089 48.7822 89.4356 48.7272 89.344 48.6905C81.6473 48.4523 74.3904 41.7635 67.6833 38.7399L67.61 38.7948C67.9949 39.253 68.3247 39.7111 68.7279 40.1876C69.351 40.4441 70.1389 40.9572 70.4505 41.1038C71.9165 43.1929 73.7124 45.3736 74.9585 47.7193C74.9219 47.7193 74.8852 47.6643 74.8302 47.646L74.7936 47.7193C74.8486 47.9942 74.5554 48.2324 74.1889 48.3607C74.7936 49.4602 75.435 50.5781 76.1497 51.6409C76.4062 52.0258 76.6628 52.3923 76.9377 52.7588C80.3095 54.4814 84.9642 56.7354 89.6555 59.0627C89.6555 59.0627 89.6677 59.0627 89.6921 59.0627C90.6267 59.4475 91.5613 59.8873 92.4776 60.3272C96.3809 57.3951 96.5825 49.955 91.433 48.5623V48.5989Z" fill="#FFEBCB"/>
<path d="M67.9582 40.041C68.1232 39.986 68.3981 40.041 68.7279 40.2059C68.3247 39.7294 67.9949 39.2713 67.6101 38.8132L67.6834 38.7582C74.3905 41.7819 81.6473 48.4707 89.344 48.7089C88.2078 48.1041 86.8884 47.3895 85.4223 46.6198C83.4615 46.8214 80.6028 45.6669 80.5478 44.0359C74.6104 40.9023 68.1048 37.4388 64.9162 35.5513C64.8979 35.5696 64.8796 35.5879 64.8796 35.6062C65.8875 37.1639 66.877 38.6666 67.8666 40.1326L67.9582 40.041Z" fill="#0B57AD"/>
<path d="M64.8796 35.6062C64.8063 35.7345 64.733 35.8445 64.6597 35.9544C64.4765 36.2659 64.2382 36.5592 64 36.8524C65.0079 38.41 65.9975 39.9127 66.987 41.3971C67.152 40.9206 67.6468 40.3525 67.8667 40.1326C66.8771 38.6666 65.8875 37.1639 64.8796 35.6062Z" fill="#0863CA"/>
</g>
<defs>
<linearGradient id="paint0_linear_1668_194" x1="137.73" y1="-100.04" x2="137.73" y2="298.86" gradientUnits="userSpaceOnUse">
<stop offset="0.6" stop-color="white" stop-opacity="0"/>
<stop offset="0.68" stop-color="#127FF9" stop-opacity="0.29"/>
<stop offset="0.76" stop-color="#127FF9" stop-opacity="0.54"/>
<stop offset="0.84" stop-color="#127FF9" stop-opacity="0.74"/>
<stop offset="0.91" stop-color="#127FF9" stop-opacity="0.88"/>
<stop offset="0.96" stop-color="#127FF9" stop-opacity="0.97"/>
<stop offset="1" stop-color="#127FF9"/>
</linearGradient>
<clipPath id="clip0_1668_194">
<rect width="156.038" height="106" fill="white" transform="matrix(1 0 -0.00125033 0.999999 60 189)"/>
</clipPath>
<clipPath id="clip1_1668_194">
<rect width="275.47" height="201.04" fill="white" transform="translate(0 48)"/>
</clipPath>
<clipPath id="clip2_1668_194">
<rect width="108.688" height="211.31" fill="white" transform="translate(64)"/>
</clipPath>
</defs>
</svg>
