<svg width="375" height="294" viewBox="0 0 375 294" fill="none" xmlns="http://www.w3.org/2000/svg">
<g clip-path="url(#clip0_598_5848)">
<path d="M222.898 149.691C221.348 151.387 219.573 153.014 217.644 154.506C214.408 157.022 210.706 159.202 206.75 161.001C201.784 163.252 196.411 164.918 191.016 165.859C186.71 166.598 182.418 166.876 178.305 166.639C175.87 166.5 173.486 166.163 171.221 165.628C168.957 165.093 166.913 164.398 165.118 163.557C162.083 162.138 159.703 160.286 158.052 158.163C155.959 155.49 155.588 154.367 155.78 150.985C155.913 148.286 156.813 145.44 158.492 142.559C159.476 140.856 160.747 139.133 162.318 137.431C163.868 135.736 165.643 134.109 167.572 132.616C170.808 130.1 174.51 127.921 178.465 126.121C183.432 123.871 188.805 122.204 194.2 121.264C198.506 120.524 202.798 120.247 206.911 120.484C209.346 120.622 211.73 120.96 213.995 121.495C216.259 122.03 218.303 122.725 220.098 123.566C223.133 124.985 225.513 126.836 227.164 128.959C229.257 131.633 229.628 132.755 229.436 136.137C229.303 138.837 228.403 141.682 226.724 144.563C225.74 146.266 224.469 147.99 222.898 149.691Z" fill="#D0CEC9"/>
<path d="M217.664 154.5L215.557 147.706L204.664 154.201L206.771 160.995C201.805 163.246 196.432 164.912 191.037 165.852L188.929 159.058L176.218 159.839L178.325 166.632C175.89 166.494 173.506 166.156 171.242 165.621C168.977 165.086 166.934 164.391 165.138 163.55L163.031 156.756L155.938 151.349L158.045 158.143C157.042 156.873 156.293 155.478 155.792 154.006C155.251 152.409 153.639 147.066 153.639 147.066L158.465 142.545C159.449 140.842 160.72 139.118 162.291 137.417C163.841 135.721 165.615 134.094 167.545 132.602L185.283 138.718L178.459 126.1C183.425 123.85 188.798 122.183 194.193 121.243L195.851 135.463L206.904 120.463C209.339 120.601 211.723 120.939 213.988 121.474C216.253 122.009 218.296 122.704 220.092 123.545L204.706 137.529L227.185 128.953C226.673 127.668 226.503 123.917 226.999 125.298C227.032 125.403 228.795 131.089 228.827 131.193C229.314 132.761 229.532 134.412 229.456 136.131L227.349 129.337L224.637 137.763L226.744 144.557C225.76 146.26 224.489 147.983 222.919 149.685C221.368 151.38 219.594 153.008 217.664 154.5Z" fill="#166FED"/>
<path d="M220.791 142.898C219.241 144.593 217.466 146.22 215.537 147.712C212.3 150.229 208.598 152.408 204.643 154.207C199.677 156.458 194.304 158.125 188.909 159.065C184.602 159.805 180.311 160.082 176.198 159.845C173.763 159.707 171.379 159.369 169.114 158.834C166.849 158.299 164.806 157.604 163.011 156.763C159.975 155.344 157.596 153.493 155.944 151.37C153.851 148.696 152.852 145.546 153.044 142.164C153.177 139.464 154.077 136.619 155.756 133.738C156.74 132.035 158.011 130.311 159.582 128.61C161.132 126.914 162.907 125.287 164.836 123.795C168.072 121.279 171.774 119.099 175.729 117.3C180.696 115.049 186.069 113.383 191.464 112.443C195.77 111.703 200.062 111.426 204.175 111.662C206.61 111.801 208.994 112.138 211.259 112.673C213.523 113.208 215.567 113.904 217.362 114.745C220.397 116.163 222.777 118.015 224.428 120.138C226.521 122.811 227.521 125.961 227.329 129.344C227.196 132.043 226.295 134.889 224.616 137.77C223.633 139.473 222.362 141.196 220.791 142.898Z" fill="#D6D4D0"/>
<path d="M223.536 120.025C221.897 117.944 219.578 116.142 216.618 114.746C214.849 113.92 212.854 113.233 210.637 112.706C208.42 112.179 206.09 111.87 203.696 111.719C199.672 111.478 195.469 111.75 191.251 112.485C185.98 113.387 180.71 115.022 175.846 117.241C171.973 119.015 168.347 121.148 165.18 123.596C163.286 125.055 161.56 126.621 160.051 128.304C158.535 129.965 157.279 131.661 156.309 133.337C154.679 136.157 153.8 138.927 153.648 141.564C153.477 144.871 154.451 147.937 156.49 150.582C158.128 152.663 160.447 154.464 163.408 155.861C165.176 156.687 167.172 157.374 169.389 157.901C171.606 158.428 173.936 158.736 176.329 158.888C180.353 159.129 184.557 158.856 188.774 158.121C194.046 157.219 199.316 155.585 204.179 153.366C208.052 151.592 211.678 149.459 214.845 147.01C216.74 145.552 218.465 143.985 219.974 142.303C221.484 140.62 222.747 138.945 223.716 137.27C225.347 134.45 226.225 131.679 226.378 129.043C226.548 125.736 225.568 122.649 223.536 120.025Z" fill="#EEEEEE"/>
<path d="M215.551 147.685L197.812 141.569L204.637 154.187C199.671 156.437 194.298 158.104 188.902 159.044L187.245 144.824L176.191 159.824C173.756 159.686 171.372 159.348 169.108 158.813C166.843 158.278 164.799 157.583 163.004 156.742L178.39 142.758L155.938 151.349C153.845 148.675 152.845 145.525 153.037 142.143L176.457 136.598L155.729 133.723C156.713 132.02 157.984 130.297 159.555 128.595C161.105 126.9 162.879 125.273 164.809 123.78L182.547 129.896L175.702 117.285C180.668 115.035 186.041 113.368 191.437 112.428L193.094 126.648L204.148 111.648C206.583 111.786 208.967 112.124 211.231 112.659C213.496 113.194 215.54 113.889 217.335 114.73L201.949 128.714L224.422 120.117C226.515 122.79 227.514 125.94 227.322 129.323L203.903 134.868L224.624 137.721C223.64 139.424 222.369 141.148 220.798 142.849C219.248 144.545 217.474 146.172 215.544 147.664L215.551 147.685Z" fill="#127FF9"/>
<path d="M156.344 133.303C157.313 131.628 158.556 129.959 160.086 128.27C161.538 126.697 163.153 125.21 164.931 123.811L164.829 123.774C162.9 125.266 161.14 126.866 159.575 128.589C158.025 130.284 156.754 132.007 155.75 133.717L156.083 133.774C156.168 133.61 156.259 133.467 156.344 133.303Z" fill="#127FF9"/>
<path d="M156.524 150.548C154.572 148.037 153.603 145.13 153.668 141.993L153.037 142.143C152.866 145.519 153.865 148.669 155.938 151.349L156.886 150.986C156.772 150.838 156.638 150.696 156.524 150.548Z" fill="#127FF9"/>
<path d="M191.272 112.479C191.272 112.479 191.375 112.447 191.443 112.449C189.403 112.784 187.381 113.25 185.365 113.807C187.32 113.27 189.307 112.837 191.272 112.479Z" fill="#127FF9"/>
<path d="M210.657 112.699C212.874 113.226 214.864 113.892 216.638 114.74C216.801 114.827 216.957 114.893 217.119 114.98L217.362 114.745C215.567 113.904 213.517 113.187 211.258 112.673C209 112.159 206.616 111.822 204.175 111.662L204.112 111.751C206.369 111.898 208.563 112.203 210.657 112.699Z" fill="#127FF9"/>
<path d="M175.887 117.228C178.316 116.108 180.844 115.164 183.417 114.365C180.782 115.183 178.192 116.146 175.702 117.285C175.702 117.285 175.805 117.253 175.867 117.234L175.887 117.228Z" fill="#127FF9"/>
<path d="M219.989 142.276C218.473 143.937 216.727 145.51 214.859 146.983C214.714 147.097 214.569 147.211 214.417 147.303L215.53 147.691C217.459 146.199 219.22 144.599 220.784 142.877C222.335 141.181 223.605 139.458 224.61 137.749L223.527 137.603C222.586 139.155 221.427 140.729 219.989 142.276Z" fill="#127FF9"/>
<path d="M224.428 120.138L223.824 120.371C225.693 122.908 226.566 125.868 226.392 129.015C226.382 129.202 226.372 129.388 226.342 129.581L227.329 129.344C227.5 125.968 226.501 122.818 224.428 120.138Z" fill="#127FF9"/>
<path d="M188.788 158.094L188.902 159.044C194.298 158.104 199.677 156.458 204.637 154.187L204.173 153.345C199.309 155.564 194.053 157.171 188.788 158.094Z" fill="#127FF9"/>
<path d="M176.364 158.854C173.977 158.724 171.64 158.394 169.423 157.867C167.356 157.386 165.489 156.75 163.835 156.003L163.025 156.736C164.82 157.576 166.87 158.293 169.128 158.807C171.386 159.321 173.77 159.658 176.212 159.818L176.91 158.868C176.726 158.856 176.548 158.866 176.364 158.854Z" fill="#127FF9"/>
<path d="M213.051 141.082C204.361 150.606 187.076 155.921 174.453 152.985C161.824 150.027 158.624 139.929 167.315 130.405C176.005 120.881 193.29 115.565 205.913 118.502C218.542 121.459 221.742 131.558 213.051 141.082Z" fill="#166FED"/>
<path d="M212.059 141.665C203.834 150.654 187.524 155.691 175.581 152.91C163.638 150.129 160.628 140.568 168.825 131.563C177.049 122.573 193.36 117.537 205.302 120.318C217.245 123.099 220.256 132.66 212.059 141.665Z" fill="#127FF9"/>
<path d="M207.631 140.632C201.096 147.792 188.1 151.8 178.606 149.566C169.118 147.352 166.711 139.735 173.252 132.596C179.787 125.436 192.784 121.428 202.278 123.662C211.765 125.876 214.173 133.493 207.631 140.632Z" fill="#EEEEEE"/>
</g>
<g clip-path="url(#clip1_598_5848)">
<path d="M156.168 96.1948C154.585 96.0284 152.947 95.7091 151.322 95.2478C148.587 94.4794 145.849 93.3129 143.218 91.849C139.92 90.0072 136.78 87.6981 134.035 85.0778C131.85 82.982 129.93 80.7037 128.369 78.3138C127.444 76.8996 126.651 75.4319 126.017 73.9494C125.383 72.4669 124.93 71.0418 124.66 69.6949C124.201 67.4192 124.254 65.331 124.758 63.5367C125.387 61.2699 125.86 60.6013 127.824 59.3164C129.383 58.2796 131.34 57.6102 133.637 57.3604C134.991 57.2079 136.474 57.2071 138.069 57.3823C139.652 57.5487 141.29 57.868 142.916 58.3293C145.65 59.0977 148.388 60.2642 151.019 61.7282C154.317 63.57 157.458 65.879 160.202 68.4993C162.387 70.5952 164.308 72.8734 165.868 75.2633C166.793 76.6775 167.586 78.1453 168.22 79.6277C168.854 81.1102 169.307 82.5354 169.578 83.8822C170.036 86.1579 169.983 88.2462 169.48 90.0404C168.851 92.3073 168.378 92.9759 166.413 94.2607C164.854 95.2975 162.897 95.9669 160.6 96.2167C159.246 96.3692 157.763 96.3701 156.168 96.1948Z" fill="#D0CEC9"/>
<path d="M151.334 95.2566L154.253 91.2861L146.15 87.8873L143.23 91.8578C139.932 90.016 136.792 87.707 134.047 85.0867L136.967 81.1161L131.3 74.3521L128.381 78.3227C127.456 76.9084 126.663 75.4407 126.029 73.9582C125.395 72.4758 124.942 71.0506 124.672 69.7038L127.591 65.7333L127.686 59.554L124.767 63.5245C125.062 62.4427 125.531 61.4514 126.145 60.5663C126.812 59.6079 129.127 56.5103 129.127 56.5103L133.634 57.3393C134.988 57.1868 136.471 57.186 138.066 57.3612C139.649 57.5276 141.287 57.8469 142.912 58.3082L146.804 70.7127L151.028 61.7159C154.326 63.5577 157.467 65.8668 160.211 68.4871L152.967 75.2633L165.877 75.2511C166.802 76.6653 167.595 78.133 168.229 79.6155C168.863 81.098 169.316 82.5231 169.586 83.87L155.46 81.0491L169.491 90.0492C169.997 89.2353 172.018 87.5966 171.452 88.4416C171.407 88.5027 168.964 91.8258 168.919 91.8868C168.245 92.8031 167.415 93.6044 166.425 94.2696L169.345 90.299L163.532 92.255L160.612 96.2256C159.258 96.3781 157.775 96.3789 156.18 96.2037C154.597 96.0373 152.959 95.7179 151.334 95.2566Z" fill="#166FED"/>
<path d="M159.087 92.2243C157.504 92.0579 155.867 91.7386 154.241 91.2773C151.507 90.5089 148.769 89.3424 146.138 87.8784C142.839 86.0366 139.699 83.7276 136.955 81.1073C134.77 79.0114 132.849 76.7332 131.289 74.3433C130.364 72.9291 129.571 71.4613 128.937 69.9789C128.303 68.4964 127.849 67.0712 127.579 65.7244C127.121 63.4487 127.174 61.3604 127.677 59.5662C128.306 57.2993 129.651 55.4457 131.615 54.1608C133.174 53.1241 135.131 52.4546 137.428 52.2048C138.782 52.0523 140.265 52.0515 141.86 52.2267C143.443 52.3931 145.081 52.7125 146.706 53.1737C149.441 53.9421 152.179 55.1087 154.81 56.5726C158.108 58.4144 161.249 60.7234 163.993 63.3437C166.178 65.4396 168.099 67.7178 169.659 70.1077C170.584 71.522 171.377 72.9897 172.011 74.4721C172.645 75.9546 173.098 77.3798 173.369 78.7266C173.827 81.0023 173.774 83.0906 173.271 84.8848C172.642 87.1517 171.297 89.0053 169.333 90.2902C167.774 91.327 165.817 91.9964 163.52 92.2462C162.166 92.3987 160.682 92.3996 159.087 92.2243Z" fill="#D6D4D0"/>
<path d="M172.966 84.3409C173.452 82.5712 173.501 80.5372 173.061 78.3125C172.794 76.9867 172.356 75.5915 171.737 74.1389C171.118 72.6863 170.331 71.2607 169.43 69.8642C167.909 67.5219 166.027 65.2913 163.882 63.243C161.209 60.6758 158.129 58.411 154.891 56.6134C152.308 55.1849 149.627 54.0415 146.959 53.2841C145.366 52.8283 143.783 52.5111 142.224 52.3624C140.674 52.2014 139.212 52.1989 137.878 52.348C135.636 52.6 133.73 53.2504 132.198 54.2505C130.284 55.5165 128.976 57.3212 128.341 59.546C127.855 61.3157 127.805 63.3497 128.246 65.5744C128.513 66.9002 128.951 68.2954 129.57 69.748C130.189 71.2006 130.975 72.6262 131.876 74.0227C133.398 76.365 135.28 78.5956 137.425 80.6439C140.097 83.2111 143.177 85.4759 146.416 87.2735C148.998 88.702 151.68 89.8454 154.348 90.6028C155.941 91.0586 157.524 91.3758 159.083 91.5245C160.642 91.6733 162.095 91.688 163.428 91.5389C165.671 91.2869 167.577 90.6365 169.109 89.6364C171.023 88.3704 172.34 86.5535 172.966 84.3409Z" fill="#EEEEEE"/>
<path d="M154.262 91.2739L150.371 78.8695L146.147 87.8662C142.848 86.0244 139.708 83.7154 136.964 81.0951L144.208 74.3189L131.297 74.3311C130.373 72.9169 129.58 71.4491 128.946 69.9667C128.312 68.4842 127.858 67.059 127.588 65.7122L141.715 68.5331L127.686 59.554C128.315 57.2871 129.66 55.4335 131.624 54.1486L144.353 64.9202L137.425 52.1838C138.779 52.0313 140.262 52.0304 141.857 52.2057C143.44 52.3721 145.078 52.6914 146.703 53.1527L150.595 65.5572L154.807 56.5515C158.105 58.3933 161.246 60.7024 163.99 63.3227L156.746 70.0989L169.656 70.0867C170.581 71.5009 171.374 72.9686 172.008 74.4511C172.642 75.9336 173.095 77.3587 173.365 78.7056L159.239 75.8847L173.279 84.8726C172.651 87.1395 171.306 88.9931 169.342 90.278L156.613 79.5064L163.55 92.2306C162.196 92.3831 160.712 92.384 159.117 92.2087C157.534 92.0423 155.897 91.723 154.271 91.2617L154.262 91.2739Z" fill="#127FF9"/>
<path d="M137.911 52.3535C139.245 52.2044 140.686 52.2103 142.257 52.3678C143.732 52.53 145.225 52.8186 146.737 53.2335L146.715 53.1615C145.09 52.7002 143.473 52.3775 141.869 52.2145C140.286 52.0481 138.803 52.0489 137.437 52.1926L137.542 52.402C137.668 52.3817 137.785 52.3737 137.911 52.3535Z" fill="#127FF9"/>
<path d="M128.374 59.5514C128.97 57.4299 130.192 55.693 131.967 54.4384L131.624 54.1486C129.672 55.4423 128.327 57.2959 127.686 59.554L128.279 59.9331C128.314 59.8088 128.338 59.6757 128.374 59.5514Z" fill="#127FF9"/>
<path d="M163.894 63.2519C163.894 63.2519 163.954 63.2961 163.981 63.3349C162.955 62.3356 161.863 61.4008 160.723 60.506C161.827 61.3743 162.886 62.3036 163.894 63.2519Z" fill="#127FF9"/>
<path d="M171.749 74.1477C172.368 75.6003 172.815 76.9834 173.073 78.3213C173.092 78.4477 173.119 78.5619 173.137 78.6883L173.368 78.7266C173.098 77.3798 172.654 75.9424 172.011 74.4721C171.368 73.0019 170.575 71.5342 169.659 70.1077L169.584 70.109C170.431 71.428 171.163 72.7761 171.749 74.1477Z" fill="#127FF9"/>
<path d="M154.915 56.6311C156.539 57.5238 158.106 58.5441 159.61 59.65C158.07 58.5176 156.467 57.4707 154.807 56.5515C154.807 56.5515 154.867 56.5957 154.903 56.6223L154.915 56.6311Z" fill="#127FF9"/>
<path d="M159.104 91.5212C157.554 91.3602 155.959 91.0342 154.369 90.5994C154.246 90.5653 154.123 90.5312 154.008 90.4848L154.25 91.265C155.876 91.7263 157.492 92.049 159.096 92.2121C160.679 92.3785 162.163 92.3776 163.529 92.234L163.164 91.5705C161.912 91.685 160.558 91.6867 159.104 91.5212Z" fill="#127FF9"/>
<path d="M173.27 84.8848L172.892 84.6438C172.247 86.73 170.957 88.4349 169.13 89.633C169.022 89.7042 168.914 89.7754 168.794 89.8377L169.333 90.2902C171.285 88.9965 172.63 87.1428 173.27 84.8848Z" fill="#127FF9"/>
<path d="M137.446 80.6405L136.964 81.0951C139.708 83.7154 142.839 86.0366 146.147 87.8662L146.425 87.2613C143.186 85.4637 140.127 83.1955 137.446 80.6405Z" fill="#127FF9"/>
<path d="M131.909 74.0282C130.999 72.6439 130.222 71.206 129.603 69.7535C129.02 68.4029 128.606 67.1007 128.342 65.8714L127.6 65.721C127.87 67.0679 128.315 68.5052 128.958 69.9755C129.6 71.4457 130.393 72.9135 131.309 74.3399L132.126 74.3382C132.057 74.2308 131.979 74.1356 131.909 74.0282Z" fill="#127FF9"/>
<path d="M156.914 87.1631C148.029 86.2388 137.953 78.7919 134.395 70.5476C130.845 62.291 135.157 56.3514 144.042 57.2757C152.928 58.2 163.004 65.6468 166.562 73.8912C170.111 82.1478 165.8 88.0873 156.914 87.1631Z" fill="#166FED"/>
<path d="M156.181 86.8496C147.785 85.9654 138.265 78.9465 134.9 71.1454C131.535 63.3442 135.626 57.7311 144.018 58.5943C152.414 59.4785 161.934 66.4974 165.299 74.2986C168.664 82.0997 164.573 87.7128 156.181 86.8496Z" fill="#127FF9"/>
<path d="M154.934 83.9568C148.254 83.2608 140.671 77.6663 138.009 71.455C135.338 65.2559 138.593 60.779 145.265 61.4872C151.945 62.1831 159.528 67.7777 162.19 73.9889C164.861 80.188 161.606 84.6649 154.934 83.9568Z" fill="#EEEEEE"/>
</g>
<g clip-path="url(#clip2_598_5848)">
<path d="M279.673 75.4386C279.201 76.9587 278.568 78.5023 277.799 80.0067C276.511 82.5386 274.833 84.9966 272.884 87.2911C270.433 90.1665 267.556 92.7957 264.45 94.9759C261.968 96.7096 259.359 98.1488 256.711 99.2131C255.143 99.8443 253.549 100.336 251.971 100.668C250.393 101 248.907 101.167 247.534 101.169C245.212 101.174 243.174 100.715 241.513 99.8708C239.412 98.8116 238.849 98.2172 237.972 96.0399C237.26 94.3081 236.985 92.2585 237.188 89.957C237.303 88.5992 237.592 87.1441 238.075 85.6139C238.547 84.0938 239.18 82.5503 239.949 81.0459C241.237 78.514 242.915 76.056 244.865 73.7614C247.315 70.886 250.192 68.2569 253.298 66.0766C255.78 64.343 258.389 62.9037 261.038 61.8394C262.605 61.2083 264.199 60.717 265.777 60.3848C267.355 60.0525 268.841 59.8858 270.215 59.8837C272.536 59.8784 274.574 60.3376 276.235 61.1818C278.336 62.2409 278.899 62.8354 279.776 65.0127C280.488 66.7444 280.763 68.7941 280.56 71.0955C280.445 72.4533 280.156 73.9085 279.673 75.4386Z" fill="#D0CEC9"/>
<path d="M277.81 79.9966L274.485 76.3583L269.57 83.6427L272.895 87.2811C270.444 90.1565 267.567 92.7856 264.461 94.9659L261.137 91.3275L253.397 95.5647L256.722 99.2031C255.154 99.8342 253.56 100.325 251.982 100.658C250.404 100.99 248.918 101.157 247.545 101.159L244.22 97.5204L238.178 96.2213L241.503 99.8596C240.499 99.3592 239.619 98.7053 238.87 97.9306C238.061 97.0888 235.474 94.2139 235.474 94.2139L237.167 89.9559C237.282 88.5981 237.57 87.143 238.054 85.6128C238.526 84.0927 239.158 82.5492 239.928 81.0448L252.854 79.6492L244.854 73.7503C247.304 70.8748 250.182 68.2457 253.287 66.0655L258.52 74.4928L261.027 61.8283C262.595 61.1971 264.189 60.7059 265.767 60.3736C267.344 60.0413 268.831 59.8747 270.204 59.8726L264.681 73.177L276.246 61.1717C275.547 60.5168 274.334 58.2152 275.052 58.9351C275.103 58.991 277.886 62.0361 277.937 62.092C278.704 62.9317 279.328 63.9022 279.787 65.0026L276.463 61.3643L277.246 67.4471L280.571 71.0855C280.456 72.4433 280.167 73.8985 279.684 75.4286C279.212 76.9487 278.579 78.4922 277.81 79.9966Z" fill="#166FED"/>
<path d="M276.349 71.8003C275.877 73.3204 275.244 74.8639 274.474 76.3683C273.187 78.9002 271.508 81.3582 269.559 83.6527C267.109 86.5282 264.232 89.1573 261.126 91.3376C258.644 93.0712 256.035 94.5105 253.386 95.5747C251.819 96.2059 250.224 96.6971 248.647 97.0294C247.069 97.3617 245.583 97.5284 244.209 97.5304C241.888 97.5358 239.85 97.0766 238.188 96.2324C236.088 95.1733 234.532 93.4929 233.656 91.3156C232.943 89.5838 232.668 87.5342 232.872 85.2328C232.986 83.875 233.275 82.4198 233.758 80.8896C234.23 79.3696 234.863 77.826 235.633 76.3216C236.92 73.7897 238.599 71.3317 240.548 69.0372C242.998 66.1617 245.876 63.5326 248.981 61.3523C251.463 59.6187 254.072 58.1794 256.721 57.1152C258.288 56.484 259.883 55.9928 261.46 55.6605C263.038 55.3282 264.524 55.1616 265.898 55.1595C268.219 55.1541 270.257 55.6133 271.919 56.4575C274.019 57.5166 275.575 59.197 276.452 61.3743C277.164 63.1061 277.439 65.1557 277.235 67.4571C277.121 68.815 276.832 70.2701 276.349 71.8003Z" fill="#D6D4D0"/>
<path d="M271.326 56.65C269.685 55.8282 267.7 55.3824 265.432 55.38C264.079 55.3832 262.625 55.5409 261.08 55.8642C259.535 56.1875 257.983 56.681 256.437 57.292C253.843 58.3272 251.288 59.7373 248.861 61.4419C245.821 63.5617 242.999 66.1405 240.604 68.9656C238.699 71.2198 237.054 73.6263 235.79 76.0955C235.032 77.5686 234.412 79.0595 233.962 80.5595C233.502 82.0482 233.214 83.4821 233.1 84.8186C232.909 87.0675 233.175 89.0634 233.857 90.7615C234.725 92.8851 236.24 94.5207 238.298 95.5776C239.939 96.3994 241.924 96.8452 244.192 96.8476C245.544 96.8444 246.998 96.6867 248.544 96.3634C250.089 96.0401 251.641 95.5466 253.186 94.9356C255.781 93.9004 258.336 92.4903 260.763 90.7857C263.803 88.6659 266.625 86.0871 269.02 83.262C270.925 81.0078 272.57 78.6013 273.834 76.1321C274.591 74.659 275.212 73.1681 275.662 71.6681C276.112 70.1682 276.41 68.7455 276.524 67.409C276.714 65.1601 276.448 63.1642 275.767 61.4661C274.898 59.3425 273.374 57.6957 271.326 56.65Z" fill="#EEEEEE"/>
<path d="M274.475 76.347L261.55 77.7426L269.549 83.6415C267.099 86.517 264.221 89.1461 261.116 91.3264L255.884 82.8991L253.376 95.5635C251.808 96.1947 250.214 96.6859 248.637 97.0182C247.059 97.3505 245.573 97.5172 244.199 97.5192L249.723 84.2148L238.178 96.2212C236.078 95.1621 234.522 93.4817 233.645 91.3044L246.694 80.9224L232.85 85.2316C232.965 83.8738 233.254 82.4187 233.737 80.8885C234.209 79.3684 234.842 77.8249 235.612 76.3205L248.537 74.9249L240.527 69.036C242.977 66.1606 245.854 63.5315 248.96 61.3512L254.192 69.7785L256.7 57.114C258.267 56.4829 259.862 55.9916 261.439 55.6593C263.017 55.3271 264.503 55.1604 265.877 55.1583L260.353 68.4628L271.908 56.4463C274.009 57.5054 275.565 59.1858 276.441 61.3631L263.393 71.7452L277.226 67.4247C277.111 68.7825 276.823 70.2377 276.339 71.7678C275.867 73.2879 275.235 74.8315 274.465 76.3358L274.475 76.347Z" fill="#127FF9"/>
<path d="M233.112 84.7873C233.226 83.4508 233.513 82.0381 233.974 80.5281C234.421 79.1133 234.995 77.7051 235.697 76.3037L235.623 76.3104C234.853 77.8148 234.221 79.3371 233.748 80.8785C233.276 82.3985 232.987 83.8537 232.861 85.2216L233.087 85.1589C233.092 85.0313 233.107 84.9149 233.112 84.7873Z" fill="#127FF9"/>
<path d="M238.31 95.5463C236.346 94.5476 234.88 93.0105 233.996 91.0246L233.645 91.3044C234.533 93.4717 236.089 95.152 238.178 96.2213L238.666 95.7142C238.551 95.6549 238.425 95.6056 238.31 95.5463Z" fill="#127FF9"/>
<path d="M248.872 61.4318C248.872 61.4318 248.927 61.3815 248.97 61.3624C247.79 62.1739 246.66 63.0625 245.56 64.0061C246.627 63.0928 247.745 62.2354 248.872 61.4318Z" fill="#127FF9"/>
<path d="M261.091 55.8541C262.637 55.5308 264.08 55.3619 265.443 55.3699C265.57 55.3766 265.688 55.3721 265.815 55.3789L265.898 55.1595C264.524 55.1616 263.028 55.317 261.46 55.6605C259.893 56.004 258.299 56.4952 256.721 57.1152L256.708 57.1891C258.166 56.6161 259.632 56.1607 261.091 55.8541Z" fill="#127FF9"/>
<path d="M240.626 68.9454C241.818 67.5273 243.125 66.1898 244.503 64.9306C243.092 66.22 241.752 67.5877 240.527 69.0361C240.527 69.0361 240.582 68.9857 240.615 68.9555L240.626 68.9454Z" fill="#127FF9"/>
<path d="M275.662 71.6469C275.202 73.1356 274.571 74.6366 273.834 76.1108C273.777 76.225 273.719 76.3391 273.652 76.4421L274.464 76.3571C275.234 74.8527 275.866 73.3304 276.339 71.7891C276.811 70.269 277.099 68.8139 277.225 67.446L276.503 67.6742C276.371 68.9246 276.109 70.2533 275.662 71.6469Z" fill="#127FF9"/>
<path d="M271.919 56.4575L271.608 56.7821C273.529 57.8211 274.949 59.4197 275.767 61.4448C275.816 61.5646 275.865 61.6843 275.903 61.8142L276.452 61.3743C275.564 59.2071 274.008 57.5267 271.919 56.4575Z" fill="#127FF9"/>
<path d="M260.764 90.7644L261.116 91.3264C264.221 89.1462 267.109 86.5282 269.549 83.6416L269.01 83.2509C266.615 86.0759 263.793 88.6334 260.764 90.7644Z" fill="#127FF9"/>
<path d="M253.198 94.9042C251.663 95.5264 250.101 96.0087 248.556 96.3321C247.117 96.6397 245.759 96.7918 244.502 96.8107L244.21 97.5092C245.584 97.5071 247.08 97.3517 248.648 97.0082C250.215 96.6647 251.809 96.1735 253.387 95.5535L253.545 94.752C253.426 94.799 253.317 94.8572 253.198 94.9042Z" fill="#127FF9"/>
<path d="M270.961 72.9437C268.32 81.4777 259.05 89.9068 250.27 91.7875C241.479 93.6571 236.495 88.269 239.136 79.735C241.777 71.2011 251.047 62.772 259.827 60.8912C268.618 59.0217 273.601 64.4098 270.961 72.9437Z" fill="#166FED"/>
<path d="M270.51 73.6019C268.005 81.6635 259.263 89.6303 250.955 91.4082C242.647 93.186 237.94 88.0788 240.425 80.0162C242.93 71.9546 251.672 63.9877 259.98 62.2099C268.288 60.4321 272.995 65.5392 270.51 73.6019Z" fill="#127FF9"/>
<path d="M267.43 74.2598C265.443 80.6759 258.476 87.021 251.865 88.4195C245.264 89.8292 241.508 85.7632 243.505 79.3583C245.491 72.9422 252.458 66.5971 259.07 65.1986C265.671 63.7888 269.426 67.8549 267.43 74.2598Z" fill="#EEEEEE"/>
</g>
<g clip-path="url(#clip3_598_5848)">
<path d="M97.9385 88.9145C96.4623 93.6671 94.484 98.4931 92.0775 103.197C88.0526 111.113 82.8046 118.798 76.7102 125.972C69.0498 134.962 60.0532 143.182 50.3435 149.999C42.5836 155.419 34.4254 159.919 26.1446 163.246C21.2436 165.22 16.259 166.756 11.3264 167.795C6.39377 168.834 1.74685 169.355 -2.54791 169.361C-9.80594 169.378 -16.1773 167.942 -21.3718 165.303C-27.9393 161.991 -29.7007 160.133 -32.4421 153.325C-34.6697 147.911 -35.5285 141.503 -34.8929 134.307C-34.5343 130.062 -33.6316 125.512 -32.1209 120.728C-30.6447 115.975 -28.6664 111.149 -26.2599 106.446C-22.235 98.5297 -16.987 90.8446 -10.8926 83.6706C-3.23219 74.6804 5.76438 66.4603 15.4741 59.6437C23.234 54.2233 31.3922 49.7234 39.673 46.396C44.574 44.4226 49.5585 42.8867 54.4912 41.8478C59.4238 40.8088 64.0707 40.2879 68.3655 40.2813C75.6235 40.2646 81.9949 41.7002 87.1894 44.3396C93.7569 47.6512 95.5183 49.5098 98.2597 56.3172C100.487 61.7317 101.346 68.1399 100.711 75.3355C100.352 79.5807 99.4492 84.1304 97.9385 88.9145Z" fill="#D0CEC9"/>
<path d="M92.1118 103.165L81.718 91.7897L66.3508 114.565L76.7446 125.94C69.0841 134.931 60.0875 143.151 50.3778 149.967L39.9841 138.592L15.7852 151.84L26.1789 163.215C21.2779 165.189 16.2934 166.724 11.3607 167.763C6.42809 168.802 1.78117 169.323 -2.51359 169.33L-12.9074 157.954L-31.7977 153.892L-21.4039 165.268C-24.5413 163.703 -27.2945 161.659 -29.6341 159.237C-32.1655 156.605 -40.2517 147.616 -40.2517 147.616L-34.9595 134.304C-34.6009 130.058 -33.6982 125.509 -32.1875 120.725C-30.7113 115.972 -28.733 111.146 -26.3265 106.442L14.0855 102.079L-10.9248 83.6358C-3.26432 74.6455 5.73224 66.4254 15.442 59.6088L31.8003 85.9572L39.6409 46.3611C44.5419 44.3877 49.5264 42.8518 54.459 41.8129C59.3917 40.774 64.0386 40.253 68.3334 40.2465L51.0632 81.8435L87.2237 44.3083C85.0366 42.2606 81.2444 35.0646 83.4905 37.3152C83.6504 37.4902 92.3492 47.0107 92.5091 47.1857C94.9077 49.8108 96.8581 52.8454 98.294 56.2859L87.9003 44.9103L90.3511 63.9286L100.745 75.3041C100.386 79.5494 99.4835 84.099 97.9729 88.8831C96.4966 93.6357 94.5183 98.4618 92.1118 103.165Z" fill="#166FED"/>
<path d="M87.5448 77.539C86.0686 82.2916 84.0903 87.1176 81.6837 91.8211C77.6589 99.7373 72.4109 107.422 66.3165 114.596C58.6561 123.587 49.6595 131.807 39.9498 138.623C32.1899 144.044 24.0317 148.544 15.7509 151.871C10.8499 153.844 5.86533 155.38 0.932696 156.419C-3.99994 157.458 -8.64686 157.979 -12.9416 157.986C-20.1996 158.002 -26.571 156.567 -31.7655 153.927C-38.333 150.616 -43.1966 145.362 -45.938 138.555C-48.1655 133.14 -49.0243 126.732 -48.3888 119.536C-48.0302 115.291 -47.1275 110.741 -45.6168 105.957C-44.1406 101.205 -42.1622 96.3786 -39.7557 91.6751C-35.7309 83.759 -30.4829 76.0739 -24.3885 68.9C-16.728 59.9097 -7.73147 51.6896 1.97825 44.873C9.73814 39.4526 17.8964 34.9527 26.1771 31.6253C31.0782 29.6519 36.0627 28.116 40.9953 27.0771C45.928 26.0382 50.5749 25.5172 54.8697 25.5107C62.1277 25.4939 68.4991 26.9295 73.6935 29.569C80.261 32.8805 85.1246 38.1342 87.866 44.9417C90.0936 50.3561 90.9523 56.7644 90.3168 63.96C89.9582 68.2052 89.0555 72.7549 87.5448 77.539Z" fill="#D6D4D0"/>
<path d="M71.8398 30.1709C66.7093 27.6014 60.5028 26.2079 53.4121 26.2001C49.1838 26.2102 44.6378 26.7031 39.8061 27.7141C34.9744 28.725 30.1228 30.2679 25.2907 32.1783C17.1798 35.4148 9.19141 39.8237 1.60137 45.1531C-7.90153 51.7807 -16.7257 59.8434 -24.2139 68.6761C-30.1704 75.7241 -35.3124 83.2482 -39.2634 90.9684C-41.6329 95.5739 -43.5718 100.235 -44.9791 104.925C-46.4184 109.58 -47.3186 114.063 -47.6747 118.242C-48.2708 125.273 -47.439 131.513 -45.3074 136.822C-42.593 143.462 -37.8574 148.576 -31.4227 151.88C-26.2923 154.449 -20.0857 155.843 -12.9951 155.851C-8.76677 155.841 -4.22077 155.348 0.610945 154.337C5.44266 153.326 10.2943 151.783 15.1264 149.873C23.2373 146.636 31.2257 142.227 38.8157 136.898C48.3186 130.27 57.1428 122.208 64.6309 113.375C70.5874 106.327 75.7295 98.8027 79.6804 91.0826C82.05 86.4771 83.9889 81.8155 85.3962 77.1259C86.8035 72.4363 87.7356 67.9881 88.0918 63.8094C88.6879 56.7783 87.8561 50.538 85.7245 45.2286C83.0101 38.5891 78.2424 33.4404 71.8398 30.1709Z" fill="#EEEEEE"/>
<path d="M81.6862 91.7546L41.2743 96.1181L66.2846 114.561C58.6241 123.552 49.6275 131.772 39.9178 138.588L23.5594 112.24L15.7189 151.836C10.8179 153.809 5.83335 155.345 0.900714 156.384C-4.03192 157.423 -8.67884 157.944 -12.9736 157.951L4.29654 116.354L-31.7975 153.892C-38.365 150.581 -43.2286 145.327 -45.97 138.52L-5.17227 106.06L-48.4552 119.533C-48.0966 115.288 -47.1939 110.738 -45.6832 105.954C-44.207 101.201 -42.2287 96.3751 -39.8222 91.6716L0.589752 87.3082L-24.4549 68.8965C-16.7945 59.9062 -7.79792 51.6861 1.9118 44.8695L18.2702 71.2179L26.1107 31.6218C31.0117 29.6484 35.9962 28.1125 40.9289 27.0736C45.8615 26.0347 50.5084 25.5137 54.8032 25.5072L37.5331 67.1042L73.6616 29.534C80.2291 32.8455 85.0926 38.0992 87.834 44.9067L47.0363 77.3666L90.2873 63.8585C89.9287 68.1037 89.026 72.6534 87.5153 77.4375C86.0391 82.1901 84.0608 87.0161 81.6543 91.7196L81.6862 91.7546Z" fill="#127FF9"/>
<path d="M1.63583 45.1216C1.63583 45.1216 1.80818 44.9641 1.94357 44.9046C-1.7468 47.4416 -5.27975 50.2201 -8.71924 53.1701C-5.38315 50.3146 -1.88716 47.6341 1.63583 45.1216Z" fill="#127FF9"/>
<path d="M39.8406 27.6826C44.6723 26.6716 49.1863 26.1436 53.4466 26.1686C53.8453 26.1896 54.212 26.1757 54.6107 26.1967L54.8695 25.5108C50.5747 25.5173 45.8958 26.0033 40.9951 27.0772C36.0945 28.1511 31.11 29.687 26.1769 31.6254L26.135 31.8564C30.6963 30.065 35.2772 28.641 39.8406 27.6826Z" fill="#127FF9"/>
<path d="M85.3987 77.0594C83.9594 81.714 81.9861 86.407 79.6829 91.0161C79.5031 91.373 79.3233 91.73 79.1115 92.0519L81.6516 91.7862C84.0581 87.0827 86.0339 82.3232 87.5126 77.5041C88.9889 72.7515 89.8915 68.2018 90.2846 63.9251L88.0274 64.6388C87.6148 68.5481 86.7935 72.7023 85.3987 77.0594Z" fill="#127FF9"/>
<path d="M73.6933 29.5691L72.7232 30.5839C78.7271 33.8324 83.1674 38.8306 85.7269 45.1621C85.8793 45.5366 86.0318 45.9111 86.1497 46.3171L87.8658 44.9418C85.0899 38.1659 80.2263 32.9121 73.6933 29.5691Z" fill="#127FF9"/>
<path d="M38.8181 136.831L39.9175 138.588C49.6273 131.772 58.6558 123.587 66.2843 114.561L64.5989 113.34C57.1108 122.173 48.289 130.169 38.8181 136.831Z" fill="#127FF9"/>
<path d="M15.1633 149.775C10.3632 151.72 5.47959 153.228 0.647875 154.239C-3.8491 155.201 -8.09483 155.676 -12.0254 155.735L-12.9394 157.919C-8.64461 157.913 -3.9657 157.427 0.934951 156.353C5.83561 155.279 10.8201 153.743 15.7531 151.805L16.2464 149.299C15.8747 149.446 15.535 149.628 15.1633 149.775Z" fill="#127FF9"/>
<path d="M70.6989 81.1141C62.4429 107.796 33.4589 134.15 6.00695 140.03C-21.477 145.875 -37.0591 129.029 -28.8031 102.347C-20.5471 75.6657 8.43688 49.3116 35.8889 43.4313C63.3728 37.5861 78.9549 54.4324 70.6989 81.1141Z" fill="#166FED"/>
<path d="M69.2902 83.1719C61.4556 108.377 34.1237 133.286 8.14858 138.844C-17.8266 144.402 -32.5427 128.435 -24.7746 103.226C-16.94 78.0214 10.3919 53.1126 36.367 47.5542C62.3421 41.9957 77.0583 57.9635 69.2902 83.1719Z" fill="#127FF9"/>
<path d="M59.6587 85.2287C53.4482 105.289 31.6659 125.127 10.9951 129.5C-9.64368 133.907 -21.3856 121.195 -15.1431 101.169C-8.93263 81.1091 12.8497 61.271 33.5205 56.8984C54.1593 52.4908 65.9012 65.2034 59.6587 85.2287Z" fill="#EEEEEE"/>
</g>
<path d="M76.8587 195.63C77.6975 193.118 79.038 190.598 80.5429 188.252C90.4197 173.676 110.338 169.823 125.067 179.712C139.631 189.602 143.48 209.546 133.603 224.295C126.909 234.184 115.691 239.207 104.647 238.376L98.956 246.759C113.849 249.443 129.417 243.407 138.455 230.166C150.503 212.231 145.823 187.766 127.912 175.694C110.001 163.622 85.5677 168.316 73.5116 186.251C72.1711 188.26 71.0033 190.442 70 192.616L76.8587 195.63Z" fill="#00092A"/>
<path d="M224.822 180.716H211.936C211.097 180.716 210.093 181.556 209.929 182.396L206.245 196.305C205.579 197.984 203.399 203.008 198.712 203.008H179.797C175.447 203.008 175.274 199.656 175.447 198.149L179.632 182.396C179.97 181.392 179.468 180.716 178.465 180.716H165.578C164.739 180.716 163.736 181.556 163.571 182.396L150.849 229.992C150.512 230.997 151.014 231.672 152.017 231.672H164.904C165.742 231.672 166.746 230.832 166.91 229.992L171.096 214.24C171.935 212.23 174.106 207.874 178.465 207.874H197.379C202.067 207.874 201.902 211.728 201.73 212.906L197.207 230.001C196.87 231.005 197.371 231.681 198.374 231.681H211.261C212.1 231.681 213.103 230.841 213.268 230.001L225.99 182.405C226.154 181.4 225.653 180.725 224.822 180.725V180.716Z" fill="#00092A"/>
<path d="M108.997 229.317C95.1074 229.317 83.8901 218.423 83.8901 205.017C83.8901 191.611 95.1074 180.716 108.997 180.716C114.187 180.716 119.039 182.223 123.06 184.908C118.537 181.391 112.846 179.209 106.654 179.209C91.9248 179.209 80.0414 191.273 80.0414 206.359C80.0414 221.445 91.9248 233.171 106.654 233.171C118.2 233.171 128.249 225.628 131.761 215.071C127.912 223.454 119.211 229.317 108.997 229.317Z" fill="#166FEF"/>
<path d="M230.512 197.647C230.512 197.647 233.02 180.552 243.234 180.552H288.926C288.926 180.552 297.125 180.716 295.62 186.917C293.613 194.625 292.775 203.674 284.576 206.359C273.358 210.048 249.591 212.897 249.591 212.897C249.591 212.897 238.045 213.564 237.873 216.751C237.708 218.76 239.879 219.435 242.223 219.6C244.065 219.765 282.223 219.6 285.069 219.6L281.557 231.499H226.828C226.828 231.499 221.474 231.837 223.645 222.952C224.986 217.591 227.157 209.546 227.157 209.546C227.157 209.546 228.16 204.514 236.532 203.51C245.068 202.505 267.832 198.981 267.832 198.981C267.832 198.981 274.863 198.816 277.873 194.789C280.883 190.771 278.876 189.931 276.533 189.931C274.353 190.095 252.766 189.931 252.766 189.931C252.766 189.931 249.756 190.095 248.58 192.442C247.412 194.789 247.075 197.301 247.075 197.301L230.504 197.638L230.512 197.647Z" fill="#00092A"/>
<path d="M139.729 285.206L134.86 294H120.707L149.696 242.888H170.387L172.229 294H158.347L158.043 285.206H139.737H139.729ZM157.574 253.107H157.435L145.313 275.258H157.969L157.566 253.107H157.574Z" fill="#127FF9"/>
<path d="M174.992 290.484L186.069 249.088H206.851C217.106 249.088 219.795 253.453 216.9 264.265C213.783 275.909 210.132 279.886 198.61 279.886H188.857L186.02 290.484H174.992ZM198.972 270.284C203.372 270.12 204.112 269.626 205.543 264.265C206.678 260.016 206.374 258.69 202.073 258.69H194.523L191.423 270.284H198.972Z" fill="#127FF9"/>
<path d="M213.06 290.484L224.138 249.088H244.919C255.174 249.088 257.864 253.453 254.969 264.265C251.852 275.909 248.201 279.886 236.679 279.886H226.926L224.088 290.484H213.06ZM237.041 270.284C241.441 270.12 242.181 269.626 243.612 264.265C244.747 260.016 244.442 258.69 240.141 258.69H232.592L229.491 270.284H237.041Z" fill="#127FF9"/>
<g clip-path="url(#clip4_598_5848)">
<path d="M356.006 264.009C351.351 262.248 346.654 259.981 342.105 257.294C334.447 252.797 327.094 247.094 320.302 240.576C311.792 232.385 304.132 222.907 297.916 212.803C292.975 204.729 288.978 196.313 286.158 187.846C284.485 182.834 283.253 177.766 282.515 172.78C281.777 167.793 281.538 163.123 281.792 158.836C282.215 151.59 284.033 145.317 286.982 140.292C290.686 133.937 292.647 132.292 299.608 129.967C305.148 128.072 311.596 127.603 318.74 128.673C322.956 129.288 327.443 130.464 332.126 132.262C336.781 134.023 341.478 136.29 346.027 138.977C353.685 143.474 361.038 149.178 367.83 155.695C376.34 163.886 384 173.364 390.217 183.468C395.157 191.542 399.155 199.958 401.975 208.425C403.648 213.437 404.879 218.505 405.617 223.492C406.356 228.478 406.594 233.148 406.341 237.435C405.918 244.681 404.099 250.954 401.15 255.979C397.447 262.334 395.485 263.979 388.524 266.304C382.985 268.199 376.536 268.668 369.392 267.598C365.176 266.983 360.69 265.807 356.006 264.009Z" fill="#D0CEC9"/>
<path d="M342.134 257.33L354.118 247.644L332.315 230.926L320.331 240.612C311.821 232.421 304.161 222.943 297.945 212.839L309.929 203.153L298.171 178.196L286.187 187.882C284.514 182.871 283.283 177.802 282.544 172.816C281.806 167.829 281.567 163.159 281.821 158.872L293.805 149.186L299.003 130.576L287.019 140.262C288.771 137.225 290.978 134.601 293.538 132.412C296.318 130.045 305.78 122.518 305.78 122.518L318.748 128.607C322.963 129.222 327.45 130.398 332.134 132.196C336.788 133.957 341.486 136.224 346.035 138.911L347.943 179.513L367.867 155.665C376.377 163.856 384.037 173.334 390.253 183.439L362.963 198.171L402.011 208.395C403.684 213.407 404.916 218.475 405.654 223.462C406.392 228.448 406.631 233.118 406.377 237.405L365.902 217.648L401.179 256.015C403.355 253.956 410.768 250.606 408.385 252.712C408.201 252.861 398.171 260.968 397.987 261.117C395.221 263.352 392.074 265.115 388.553 266.34L400.537 256.654L381.405 257.949L369.421 267.635C365.206 267.019 360.719 265.843 356.035 264.045C351.381 262.284 346.683 260.017 342.134 257.33Z" fill="#166FED"/>
<path d="M367.99 254.323C363.336 252.562 358.638 250.295 354.089 247.608C346.431 243.111 339.078 237.408 332.286 230.89C323.776 222.699 316.116 213.221 309.9 203.117C304.959 195.043 300.962 186.627 298.142 178.16C296.469 173.149 295.238 168.08 294.499 163.094C293.761 158.107 293.522 153.437 293.776 149.15C294.199 141.904 296.017 135.631 298.966 130.606C302.67 124.251 308.208 119.715 315.169 117.391C320.709 115.495 327.157 115.026 334.301 116.096C338.517 116.711 343.003 117.888 347.687 119.685C352.342 121.447 357.039 123.713 361.588 126.4C369.246 130.897 376.599 136.601 383.391 143.118C391.901 151.309 399.561 160.787 405.777 170.892C410.718 178.966 414.716 187.381 417.535 195.848C419.208 200.86 420.44 205.928 421.178 210.915C421.916 215.901 422.155 220.571 421.901 224.859C421.479 232.104 419.66 238.377 416.711 243.402C413.008 249.757 407.469 254.294 400.508 256.618C394.969 258.513 388.52 258.983 381.376 257.912C377.16 257.297 372.674 256.121 367.99 254.323Z" fill="#D6D4D0"/>
<path d="M416.222 241.515C419.098 236.55 420.864 230.439 421.302 223.362C421.548 219.141 421.331 214.573 420.614 209.689C419.898 204.805 418.651 199.869 417.037 194.93C414.298 186.638 410.381 178.397 405.521 170.499C399.481 160.612 391.967 151.316 383.604 143.306C376.93 136.934 369.731 131.346 362.264 126.935C357.81 124.291 353.275 122.073 348.679 120.384C344.12 118.666 339.7 117.496 335.55 116.887C328.568 115.867 322.289 116.319 316.86 118.125C310.068 120.433 304.677 124.85 300.989 131.073C298.114 136.038 296.347 142.149 295.91 149.226C295.664 153.447 295.881 158.015 296.597 162.899C297.314 167.783 298.56 172.719 300.174 177.658C302.914 185.95 306.831 194.19 311.691 202.089C317.731 211.976 325.244 221.272 333.607 229.282C340.282 235.654 347.481 241.242 354.947 245.653C359.401 248.297 363.937 250.515 368.532 252.204C373.128 253.892 377.512 255.092 381.661 255.701C388.643 256.721 394.923 256.269 400.351 254.463C407.143 252.155 412.571 247.708 416.222 241.515Z" fill="#EEEEEE"/>
<path d="M354.155 247.615L352.247 207.013L332.323 230.86C323.813 222.669 316.153 213.192 309.937 203.087L337.227 188.354L298.179 178.13C296.506 173.119 295.274 168.05 294.536 163.064C293.798 158.077 293.559 153.407 293.813 149.12L334.288 168.877L299.003 130.577C302.706 124.222 308.245 119.685 315.206 117.361L345.136 160.049L334.308 116.03C338.524 116.645 343.011 117.821 347.695 119.619C352.349 121.38 357.047 123.647 361.596 126.334L363.504 166.936L383.399 143.052C391.908 151.243 399.569 160.721 405.785 170.826L378.494 185.559L417.543 195.782C419.216 200.794 420.447 205.862 421.185 210.849C421.924 215.835 422.162 220.505 421.909 224.792L381.434 205.035L416.748 243.372C413.044 249.727 407.506 254.264 400.545 256.588L370.615 213.9L381.479 257.889C377.264 257.274 372.777 256.098 368.093 254.3C363.439 252.539 358.741 250.272 354.192 247.585L354.155 247.615Z" fill="#127FF9"/>
<path d="M335.646 116.93C339.795 117.539 344.149 118.702 348.774 120.427C353.105 122.09 357.391 124.149 361.632 126.605L361.625 126.37C357.076 123.684 352.445 121.423 347.724 119.655C343.069 117.894 338.583 116.717 334.338 116.066L334.49 116.783C334.888 116.822 335.248 116.891 335.646 116.93Z" fill="#127FF9"/>
<path d="M301.085 131.115C304.573 125.174 309.648 120.893 316.013 118.51L315.206 117.361C308.274 119.721 302.736 124.258 299.003 130.576L300.493 132.194C300.7 131.846 300.878 131.463 301.085 131.115Z" fill="#127FF9"/>
<path d="M368.599 252.21C364.04 250.492 359.475 248.238 355.014 245.66C354.668 245.459 354.323 245.258 354.014 245.027L354.126 247.578C358.675 250.265 363.306 252.526 368.027 254.293C372.681 256.055 377.168 257.231 381.413 257.883L380.837 255.586C376.96 254.938 372.863 253.866 368.599 252.21Z" fill="#127FF9"/>
<path d="M311.757 202.096L309.937 203.087C316.153 213.191 323.776 222.699 332.323 230.86L333.644 229.252C325.281 221.243 317.834 211.953 311.757 202.096Z" fill="#127FF9"/>
<path d="M300.27 177.701C298.619 172.792 297.409 167.826 296.693 162.941C296.005 158.395 295.787 154.128 295.966 150.201L293.842 149.156C293.588 153.444 293.79 158.143 294.565 163.1C295.34 168.057 296.572 173.125 298.208 178.166L300.679 178.811C300.555 178.431 300.394 178.081 300.27 177.701Z" fill="#127FF9"/>
<path d="M365.442 237.292C339.309 227.435 314.758 196.909 310.551 169.151C306.381 141.364 324.139 126.83 350.272 136.687C376.405 146.543 400.956 177.07 405.163 204.827C409.333 232.615 391.574 247.148 365.442 237.292Z" fill="#166FED"/>
<path d="M363.473 235.761C338.789 226.415 315.581 197.625 311.605 171.361C307.63 145.097 324.459 131.374 349.151 140.655C373.835 150.001 397.043 178.791 401.019 205.055C404.994 231.319 388.165 245.041 363.473 235.761Z" fill="#127FF9"/>
<path d="M362.003 226.023C342.355 218.609 323.873 195.665 320.76 174.768C317.61 153.9 331.01 142.949 350.621 150.393C370.268 157.807 388.751 180.75 391.864 201.648C395.014 222.516 381.613 233.466 362.003 226.023Z" fill="#EEEEEE"/>
</g>
<defs>
<clipPath id="clip0_598_5848">
<rect width="76.494" height="51.9582" fill="white" transform="translate(147 125.661) rotate(-17.2318)"/>
</clipPath>
<clipPath id="clip1_598_5848">
<rect width="53" height="36" fill="white" transform="translate(138.326 44) rotate(36.3275)"/>
</clipPath>
<clipPath id="clip2_598_5848">
<rect width="53" height="36" fill="white" transform="translate(225 82.7503) rotate(-42.4178)"/>
</clipPath>
<clipPath id="clip3_598_5848">
<rect width="165.707" height="112.556" fill="white" transform="translate(-73 111.775) rotate(-42.4178)"/>
</clipPath>
<clipPath id="clip4_598_5848">
<rect width="165.707" height="112.556" fill="white" transform="translate(343.539 92) rotate(51.0538)"/>
</clipPath>
</defs>
</svg>
