<svg width="242" height="194" viewBox="0 0 242 194" fill="none" xmlns="http://www.w3.org/2000/svg">
<g id="wifi-slash-duotone 1" clip-path="url(#clip0_1600_12677)">
<path id="Vector" d="M1.92844 3.48595C5.02907 -0.454679 10.7388 -1.1746 14.6713 1.93243L238.521 177.745C242.454 180.852 243.172 186.573 240.072 190.514C236.971 194.455 231.261 195.175 227.329 192.068L3.47875 16.2551C-0.453745 13.1481 -1.17218 7.42657 1.92844 3.48595Z" fill="#DE506C"/>
<path id="Vector_2" opacity="0.4" d="M137.864 98.6672C152.687 101.661 166.11 108.557 177.038 118.219C182.067 122.652 189.705 122.159 194.129 117.158C198.553 112.156 198.062 104.464 193.071 100.031C173.862 83.0563 148.603 72.75 121 72.75C115.971 72.75 110.98 73.091 106.14 73.773L137.864 98.7051V98.6672ZM70.18 45.5445C85.9856 39.5957 103.115 36.375 121 36.375C160.022 36.375 195.415 51.7965 221.506 76.8801C226.346 81.5027 233.984 81.3512 238.597 76.5391C243.21 71.727 243.059 64.0352 238.257 59.4125C207.855 30.123 166.526 12.125 121 12.125C95.0228 12.125 70.4447 17.998 48.4378 28.4559L70.18 45.5445ZM143.99 150.047L122.966 133.451C122.323 133.413 121.681 133.375 121 133.375C107.652 133.375 96.8 144.25 96.8 157.625C96.8 171 107.652 181.875 121 181.875C134.348 181.875 145.2 171 145.2 157.625C145.2 154.973 144.784 152.434 143.99 150.047ZM86.2125 104.464L65.4156 88.0199C59.5547 91.5059 54.0341 95.5223 48.9672 100.031C43.9381 104.464 43.4844 112.118 47.9084 117.158C52.3325 122.197 59.9706 122.652 64.9997 118.219C71.3144 112.611 78.4609 107.988 86.2503 104.464H86.2125ZM35.3925 64.3383L15.7678 48.841C11.6084 52.1754 7.5625 55.6992 3.70562 59.3746C-1.09656 64.0352 -1.24781 71.6891 3.36531 76.5391C7.97844 81.3891 15.6544 81.5406 20.4566 76.8801C25.1453 72.3711 30.1366 68.1652 35.3925 64.3383Z" fill="#077CFF"/>
</g>
<defs>
<clipPath id="clip0_1600_12677">
<rect width="242" height="194" fill="white"/>
</clipPath>
</defs>
</svg>
